<svg width="30" height="21" viewBox="0 0 30 21" fill="none" xmlns="http://www.w3.org/2000/svg">
<path d="M23.0229 4.32201C22.8575 4.85439 22.6868 5.38503 22.5287 5.91916C21.7961 8.39328 21.0676 10.8687 20.3368 13.3433C20.1998 13.8066 19.9935 13.9547 19.4934 13.9547C15.5291 13.9547 11.5649 13.9547 7.60061 13.9547C7.06042 13.9547 6.74774 14.1945 6.74729 14.608C6.74684 15.0199 7.06222 15.2618 7.60016 15.2618C11.5568 15.2618 15.5134 15.2618 19.4704 15.2618C20.0102 15.2618 20.3237 15.5025 20.3237 15.9156C20.3237 16.3284 20.0097 16.5694 19.4709 16.5694C19.187 16.5694 18.9032 16.5694 18.5612 16.5694C19.825 16.8913 20.4472 17.743 20.2872 18.8675C20.1593 19.7677 19.2618 20.4983 18.2936 20.4909C17.243 20.483 16.4009 19.734 16.2946 18.678C16.2072 17.8098 16.7668 16.8363 18.0301 16.579H9.09143C9.64153 16.6983 10.0997 16.9599 10.4232 17.4119C10.7449 17.8617 10.8449 18.3627 10.7517 18.9042C10.5971 19.8009 9.67217 20.5272 8.72244 20.4896C7.64476 20.4468 6.8347 19.6786 6.75135 18.6204C6.67656 17.6713 7.40147 16.8044 8.44581 16.5694C8.12323 16.5694 7.80065 16.5725 7.47806 16.569C6.52383 16.5576 5.76107 16.0231 5.49255 15.1815C5.20826 14.2905 5.60564 13.3424 6.45174 12.8925C6.5031 12.865 6.55356 12.8353 6.61439 12.8013C5.80342 9.26326 4.99381 5.7318 4.18059 2.18549C3.8053 2.18549 3.43946 2.18549 3.07318 2.18549C2.28654 2.18549 1.49945 2.18986 0.712819 2.18374C0.197406 2.17981 -0.133737 1.72954 0.0523339 1.29149C0.162265 1.03338 0.372214 0.884013 0.660557 0.882703C2.00946 0.876588 3.35836 0.874841 4.70727 0.882703C5.08302 0.884886 5.30918 1.09452 5.39929 1.47841C5.55518 2.14269 5.70656 2.80784 5.86469 3.49396H6.15529C11.4757 3.49396 16.7965 3.49701 22.1169 3.48828C22.5341 3.4874 22.8436 3.59615 23.0233 3.97349V4.32201H23.0229ZM6.1643 4.81072C6.76486 7.43027 7.36273 10.0376 7.95924 12.6392H19.1438C19.9128 10.0302 20.6806 7.4259 21.4514 4.81072H6.1643ZM9.4415 18.5496C9.45186 18.195 9.1536 17.8897 8.78732 17.8796C8.42148 17.8696 8.10656 18.1587 8.0962 18.5138C8.08584 18.8684 8.38409 19.1737 8.75038 19.1837C9.11621 19.1938 9.43113 18.9047 9.4415 18.5496ZM18.9744 18.5265C18.9712 18.1705 18.6626 17.8766 18.2959 17.8796C17.9291 17.8827 17.6255 18.1819 17.6286 18.5374C17.6318 18.8929 17.9404 19.1872 18.3071 19.1842C18.6739 19.1811 18.9775 18.882 18.9744 18.5265Z" fill="#0E4ED2"/>
<ellipse cx="24.2213" cy="15.0741" rx="5.7799" ry="5.80315" fill="#FF0025" fill-opacity="0.9"/>
<path d="M25.0228 11.8798V17.707H23.9672V12.907H23.933L22.5701 13.7776V12.8102L24.0184 11.8798H25.0228Z" fill="white"/>
</svg>
