<svg width="22" height="21" viewBox="0 0 22 21" fill="none" xmlns="http://www.w3.org/2000/svg">
<path d="M1 6.62592C1.0587 6.28597 1.09823 5.94071 1.17884 5.6065C1.79285 3.06531 3.77418 1.22447 6.26503 0.923389C7.98574 0.715578 9.52056 1.2167 10.8503 2.3842C10.8902 2.41897 10.9294 2.45497 10.9689 2.48974C10.9736 2.49383 10.9802 2.49588 11.0025 2.50774C11.1364 2.39484 11.2734 2.27171 11.417 2.1588C15.0505 -0.696963 20.2166 1.47769 20.9178 6.14157C21.2305 8.2205 20.647 10.036 19.2323 11.5307C17.0585 13.8277 14.8666 16.1063 12.6771 18.3869C11.7437 19.3588 10.3009 19.3932 9.37733 18.4355C7.10367 16.0793 4.83705 13.7156 2.59117 11.3307C1.66723 10.3506 1.17962 9.12987 1.036 7.7611C1.02896 7.69524 1.01213 7.6302 1 7.56515C1 7.25221 1 6.93927 1 6.62592Z" stroke="#0E4ED2" stroke-width="1.6363" stroke-linejoin="round"/>
<ellipse cx="15.7716" cy="15.2754" rx="5.17781" ry="5.60207" fill="#FF0025" fill-opacity="0.9"/>
<path d="M16.4526 12.4848V18.312H15.747V13.2246H15.7128L14.2902 14.1692V13.4522L15.747 12.4848H16.4526Z" fill="white"/>
</svg>
