<svg width="20" height="21" viewBox="0 0 20 21" fill="none" xmlns="http://www.w3.org/2000/svg">
<path d="M8.55252 9.83639H0.396642C0.177602 9.83639 0 9.65859 0 9.43931V1.27453C0 1.05525 0.177602 0.877441 0.396642 0.877441H8.55252C8.77156 0.877441 8.94918 1.05525 8.94918 1.27453V9.43931C8.94918 9.65859 8.77156 9.83639 8.55252 9.83639Z" fill="#0E4ED2"/>
<path d="M19.6033 9.83639H11.4474C11.2284 9.83639 11.0508 9.65859 11.0508 9.43931V1.27453C11.0508 1.05525 11.2284 0.877441 11.4474 0.877441H19.6033C19.8223 0.877441 20 1.05525 20 1.27453V9.43931C20.0001 9.65859 19.8224 9.83639 19.6033 9.83639Z" fill="#0E4ED2"/>
<path d="M8.55252 20.8774H0.396642C0.177602 20.8774 0 20.6996 0 20.4803V12.3155C0 12.0963 0.177602 11.9185 0.396642 11.9185H8.55252C8.77156 11.9185 8.94918 12.0963 8.94918 12.3155V20.4803C8.94918 20.6996 8.77156 20.8774 8.55252 20.8774Z" fill="#0E4ED2"/>
<path d="M19.6033 20.8774H11.4474C11.2284 20.8774 11.0508 20.6996 11.0508 20.4803V12.3155C11.0508 12.0963 11.2284 11.9185 11.4474 11.9185H19.6033C19.8223 11.9185 20 12.0963 20 12.3155V20.4803C20.0001 20.6996 19.8224 20.8774 19.6033 20.8774Z" fill="#0E4ED2"/>
</svg>
