<svg width="17" height="20" viewBox="0 0 17 20" fill="none" xmlns="http://www.w3.org/2000/svg">
<path d="M13.4348 12.6443C13.2686 12.4464 13.0802 12.295 12.8696 12.1899C12.659 12.0848 12.4429 12.0322 12.2212 12.0322C11.9995 12.0322 11.7862 12.0848 11.5811 12.1899C11.3761 12.295 11.1794 12.4464 10.9909 12.6443L9.86043 13.9054C9.81609 13.8807 9.76899 13.856 9.71911 13.8312C9.66924 13.8065 9.62213 13.7818 9.5778 13.7571C9.52238 13.72 9.4642 13.6829 9.40324 13.6458C9.34228 13.6087 9.28409 13.5716 9.22867 13.5345C8.69667 13.1636 8.18683 12.7277 7.69916 12.227C7.21149 11.7262 6.7349 11.1605 6.2694 10.5299C6.04773 10.2085 5.85931 9.91172 5.70414 9.6397C5.54897 9.36768 5.41597 9.09566 5.30514 8.82365C5.44922 8.67527 5.59054 8.52381 5.72908 8.36925C5.86762 8.2147 6.0034 8.06323 6.1364 7.91486C6.18073 7.85304 6.23061 7.79431 6.28602 7.73867C6.34144 7.68303 6.39131 7.6243 6.43565 7.56247C6.81249 7.14208 7.0009 6.68151 7.0009 6.18075C7.0009 5.67999 6.81249 5.21942 6.43565 4.79903L5.45477 3.70477C5.39935 3.64295 5.34393 3.57804 5.28851 3.51003C5.2331 3.44203 5.17768 3.37712 5.12226 3.31529C5.01143 3.19165 4.90059 3.06801 4.78976 2.94436C4.67893 2.82072 4.56255 2.69707 4.44063 2.57343C4.27438 2.3756 4.08873 2.22722 3.88369 2.12831C3.67865 2.02939 3.46529 1.97994 3.24362 1.97994C3.02195 1.97994 2.8086 2.02939 2.60355 2.12831C2.39851 2.22722 2.20178 2.3756 2.01336 2.57343L0.799726 3.96443C0.566975 4.21172 0.384098 4.49301 0.251097 4.8083C0.118096 5.12359 0.0405118 5.46052 0.018345 5.81909C-0.0259887 6.40022 0.0100324 6.95353 0.126408 7.47901C0.242784 8.0045 0.356389 8.44035 0.467224 8.78655C0.766476 9.66443 1.13777 10.5207 1.58111 11.3553C2.02445 12.1899 2.57307 13.0399 3.227 13.9054C3.61492 14.4371 4.025 14.9317 4.45726 15.3892C4.88951 15.859 5.34116 16.301 5.81221 16.7152C6.28325 17.1294 6.77369 17.5097 7.28353 17.8559C7.79337 18.2144 8.31429 18.5359 8.84629 18.8203C9.26746 19.0428 9.74682 19.2623 10.2844 19.4787C10.8219 19.6951 11.3955 19.828 12.0051 19.8774C12.0494 19.8774 12.091 19.8774 12.1298 19.8774C12.1686 19.8774 12.2046 19.8774 12.2378 19.8774C12.659 19.8774 13.0414 19.794 13.385 19.6271C13.7285 19.4601 14.0389 19.2098 14.316 18.8759C14.316 18.8759 14.3187 18.8759 14.3243 18.8759C14.3298 18.8759 14.3326 18.8697 14.3326 18.8574C14.4213 18.7337 14.5182 18.6132 14.6235 18.4957C14.7288 18.3783 14.8369 18.2577 14.9477 18.1341C15.0253 18.0599 15.1057 17.9795 15.1888 17.893C15.2719 17.8064 15.3523 17.7137 15.4298 17.6148C15.6072 17.4169 15.7402 17.1975 15.8289 16.9563C15.9175 16.7152 15.9619 16.4772 15.9619 16.2423C15.9619 15.9826 15.9147 15.7385 15.8205 15.5097C15.7263 15.281 15.5906 15.0615 15.4132 14.8513L13.4348 12.6443ZM14.7316 16.8729C14.654 16.9594 14.5792 17.0398 14.5072 17.114C14.4351 17.1882 14.3603 17.2685 14.2827 17.3551C14.1719 17.4787 14.0583 17.6086 13.9419 17.7446C13.8255 17.8806 13.7119 18.0166 13.6011 18.1526C13.4127 18.3752 13.2104 18.539 12.9943 18.6441C12.7781 18.7492 12.526 18.8017 12.2378 18.8017C12.2157 18.8017 12.1907 18.8017 12.163 18.8017C12.1353 18.8017 12.1048 18.8017 12.0716 18.8017C11.5396 18.7646 11.0325 18.6472 10.5504 18.4494C10.0682 18.2515 9.6443 18.0537 9.27855 17.8559C8.76871 17.5838 8.2755 17.2809 7.79891 16.9471C7.32232 16.6132 6.86236 16.2547 6.41902 15.8714C5.97569 15.4881 5.54897 15.0739 5.13889 14.6287C4.7288 14.1836 4.34088 13.7138 3.97513 13.2192C3.36554 12.4031 2.85016 11.6026 2.42899 10.8174C2.00782 10.0323 1.65869 9.23167 1.38161 8.41562C1.21535 7.92104 1.10175 7.46974 1.04079 7.06172C0.979832 6.65369 0.960436 6.27039 0.982603 5.91182C1.00477 5.6769 1.05465 5.46052 1.13223 5.26269C1.20981 5.06486 1.32619 4.88558 1.48136 4.72484L2.71162 3.35239C2.7892 3.25347 2.8751 3.18238 2.96931 3.1391C3.06352 3.09583 3.15495 3.07419 3.24362 3.07419C3.36554 3.07419 3.47083 3.1051 3.5595 3.16692C3.64817 3.22874 3.72021 3.29057 3.77563 3.35239C3.77563 3.35239 3.78117 3.35239 3.79225 3.35239C3.892 3.47603 3.99729 3.59658 4.10813 3.71405C4.21896 3.83151 4.32426 3.95206 4.42401 4.07571C4.47942 4.13753 4.53761 4.20244 4.59857 4.27045C4.65953 4.33845 4.71772 4.40336 4.77313 4.46519L5.75402 5.55944C5.94244 5.76963 6.03665 5.97674 6.03665 6.18075C6.03665 6.38476 5.94244 6.59187 5.75402 6.80206C5.6986 6.86388 5.64595 6.92262 5.59608 6.97826C5.5462 7.0339 5.49356 7.09263 5.43814 7.15445C5.29406 7.32755 5.1472 7.49447 4.99757 7.65521C4.84795 7.81594 4.69555 7.9705 4.54038 8.11887C4.54038 8.13124 4.53761 8.13742 4.53207 8.13742C4.52653 8.13742 4.52376 8.13742 4.52376 8.13742C4.36859 8.31052 4.29101 8.47744 4.29101 8.63818C4.29101 8.79892 4.30763 8.93493 4.34088 9.04621C4.34088 9.05857 4.34088 9.06784 4.34088 9.07403C4.34088 9.08021 4.34088 9.0833 4.34088 9.0833C4.47388 9.4295 4.63459 9.77262 4.82301 10.1126C5.01143 10.4527 5.23864 10.8143 5.50464 11.1976L5.52127 11.2162C6.00894 11.8962 6.516 12.5021 7.04247 13.0337C7.56893 13.5654 8.12033 14.0353 8.69667 14.4433C8.77425 14.4927 8.85184 14.5391 8.92942 14.5824C9.007 14.6257 9.07905 14.672 9.14555 14.7215C9.21205 14.7586 9.27578 14.7926 9.33674 14.8235C9.39769 14.8544 9.45034 14.8884 9.49467 14.9255C9.50576 14.9255 9.51407 14.9286 9.51961 14.9348C9.52515 14.9409 9.53347 14.9502 9.54455 14.9626C9.61105 14.9873 9.67201 15.0089 9.72743 15.0275C9.78284 15.046 9.83826 15.0553 9.89368 15.0553C10.0488 15.0553 10.1708 15.0182 10.2594 14.944C10.3481 14.8698 10.4091 14.8142 10.4423 14.7771L11.6726 13.4047C11.7391 13.3428 11.8194 13.2779 11.9136 13.2099C12.0078 13.1419 12.1104 13.1079 12.2212 13.1079C12.332 13.1079 12.4318 13.1388 12.5204 13.2007C12.6091 13.2625 12.6812 13.3305 12.7366 13.4047L14.715 15.6117C14.9034 15.8219 14.9976 16.0321 14.9976 16.2423C14.9976 16.4525 14.9089 16.6627 14.7316 16.8729ZM9.1788 5.41106C9.65538 5.49762 10.1043 5.66144 10.5254 5.90255C10.9466 6.14366 11.329 6.45586 11.6726 6.83916C12.0051 7.22245 12.2822 7.64902 12.5038 8.11887C12.7255 8.58872 12.8751 9.0833 12.9527 9.6026C12.9749 9.73861 13.0303 9.8468 13.119 9.92717C13.2076 10.0075 13.3129 10.0477 13.4348 10.0477C13.4459 10.0477 13.457 10.0477 13.4681 10.0477C13.4792 10.0477 13.4958 10.0477 13.518 10.0477C13.651 10.023 13.7563 9.94881 13.8338 9.82516C13.9114 9.70152 13.9391 9.56551 13.917 9.41714C13.8172 8.78655 13.6343 8.18688 13.3683 7.61811C13.1023 7.04935 12.7643 6.53623 12.3542 6.07874C11.9441 5.62126 11.4841 5.24414 10.9743 4.9474C10.4645 4.65065 9.92693 4.44664 9.36167 4.33536C9.22867 4.31063 9.10675 4.34154 8.99592 4.42809C8.88509 4.51464 8.81859 4.63211 8.79642 4.78048C8.77425 4.92885 8.79919 5.06486 8.87123 5.18851C8.94327 5.31215 9.0458 5.38634 9.1788 5.41106ZM16.9926 9.26876C16.915 8.73709 16.7987 8.22397 16.6435 7.72939C16.4994 7.23482 16.3193 6.7557 16.1032 6.29203C15.887 5.82836 15.6404 5.38634 15.3633 4.96595C15.0752 4.53319 14.7648 4.13135 14.4323 3.76041C14.0888 3.37712 13.7285 3.03091 13.3517 2.7218C12.9638 2.41269 12.562 2.13758 12.1464 1.89648C11.7308 1.65537 11.3013 1.44827 10.8579 1.27516C10.4146 1.11443 9.96018 0.9846 9.49467 0.885685C9.36167 0.860956 9.23976 0.891867 9.12892 0.978418C9.01809 1.06497 8.95159 1.18243 8.92942 1.3308C8.90725 1.47918 8.93496 1.61519 9.01255 1.73883C9.09013 1.86247 9.19542 1.93666 9.32842 1.96139C10.1708 2.12213 10.966 2.41887 11.7141 2.85163C12.4623 3.28438 13.1411 3.84078 13.7507 4.52083C14.3492 5.18851 14.8452 5.94273 15.2387 6.78352C15.6321 7.6243 15.8954 8.50835 16.0284 9.43569C16.0505 9.57169 16.1087 9.67988 16.2029 9.76025C16.2971 9.84062 16.3996 9.8808 16.5105 9.8808C16.5216 9.8808 16.5354 9.8808 16.552 9.8808C16.5687 9.8808 16.5825 9.8808 16.5936 9.8808C16.7266 9.85608 16.8319 9.78498 16.9095 9.66752C16.9871 9.55006 17.0148 9.41714 16.9926 9.26876Z" fill="#0E4ED2"/>
</svg>
