<svg width="45" height="45" viewBox="0 0 45 45" fill="none" xmlns="http://www.w3.org/2000/svg">
<path d="M35.9046 34.0492L38.1194 39.0319C38.1523 39.1057 38.1993 39.1724 38.2579 39.2281C38.3165 39.2838 38.3855 39.3274 38.4609 39.3564C38.5364 39.3854 38.6168 39.3993 38.6976 39.3972C38.7784 39.3952 38.858 39.3772 38.9319 39.3444C39.0058 39.3116 39.0725 39.2645 39.1281 39.2059C39.1838 39.1473 39.2274 39.0783 39.2564 39.0029C39.2855 38.9274 39.2993 38.847 39.2973 38.7662C39.2952 38.6854 39.2773 38.6058 39.2444 38.5319L37.0296 33.5492C36.9968 33.4754 36.9497 33.4087 36.8911 33.353C36.8325 33.2973 36.7635 33.2537 36.6881 33.2247C36.6127 33.1957 36.5322 33.1818 36.4514 33.1839C36.3706 33.1859 36.291 33.2039 36.2171 33.2367C36.1433 33.2695 36.0766 33.3166 36.0209 33.3752C35.9652 33.4338 35.9216 33.5028 35.8926 33.5782C35.8636 33.6536 35.8497 33.7341 35.8518 33.8149C35.8538 33.8957 35.8718 33.9753 35.9046 34.0492Z" fill="#3960FF"/>
<path d="M43.2777 42.4157L37.0585 28.4196C37.0102 28.3108 36.9313 28.2184 36.8314 28.1536C36.7316 28.0888 36.6151 28.0543 36.496 28.0543H29.4722C31.3664 25.0066 33.0254 21.7969 34.0238 18.8617C34.5857 17.3436 34.9011 15.7453 34.958 14.1275C34.9667 12.486 34.6509 10.8589 34.0287 9.3398C33.4066 7.82069 32.4903 6.43952 31.3326 5.27568C30.175 4.11183 28.7987 3.18826 27.2829 2.55804C25.7671 1.92783 24.1417 1.60339 22.5002 1.60339C20.8586 1.60339 19.2332 1.92783 17.7174 2.55804C16.2016 3.18826 14.8254 4.11183 13.6677 5.27568C12.51 6.43952 11.5937 7.82069 10.9716 9.3398C10.3494 10.8589 10.0336 12.486 10.0424 14.1275C10.0993 15.7454 10.4146 17.3438 10.9765 18.862C11.9749 21.7986 13.6343 25.0066 15.5285 28.0543H8.50463C8.38558 28.0543 8.26907 28.0888 8.16923 28.1536C8.06938 28.2184 7.9905 28.3108 7.94213 28.4196L1.72299 42.4157C1.68133 42.5094 1.66375 42.612 1.67184 42.7142C1.67994 42.8164 1.71346 42.915 1.76935 43.001C1.82524 43.0869 1.90174 43.1576 1.99188 43.2065C2.08202 43.2553 2.18295 43.2809 2.28549 43.2809H42.7152C42.8177 43.2809 42.9186 43.2553 43.0088 43.2065C43.0989 43.1576 43.1754 43.0869 43.2313 43.001C43.2872 42.915 43.3207 42.8164 43.3288 42.7142C43.3369 42.612 43.3193 42.5094 43.2777 42.4157ZM11.2728 14.1279C11.2646 12.6482 11.5488 11.1815 12.1094 9.81206C12.6699 8.44263 13.4956 7.1975 14.5389 6.14827C15.5823 5.09904 16.8228 4.2664 18.1891 3.69823C19.5553 3.13006 21.0205 2.83757 22.5002 2.83757C23.9799 2.83757 25.445 3.13006 26.8112 3.69823C28.1775 4.2664 29.418 5.09904 30.4614 6.14827C31.5048 7.1975 32.3304 8.44263 32.891 9.81206C33.4515 11.1815 33.7358 12.6482 33.7275 14.1279C33.6698 15.6109 33.3766 17.0753 32.8588 18.4662C31.7897 21.6109 29.9369 25.0833 27.8525 28.3191C27.8479 28.3257 27.8437 28.3328 27.8395 28.3395C26.2196 30.8591 24.4361 33.2697 22.5003 35.5556C20.5645 33.2698 18.7808 30.8593 17.1608 28.3398C17.1562 28.3328 17.1524 28.3257 17.1474 28.3191C15.063 25.0847 13.2099 21.6109 12.1415 18.4665C11.6238 17.0755 11.3305 15.611 11.2728 14.1279ZM3.23189 42.0504L8.90436 29.2852H16.3128C18.0422 31.954 19.9559 34.4988 22.0398 36.9011C22.0975 36.9668 22.1686 37.0194 22.2483 37.0554C22.328 37.0915 22.4144 37.1102 22.5019 37.1102C22.5894 37.1102 22.6758 37.0915 22.7555 37.0554C22.8352 37.0194 22.9063 36.9668 22.964 36.9011C25.0469 34.4987 26.9595 31.9539 28.6878 29.2852H36.0946L41.767 42.0507L3.23189 42.0504Z" fill="#3960FF"/>
<path d="M22.5011 20.6631C23.7939 20.6631 25.0576 20.2797 26.1325 19.5615C27.2074 18.8433 28.0451 17.8224 28.5398 16.6281C29.0345 15.4337 29.164 14.1195 28.9117 12.8515C28.6595 11.5836 28.0369 10.419 27.1228 9.50488C26.2087 8.59078 25.044 7.96829 23.776 7.71613C22.5081 7.46397 21.1939 7.59346 19.9995 8.08822C18.8052 8.58299 17.7844 9.42081 17.0662 10.4957C16.3481 11.5707 15.9648 12.8344 15.9648 14.1272C15.9669 15.86 16.6562 17.5213 17.8815 18.7466C19.1069 19.9719 20.7682 20.6611 22.5011 20.6631ZM22.5011 8.82105C23.5505 8.82105 24.5763 9.13222 25.4488 9.71521C26.3213 10.2982 27.0014 11.1268 27.403 12.0963C27.8046 13.0658 27.9096 14.1326 27.705 15.1618C27.5003 16.191 26.995 17.1364 26.253 17.8785C25.511 18.6205 24.5656 19.1259 23.5364 19.3306C22.5072 19.5354 21.4404 19.4304 20.4709 19.0288C19.5014 18.6273 18.6727 17.9473 18.0897 17.0748C17.5066 16.2023 17.1954 15.1765 17.1953 14.1272C17.1969 12.7205 17.7564 11.3719 18.7511 10.3772C19.7458 9.38249 21.0944 8.82263 22.5011 8.82105Z" fill="#3960FF"/>
</svg>
