<svg width="34" height="22" viewBox="0 0 34 22" fill="none" xmlns="http://www.w3.org/2000/svg">
<path d="M26.0926 3.78903C25.9052 4.37465 25.7117 4.95835 25.5325 5.54589C24.7022 8.26742 23.8766 10.9904 23.0484 13.7124C22.8932 14.2221 22.6593 14.385 22.0925 14.385C17.5997 14.385 13.1069 14.385 8.61402 14.385C8.00181 14.385 7.64744 14.6487 7.64693 15.1037C7.64642 15.5567 8.00385 15.8228 8.61351 15.8228C13.0977 15.8228 17.5818 15.8228 22.0665 15.8228C22.6782 15.8228 23.0336 16.0875 23.0336 16.542C23.0336 16.996 22.6777 17.2612 22.067 17.2612C21.7453 17.2612 21.4236 17.2612 21.0361 17.2612C22.4683 17.6153 23.1735 18.5521 22.9922 19.7891C22.8472 20.7792 21.8301 21.583 20.7328 21.5748C19.542 21.5662 18.5877 20.7423 18.4672 19.5806C18.3682 18.6256 19.0023 17.5547 20.4341 17.2718H10.3036C10.9271 17.4029 11.4464 17.6907 11.813 18.1879C12.1776 18.6827 12.2909 19.2338 12.1852 19.8295C12.0101 20.8158 10.9618 21.6147 9.88544 21.5734C8.66406 21.5263 7.74599 20.6812 7.65153 19.5172C7.56677 18.4733 8.38834 17.5197 9.57192 17.2612C9.20633 17.2612 8.84073 17.2646 8.47514 17.2607C7.39367 17.2482 6.52921 16.6602 6.22489 15.7344C5.9027 14.7544 6.35306 13.7114 7.31198 13.2166C7.37018 13.1863 7.42737 13.1537 7.4963 13.1162C6.57721 9.2244 5.65965 5.33979 4.73801 1.43885C4.31267 1.43885 3.89806 1.43885 3.48293 1.43885C2.59141 1.43885 1.69938 1.44366 0.807862 1.43693C0.223727 1.43261 -0.151569 0.937304 0.0593117 0.455452C0.1839 0.171529 0.421843 0.00722851 0.748631 0.00578728C2.27739 -0.000938476 3.80615 -0.00286012 5.3349 0.00578728C5.76075 0.00818934 6.01708 0.238787 6.1192 0.661068C6.29587 1.39177 6.46743 2.12344 6.64665 2.87817H6.976C13.0058 2.87817 19.036 2.88153 25.0658 2.87192C25.5386 2.87096 25.8894 2.99058 26.0931 3.40566V3.78903H26.0926ZM6.98621 4.3266C7.66685 7.20811 8.34442 10.0762 9.02047 12.938H21.6963C22.5679 10.068 23.438 7.20331 24.3116 4.3266H6.98621ZM10.7004 19.4394C10.7121 19.0493 10.3741 18.7135 9.95896 18.7024C9.54435 18.6914 9.18744 19.0094 9.17569 19.4C9.16395 19.7901 9.50197 20.1259 9.91709 20.1369C10.3317 20.148 10.6886 19.83 10.7004 19.4394ZM21.5043 19.4139C21.5007 19.0224 21.151 18.6991 20.7353 18.7024C20.3197 18.7058 19.9755 19.0349 19.9791 19.4259C19.9827 19.817 20.3325 20.1408 20.7481 20.1374C21.1637 20.1341 21.5079 19.805 21.5043 19.4139Z" fill="#3585AD"/>
<ellipse cx="27.449" cy="15.6164" rx="6.55055" ry="6.38347" fill="#FF0025" fill-opacity="0.9"/>
<path d="M27.9739 12.9853V18.8125H26.9183V14.0124H26.8842L25.5213 14.8831V13.9157L26.9695 12.9853H27.9739Z" fill="white"/>
</svg>
