<svg width="27" height="24" viewBox="0 0 27 24" fill="none" xmlns="http://www.w3.org/2000/svg">
<path d="M1 7.61075C1.07338 7.21981 1.12278 6.82276 1.22355 6.43841C1.99106 3.51605 4.46773 1.39908 7.58129 1.05284C9.73217 0.813857 11.6507 1.39014 13.3129 2.73277C13.3628 2.77276 13.4117 2.81416 13.4611 2.85415C13.467 2.85885 13.4753 2.8612 13.5032 2.87485C13.6705 2.74501 13.8417 2.6034 14.0212 2.47356C18.5632 -0.810565 25.0207 1.69028 25.8973 7.05375C26.2881 9.44451 25.5588 11.5323 23.7904 13.2513C21.0731 15.8928 18.3333 18.5131 15.5963 21.1358C14.4297 22.2536 12.6261 22.2931 11.4717 21.1918C8.62959 18.4821 5.79631 15.7639 2.98897 13.0213C1.83403 11.8941 1.22453 10.4903 1.045 8.91621C1.0362 8.84047 1.01516 8.76567 1 8.69087C1 8.33099 1 7.9711 1 7.61075Z" stroke="#3585AD" stroke-width="1.6363" stroke-linejoin="round"/>
<ellipse cx="19.4644" cy="17.5575" rx="6.47226" ry="6.44238" fill="#FF0025" fill-opacity="0.9"/>
<path d="M19.888 15.1728V21H18.8324V16.1999H18.7982L17.4353 17.0706V16.1032L18.8836 15.1728H19.888Z" fill="white"/>
</svg>
