<svg width="40" height="40" viewBox="0 0 40 40" fill="none" xmlns="http://www.w3.org/2000/svg">
<path d="M23.3333 2H16.6666C16.2987 2 16 2.29867 16 2.66664C16 3.03461 16.2987 3.33328 16.6666 3.33328H23.3333C23.7012 3.33328 23.9999 3.03461 23.9999 2.66664C23.9999 2.29867 23.7012 2 23.3333 2Z" fill="#3960FF"/>
<path d="M27.9993 2H27.3327C26.9647 2 26.666 2.29867 26.666 2.66664C26.666 3.03461 26.9647 3.33328 27.3327 3.33328H27.9993C28.3673 3.33328 28.6659 3.03461 28.6659 2.66664C28.6659 2.29867 28.3673 2 27.9993 2Z" fill="#3960FF"/>
<path d="M20.8266 34H19.1713C18.1573 34 17.332 34.8253 17.332 35.8393V36.1613C17.332 37.1753 18.1573 38 19.1707 38H20.826C21.84 38 22.6653 37.1753 22.6653 36.1613V35.8393C22.6653 34.8253 21.84 34 20.8266 34ZM21.332 36.1613C21.332 36.44 21.1054 36.6666 20.8267 36.6666H19.1713C18.892 36.6666 18.6653 36.44 18.6653 36.1613V35.8393C18.6653 35.56 18.892 35.3333 19.1713 35.3333H20.826C21.1054 35.3333 21.332 35.5599 21.332 35.8393V36.1613Z" fill="#3960FF"/>
<path d="M28.9234 0H11.076C9.74734 0 8.66602 1.08133 8.66602 2.41V37.59C8.66602 38.9187 9.74734 40 11.076 40H28.9227C30.2513 40 31.3327 38.9187 31.3327 37.5907V2.41C31.3327 1.08133 30.2514 0 28.9234 0ZM29.9994 37.59C29.9994 38.1834 29.5167 38.6666 28.9234 38.6666H11.076C10.482 38.6666 9.99938 38.1833 9.99938 37.5906V2.41C9.99938 1.81664 10.482 1.33336 11.076 1.33336H28.9227C29.5166 1.33336 29.9993 1.81672 29.9993 2.41V37.59H29.9994Z" fill="#3960FF"/>
<path d="M30.6659 4H9.33266C8.96469 4 8.66602 4.29867 8.66602 4.66664V32.6666C8.66602 33.0346 8.96469 33.3333 9.33266 33.3333H30.666C31.034 33.3333 31.3327 33.0346 31.3327 32.6666V4.66664C31.3327 4.29867 31.034 4 30.6659 4ZM29.9993 32H9.9993V5.33336H29.9993V32Z" fill="#3960FF"/>
</svg>
