<svg width="51" height="51" viewBox="0 0 51 51" fill="none" xmlns="http://www.w3.org/2000/svg">
<g clip-path="url(#clip0_106_482)">
<path d="M15.484 1.62973C18.1322 -0.950537 22.1388 0.339345 25.4664 0.000143096C28.7261 0.271911 32.8001 -1.01848 35.4483 1.62973C37.6214 3.66698 36.942 6.85822 37.0099 9.57488H50.5912V40.8793C50.7271 46.3116 45.8378 51.133 40.4735 50.9971H10.5268C5.09451 51.133 0.273171 46.2437 0.409055 40.8793V9.57488H13.9903C13.9898 6.85872 13.3109 3.66698 15.484 1.62973ZM18.3361 4.41434C17.6572 5.97598 18.1322 7.8094 17.9964 9.50744H32.9355C32.7996 7.80991 33.2072 5.97649 32.5958 4.41434C30.0834 3.66748 27.3668 4.21051 24.7865 4.07463C22.6818 4.21051 20.3733 3.66698 18.3361 4.41434ZM4.41509 13.5814V40.7435C4.34715 44.0031 7.19918 46.9231 10.4589 46.8552H40.4055C43.6652 46.9231 46.5847 44.0031 46.5172 40.7435C46.5852 31.7118 46.5172 22.6126 46.5172 13.5814H4.41509Z" fill="#0E4ED2"/>
<circle cx="25" cy="30" r="10" fill="#0E4ED2" fill-opacity="0.9"/>
<path d="M22.2315 34.0994C21.7036 34.0994 21.2348 34.0107 20.8253 33.8331C20.4181 33.6555 20.0985 33.4129 19.8665 33.1051C19.6368 32.795 19.5232 32.4434 19.5256 32.0504C19.5232 31.745 19.5895 31.4645 19.7244 31.2088C19.8594 30.9531 20.0417 30.7401 20.2713 30.5696C20.5033 30.3968 20.7614 30.2867 21.0455 30.2393V30.1896C20.6714 30.1068 20.3684 29.9162 20.1364 29.6179C19.9067 29.3172 19.7931 28.9704 19.7955 28.5774C19.7931 28.2034 19.8973 27.8696 20.108 27.576C20.3187 27.2824 20.6075 27.0516 20.9744 26.8835C21.3414 26.7131 21.7604 26.6278 22.2315 26.6278C22.6979 26.6278 23.1134 26.7131 23.478 26.8835C23.8449 27.0516 24.1338 27.2824 24.3445 27.576C24.5575 27.8696 24.6641 28.2034 24.6641 28.5774C24.6641 28.9704 24.5469 29.3172 24.3125 29.6179C24.0805 29.9162 23.781 30.1068 23.4141 30.1896V30.2393C23.6982 30.2867 23.9538 30.3968 24.1811 30.5696C24.4107 30.7401 24.593 30.9531 24.728 31.2088C24.8653 31.4645 24.9339 31.745 24.9339 32.0504C24.9339 32.4434 24.8179 32.795 24.5859 33.1051C24.3539 33.4129 24.0343 33.6555 23.6271 33.8331C23.2223 34.0107 22.7571 34.0994 22.2315 34.0994ZM22.2315 33.0838C22.5038 33.0838 22.7405 33.0376 22.9418 32.9453C23.143 32.8506 23.2992 32.718 23.4105 32.5476C23.5218 32.3771 23.5786 32.1806 23.581 31.9581C23.5786 31.7261 23.5182 31.5213 23.3999 31.3438C23.2839 31.1638 23.1241 31.023 22.9205 30.9212C22.7192 30.8194 22.4896 30.7685 22.2315 30.7685C21.9711 30.7685 21.7391 30.8194 21.5355 30.9212C21.3319 31.023 21.1709 31.1638 21.0526 31.3438C20.9366 31.5213 20.8797 31.7261 20.8821 31.9581C20.8797 32.1806 20.9342 32.3771 21.0455 32.5476C21.1567 32.7157 21.313 32.8471 21.5142 32.9418C21.7178 33.0365 21.9569 33.0838 22.2315 33.0838ZM22.2315 29.7706C22.4541 29.7706 22.6506 29.7256 22.821 29.6357C22.9938 29.5457 23.13 29.4202 23.2294 29.2592C23.3288 29.0982 23.3797 28.9124 23.3821 28.7017C23.3797 28.4934 23.33 28.3111 23.233 28.1548C23.1359 27.9962 23.0009 27.8743 22.8281 27.7891C22.6553 27.7015 22.4564 27.6577 22.2315 27.6577C22.0019 27.6577 21.7995 27.7015 21.6243 27.7891C21.4515 27.8743 21.3165 27.9962 21.2195 28.1548C21.1248 28.3111 21.0786 28.4934 21.081 28.7017C21.0786 28.9124 21.1259 29.0982 21.223 29.2592C21.3224 29.4179 21.4586 29.5433 21.6314 29.6357C21.8066 29.7256 22.0066 29.7706 22.2315 29.7706ZM28.2605 32.8352V27.9205H29.3755V32.8352H28.2605ZM26.3606 30.9354V29.8203H31.2754V30.9354H26.3606Z" fill="white"/>
</g>
<defs>
<clipPath id="clip0_106_482">
<rect width="51" height="51" fill="white"/>
</clipPath>
</defs>
</svg>
