<svg width="150" height="95" viewBox="0 0 150 95" fill="none" xmlns="http://www.w3.org/2000/svg">
<g clip-path="url(#clip0_91_459)">
<g clip-path="url(#clip1_91_459)">
<g clip-path="url(#clip2_91_459)">
<path d="M64.5536 13.9424C70.7015 21.7981 73.7755 33.0694 73.7755 47.7562C73.7755 62.443 70.7015 73.7142 64.212 81.57C58.0641 89.4257 49.1837 93.5243 37.5709 93.5243C25.9581 93.5243 17.0777 89.4257 10.9297 81.57C4.78174 73.7142 1.36621 62.443 1.36621 47.7562C1.36621 33.0694 4.44019 21.7981 10.5882 13.9424C16.7361 6.08668 25.6165 1.98804 37.2293 1.98804C49.5252 2.32959 58.4056 6.08668 64.5536 13.9424ZM33.1307 24.5306C32.106 25.8968 31.4229 28.2876 31.0814 32.0447C30.7398 35.4603 30.3982 40.9251 30.3982 48.0977C30.3982 55.2704 30.7398 60.3937 31.0814 64.1507C31.4229 67.9078 32.106 70.2987 33.1307 71.6649C34.1553 73.0311 35.8631 73.7142 37.9124 73.7142C39.9617 73.7142 41.6695 73.0311 42.6942 71.6649C43.7188 70.2987 44.4019 67.9078 44.7435 64.4923C45.085 61.0768 45.4266 55.6119 45.4266 48.0977C45.4266 40.5836 45.085 35.1187 44.7435 31.7032C44.4019 28.2876 43.7188 25.8968 42.6942 24.5306C41.6695 23.1643 39.9617 22.8228 37.9124 22.8228C35.8631 22.4812 34.1553 23.1643 33.1307 24.5306ZM131.498 5.74512C136.621 8.136 140.378 11.21 142.769 14.9671C145.16 18.7242 146.526 23.1643 146.526 27.9461C146.526 32.0447 145.843 35.8018 144.477 39.2174C143.111 42.6329 140.378 46.7315 135.938 51.8548C131.498 56.6366 125.009 62.7845 116.128 69.9572H148.576L145.843 90.7919H84.3637V71.6649C93.9272 62.7845 100.758 55.9535 105.54 51.1717C110.322 46.39 113.396 42.2913 115.445 39.2174C117.153 36.1434 118.177 33.411 118.177 30.6785C118.177 28.2877 117.494 26.2383 116.128 24.5306C114.762 23.1643 112.713 22.4812 110.322 22.4812C107.589 22.4812 105.198 23.1643 103.149 24.5306C101.1 25.8968 98.7089 27.9461 96.6596 31.0201L80.9482 18.3826C84.7052 13.2593 89.1454 9.16066 94.9518 6.08668C100.417 3.0127 106.906 1.64648 114.079 1.64648C120.227 2.32959 126.375 3.35425 131.498 5.74512Z" fill="white" stroke="#FF5C05" stroke-width="1.70777" stroke-miterlimit="10"/>
</g>
</g>
</g>
<defs>
<clipPath id="clip0_91_459">
<rect width="150" height="95" fill="white"/>
</clipPath>
<clipPath id="clip1_91_459">
<rect width="150" height="95" fill="white"/>
</clipPath>
<clipPath id="clip2_91_459">
<rect width="150" height="94.7811" fill="white" transform="translate(0 0.109375)"/>
</clipPath>
</defs>
</svg>
