<svg width="67" height="67" viewBox="0 0 67 67" fill="none" xmlns="http://www.w3.org/2000/svg">
<path d="M8.81984 16.2266C8.78058 15.2059 9.70968 14.303 10.7304 14.3422C20.5972 14.3292 30.4509 14.3422 40.3177 14.3422C41.3122 14.3161 42.2413 15.219 42.189 16.2266C42.189 17.8885 42.2021 19.5504 42.1759 21.2124C42.4114 20.4926 42.7778 19.7598 43.4583 19.3672C43.9556 19.027 44.5706 18.9223 45.1595 18.9354H56.6751C57.722 18.8961 58.481 19.7598 59.0044 20.5581C61.0589 23.9997 63.0872 27.4674 65.1286 30.9221C65.7698 31.9167 65.9923 33.1206 65.9792 34.2852C65.9792 37.596 65.9923 40.9198 65.9792 44.2305C65.9792 45.6045 64.8015 46.8346 63.4405 46.887C61.7132 46.9262 59.9989 46.8608 58.2716 46.9262C58.1669 48.3919 57.5519 49.8313 56.505 50.8651C55.1179 52.2915 52.998 52.9458 51.0612 52.5532C49.1245 52.1999 47.4234 50.8258 46.6513 49.0331C46.3372 48.3657 46.2194 47.6329 46.1148 46.9001H32.3745C32.3484 46.2458 32.3614 45.5784 32.3745 44.9241H46.3372C46.8737 43.2098 48.1038 41.7049 49.7657 40.9852C51.8595 40.0169 54.4898 40.4225 56.204 41.9667C57.12 42.7387 57.7089 43.8118 58.1146 44.9241C59.8288 44.911 61.53 44.9372 63.2443 44.9241C63.7023 44.9633 64.0818 44.5577 64.0425 44.0997C64.0556 40.7758 64.0425 37.4651 64.0425 34.1413C64.0556 33.6702 63.964 33.2122 63.8593 32.7672C58.7165 32.7542 53.5868 32.7672 48.4441 32.7672C47.3841 32.7803 46.4419 31.812 46.4943 30.752C46.4812 28.6059 46.4812 26.4729 46.4943 24.3268C46.4943 23.293 47.4234 22.3901 48.4441 22.4032C51.5716 22.3901 54.6991 22.4163 57.8136 22.3901C57.4472 21.8405 57.2378 20.8721 56.4265 20.8983H45.0286C44.5575 20.846 44.1257 21.2516 44.178 21.7227C44.165 27.1795 44.1911 32.6495 44.165 38.1063C40.2392 38.1194 36.3003 38.1194 32.3745 38.1063C32.3614 37.2557 32.3876 36.4182 32.3745 35.5676C32.3876 35.0704 32.0997 34.6254 31.9165 34.1805C30.8435 31.7204 29.7835 29.2602 28.6974 26.8001C28.2786 25.8317 27.2579 25.1774 26.198 25.1905H8.84601C8.80675 22.2069 8.80675 19.2233 8.81984 16.2266ZM48.4441 24.3792C48.431 26.5122 48.4179 28.6452 48.4179 30.7782C50.1191 30.7913 51.8333 30.7913 53.5345 30.7782C53.0896 28.6321 52.553 26.5122 52.0427 24.3792H48.4441ZM54.1495 24.3792C54.1626 24.6801 54.215 24.968 54.2935 25.2559C54.7515 27.101 55.1441 28.9461 55.6152 30.7913C57.9837 30.8044 60.3653 30.8174 62.7339 30.7913C61.5169 28.6452 60.2345 26.5252 58.9782 24.3922C57.3687 24.3792 55.7591 24.3922 54.1495 24.3792ZM51.48 43.7725C50.2761 44.0735 49.3339 45.212 49.3208 46.4551C49.2685 47.5413 49.8966 48.6274 50.865 49.1247C51.9118 49.7004 53.312 49.5042 54.1757 48.6797C54.7515 48.1563 55.0786 47.3842 55.0786 46.5991C55.1048 45.5915 54.529 44.5969 53.6653 44.0866C53.0111 43.694 52.2128 43.5893 51.48 43.7725Z" fill="#020202"/>
<path d="M5.81002 26.8916C6.3858 26.7346 7.00084 26.8 7.5897 26.7869H24.994C25.9754 26.7608 26.9438 27.3889 27.3102 28.3049C28.2393 30.4379 29.1553 32.5578 30.0844 34.6909C30.2807 35.1489 30.5555 35.6069 30.5424 36.1172V49.5957C30.5424 50.1715 30.5948 50.7735 30.3461 51.2969C29.9928 52.1082 29.1422 52.6709 28.2655 52.6578H3.27134C2.06744 52.684 0.981306 51.5848 1.02056 50.3809L1.09908 35.5807C1.09908 35.2012 1.30845 34.8741 1.4524 34.5469C2.40767 32.4401 3.33677 30.3201 4.29205 28.2133C4.56685 27.5852 5.14263 27.0879 5.81002 26.8916ZM6.30728 28.8022C6.07174 28.933 6.00631 29.2209 5.88853 29.4434C5.11646 31.2231 4.29205 32.9766 3.53306 34.7563H12.7063C13.0465 32.7672 13.2821 30.7651 13.5438 28.7629C11.3846 28.7367 9.22545 28.7629 7.06627 28.7498C6.81763 28.7498 6.55592 28.7367 6.30728 28.8022ZM18.0192 28.7629C18.2547 30.7651 18.5688 32.741 18.8174 34.7432C21.8795 34.7694 24.9547 34.7563 28.0169 34.7563C27.271 32.9635 26.4335 31.2231 25.6745 29.4434C25.5436 29.1555 25.4128 28.7237 25.0071 28.776C22.6778 28.7498 20.3485 28.7367 18.0192 28.7629ZM2.99654 36.7323C2.97037 41.0637 2.99654 45.3951 2.98345 49.7266C2.98345 50.0276 2.99654 50.3416 3.0358 50.6426C4.76314 50.7473 6.51666 50.6557 8.244 50.695H26.6952C27.3102 50.695 27.9253 50.7211 28.5272 50.6557C28.6057 49.9098 28.5665 49.1639 28.5665 48.4311C28.5534 44.5315 28.5795 40.645 28.5534 36.7453C25.3604 36.7323 22.1544 36.7323 18.9483 36.7453C18.9221 38.7737 18.9483 40.7889 18.9352 42.8172C18.0454 42.5948 17.1555 42.32 16.2788 42.0582C16.0432 41.9928 15.8077 41.9012 15.5721 41.9797C14.5776 42.2283 13.5962 42.5686 12.6016 42.8041C12.5885 40.7889 12.6147 38.7606 12.5885 36.7453C9.39556 36.7192 6.18951 36.7192 2.99654 36.7323Z" fill="#0E4ED2"/>
<path d="M5.3 45.6305C7.10586 45.5782 8.9248 45.6305 10.7437 45.6044C11.0578 45.5782 11.4896 45.6829 11.5158 46.0755C11.5551 46.9522 11.5289 47.8159 11.542 48.6926C11.5812 49.0198 11.3719 49.3731 11.0055 49.3731C9.26504 49.3993 7.51152 49.36 5.77109 49.3862C5.50937 49.3731 5.19531 49.4255 4.99902 49.203C4.82891 49.0329 4.86816 48.7843 4.84199 48.5618C4.84199 47.7374 4.81582 46.8999 4.86816 46.0755C4.85508 45.8399 5.07754 45.6567 5.3 45.6305Z" fill="#0E4ED2"/>
</svg>
