<svg width="59" height="59" viewBox="0 0 59 59" fill="none" xmlns="http://www.w3.org/2000/svg">
<path d="M28.3016 0H30.2375C30.9866 0.0691406 31.7471 0.126758 32.4961 0.241992C35.9071 0.749023 39.2028 2.22402 41.7264 4.59785C43.5817 6.33789 45.0567 8.56191 45.6444 11.0625C45.8057 11.7424 45.8748 12.4453 45.8633 13.1367C45.8518 15.1764 45.8633 17.216 45.8518 19.2557C45.8748 19.6705 45.6444 20.1084 45.2295 20.2352C44.6649 20.4541 43.985 19.9816 44.0196 19.3709C43.9965 17.5271 44.0196 15.6719 44.008 13.8281C43.9965 12.5951 43.6854 11.3852 43.2014 10.2674C41.9223 7.39805 39.6176 5.03574 36.8289 3.60684C33.5217 1.90137 29.6268 1.49805 25.9969 2.14336C22.586 2.7541 19.3594 4.54023 17.1815 7.25977C15.7065 9.09199 14.6002 11.3275 14.5311 13.7129C14.5196 15.1764 14.5311 16.6398 14.5311 18.1033C14.4735 18.5988 15.0496 18.7256 15.2686 19.0713C15.7641 19.8434 15.8217 20.8113 16.3287 21.5719C16.3172 20.8113 16.1559 20.0738 16.0752 19.3248C15.7295 16.225 15.718 12.9293 17.1123 10.06C18.3914 7.5709 20.7307 5.7502 23.312 4.74766C26.3311 3.57227 29.6844 3.41094 32.8418 4.0332C36.1721 4.71309 39.3756 6.59141 41.1502 9.55293C42.5676 12.0189 42.7866 14.9689 42.6022 17.7461C42.5446 18.9676 42.3141 20.1775 42.2104 21.3875C42.6137 21.4682 43.0862 21.4912 43.3743 21.8369C43.9504 22.4707 44.0311 23.3811 44.0196 24.1992C43.9504 25.6051 43.501 27.0109 42.7059 28.1748C42.3832 28.6818 41.8301 29.0275 41.5881 29.6037C40.1131 32.9109 38.2463 36.1836 35.3539 38.4652C33.5448 39.8826 31.2286 40.6547 28.9239 40.5625C26.5155 40.5049 24.1877 39.4678 22.4362 37.843C19.8664 35.5268 18.1955 32.4039 16.7897 29.2811C16.2711 29.3848 15.7526 29.5807 15.2225 29.4885C14.3467 29.3502 13.5746 28.8086 13.0215 28.1287C12.5145 27.5295 12.2149 26.8035 11.9614 26.066C11.6502 25.1557 11.293 24.2568 11.0049 23.3234C10.6938 22.148 10.7514 20.7883 11.4774 19.7742C11.777 19.3248 12.261 19.0828 12.6989 18.7947C12.6412 16.9855 12.6873 15.1764 12.6758 13.3672C12.6412 12.3416 12.7795 11.316 13.1022 10.3365C14.1162 7.16758 16.4325 4.51719 19.2211 2.7541C21.9291 1.01406 25.1211 0.172852 28.3016 0ZM21.7102 12.8371C20.1776 13.6437 19.1059 15.0957 18.3569 16.6283C18.1379 17.0086 18.2186 17.4465 18.2071 17.8613C18.161 20.3619 18.8293 22.7934 19.2442 25.2363C18.8754 24.3605 18.6219 23.4271 17.9996 22.6896C17.8037 22.4592 17.5157 22.2057 17.1815 22.3209C16.928 22.4361 16.5823 22.6781 16.7436 23.0008C17.2161 24.3605 17.7231 25.7203 18.1955 27.0801C18.3338 27.4373 18.2071 27.8867 18.5067 28.1633C20.3965 30.2721 22.8856 31.8969 25.6512 32.5883C25.8471 32.2195 26.0661 31.8277 26.4348 31.6203C27.1493 31.1709 28.0135 31.3783 28.8086 31.3322C29.4655 31.2861 30.1914 31.4014 30.6293 31.9314C31.3668 32.6805 31.2401 34.0287 30.3873 34.6395C29.8112 35.1119 29.0391 35.0197 28.3477 35.0197C27.8407 35.0082 27.3106 35.0773 26.8151 34.9045C26.02 34.6279 25.1787 34.5242 24.3836 34.2477C22.9202 33.7867 21.5604 33.0607 20.2582 32.2426C21.376 34.409 22.828 36.5754 25.0289 37.7508C27.1377 38.834 29.6614 38.9262 31.9315 38.3615C34.1325 37.7969 35.861 36.149 37.0709 34.2937C38.1196 32.692 38.9493 30.975 39.7213 29.235C39.9518 28.751 40.1016 28.2094 40.5049 27.8291C41.6457 26.8496 42.1643 25.3055 42.1643 23.8305C42.1989 23.2197 41.9108 22.5629 41.3461 22.3094C40.9889 22.1826 40.6778 22.4822 40.4819 22.7357C39.9172 23.4732 39.6407 24.3721 39.295 25.2248C39.6637 22.9777 40.286 20.7652 40.309 18.4721C36.8174 18.3338 33.2682 17.942 29.9955 16.6398C28.0711 15.8793 26.308 14.7385 24.7754 13.3326C24.3952 12.9639 24.0149 12.5836 23.6116 12.2494C22.9547 12.3186 22.2979 12.526 21.7102 12.8371Z" fill="black"/>
<path d="M17.2852 41.3576C18.207 41.1156 19.1174 40.816 20.0393 40.574C19.901 41.8646 19.7973 43.1783 20.0623 44.4574C20.2236 45.3447 20.627 46.1629 21.0187 46.9695C22.0789 49.159 23.2773 51.3023 24.81 53.1922C26.066 54.7363 27.518 56.1652 29.2695 57.1332C29.6844 56.9143 30.0762 56.6607 30.4564 56.3727C33.4295 54.1717 35.5037 51.0027 37.14 47.7301C37.6816 46.6008 38.327 45.483 38.5113 44.2385C38.7303 43.0285 38.6266 41.784 38.4998 40.5625C39.848 40.9313 41.1732 41.3461 42.533 41.6918C44.9529 42.3486 47.4074 42.9363 49.7582 43.8006C51.4061 44.4113 53.0193 45.1949 54.3791 46.3242C55.0244 46.8428 55.3125 47.6609 55.6467 48.3869C57.041 51.7287 56.9488 55.4393 56.8797 58.9885H1.61328V55.2549C1.69395 54.3676 1.70547 53.4803 1.8207 52.6045C2.0627 50.657 2.58125 48.7096 3.56074 46.9926C3.81426 46.5316 4.26367 46.232 4.66699 45.9094C6.43008 44.6072 8.5043 43.8236 10.5785 43.1783C12.8025 42.5215 15.0496 41.9684 17.2852 41.3576Z" fill="black"/>
<path d="M27.2186 42.556C27.4951 42.314 27.8984 42.4292 28.2326 42.4062C29.1891 42.4292 30.1455 42.3716 31.0904 42.4292C31.8625 42.8326 32.4732 43.524 32.9457 44.2499C32.4617 45.1488 31.7242 45.8863 30.9867 46.5777C31.102 47.1078 31.3555 47.5802 31.5398 48.0872C32.0008 49.2742 32.4963 50.438 32.9457 51.6249C32.0354 53.123 30.6756 54.2869 29.2697 55.3009C27.8408 54.3214 26.435 53.1806 25.5938 51.6249C26.216 49.9656 26.9189 48.3292 27.5527 46.6699C26.7922 45.9669 26.0201 45.2179 25.5938 44.2499C26.0316 43.5931 26.5963 43.0285 27.2186 42.556Z" fill="#FF5C05"/>
</svg>
