<svg width="150" height="96" viewBox="0 0 150 96" fill="none" xmlns="http://www.w3.org/2000/svg">
<g clip-path="url(#clip0_90_8)">
<g clip-path="url(#clip1_90_8)">
<g clip-path="url(#clip2_90_8)">
<path d="M71.1016 13.7535C77.3386 21.723 80.4571 33.1575 80.4571 48.057C80.4571 62.9565 77.3386 74.391 70.7551 82.3606C64.5181 90.3301 55.5091 94.4881 43.7281 94.4881C31.9471 94.4881 22.938 90.3301 16.701 82.3606C10.464 74.391 6.99902 62.9565 6.99902 48.057C6.99902 33.1575 10.1175 21.723 16.3545 13.7535C22.5915 5.78398 31.6005 1.62598 43.3816 1.62598C55.8556 1.97248 64.8646 5.78398 71.1016 13.7535ZM39.2236 24.495C38.1841 25.881 37.4911 28.3065 37.1446 32.118C36.7981 35.583 36.4516 41.127 36.4516 48.4035C36.4516 55.68 36.7981 60.8775 37.1446 64.689C37.4911 68.5005 38.1841 70.926 39.2236 72.312C40.2631 73.698 41.9956 74.3911 44.0746 74.3911C46.1536 74.3911 47.8861 73.698 48.9256 72.312C49.9651 70.926 50.6581 68.5005 51.0046 65.0355C51.3511 61.5705 51.6976 56.0265 51.6976 48.4035C51.6976 40.7805 51.3511 35.2365 51.0046 31.7715C50.6581 28.3065 49.9651 25.881 48.9256 24.495C47.8861 23.109 46.1536 22.7625 44.0746 22.7625C41.9956 22.416 40.2631 23.109 39.2236 24.495ZM143.52 91.7161H116.147V30.732L98.8216 41.4735L86.3476 23.109L118.226 4.05148H143.52V91.7161Z" fill="white" stroke="#0E4ED2" stroke-width="1.7325" stroke-miterlimit="10"/>
</g>
</g>
</g>
<defs>
<clipPath id="clip0_90_8">
<rect width="150" height="95" fill="white" transform="translate(0 0.5)"/>
</clipPath>
<clipPath id="clip1_90_8">
<rect width="150" height="95" fill="white" transform="translate(0 0.5)"/>
</clipPath>
<clipPath id="clip2_90_8">
<rect width="139.466" height="95" fill="white" transform="translate(5.2666 0.5)"/>
</clipPath>
</defs>
</svg>
