<svg width="150" height="95" viewBox="0 0 150 95" fill="none" xmlns="http://www.w3.org/2000/svg">
<g clip-path="url(#clip0_91_469)">
<g clip-path="url(#clip1_91_469)">
<path d="M61.8397 15.5579C67.7273 23.0809 70.6711 33.8749 70.6711 47.9397C70.6711 62.0046 67.7273 72.7986 61.5126 80.3216C55.625 87.8447 47.1207 91.7697 35.9996 91.7697C24.8786 91.7697 16.3742 87.8447 10.4866 80.3216C4.59902 72.7986 1.32812 62.0046 1.32812 47.9397C1.32812 33.8749 4.27193 23.0809 10.1595 15.5579C16.0472 8.03482 24.5515 4.10974 35.6725 4.10974C47.4478 4.10974 55.9521 8.03482 61.8397 15.5579ZM31.7475 25.3706C30.7662 26.6789 30.112 28.9686 29.7849 32.5665C29.4578 35.8374 29.1307 41.0709 29.1307 47.9397C29.1307 54.8086 29.4578 59.715 29.7849 63.313C30.112 66.9109 30.7662 69.2006 31.7475 70.5089C32.7287 71.8173 34.3642 72.4715 36.3267 72.4715C38.2892 72.4715 39.9247 71.8173 40.906 70.5089C41.8872 69.2006 42.5414 66.9109 42.8685 63.64C43.1956 60.3692 43.5227 55.1357 43.5227 47.9397C43.5227 40.7438 43.1956 35.5103 42.8685 32.2394C42.5414 28.9686 41.8872 26.6789 40.906 25.3706C39.9247 24.0622 38.2892 23.7351 36.3267 23.7351C34.3642 23.408 32.7287 24.0622 31.7475 25.3706ZM149.5 73.7798H141.65V89.153H115.155V73.7798H80.1567V56.4441L102.399 3.45557L125.295 11.3057L107.305 53.8274H114.828L118.099 36.8187H140.995V53.8274H148.846V73.7798H149.5Z" fill="white" stroke="currentColor" stroke-width="1.63545" stroke-miterlimit="10"/>
</g>
</g>
<defs>
<clipPath id="clip0_91_469">
<rect width="150" height="95" fill="white"/>
</clipPath>
<clipPath id="clip1_91_469">
<rect width="150" height="90.8688" fill="white" transform="translate(0 2.06543)"/>
</clipPath>
</defs>
</svg>
