<svg width="150" height="95" viewBox="0 0 150 95" fill="none" xmlns="http://www.w3.org/2000/svg">
<g clip-path="url(#clip0_91_464)">
<g clip-path="url(#clip1_91_464)">
<g clip-path="url(#clip2_91_464)">
<path d="M64.667 13.5879C70.8015 21.4265 73.8688 32.6731 73.8688 47.3278C73.8688 61.9825 70.8015 73.2292 64.3262 81.0677C58.1917 88.9063 49.3307 92.996 37.7432 92.996C26.1558 92.996 17.2948 88.9063 11.1603 81.0677C5.02576 73.2292 1.9585 61.9825 1.9585 47.3278C1.9585 32.6731 5.02576 21.4265 11.1603 13.5879C17.2948 5.74935 26.1558 1.65967 37.7432 1.65967C49.6715 2.00048 58.5325 5.74935 64.667 13.5879ZM33.3128 24.1529C32.2903 25.5162 31.6087 27.9018 31.2679 31.6507C30.9271 35.0588 30.5863 40.5117 30.5863 47.6686C30.5863 54.8256 30.9271 59.9377 31.2679 63.6866C31.6087 67.4355 32.2903 69.8211 33.3128 71.1843C34.3352 72.5476 36.0392 73.2292 38.0841 73.2292C40.1289 73.2292 41.8329 72.5476 42.8554 71.1843C43.8778 69.8211 44.5594 67.4354 44.9002 64.0274C45.241 60.6193 45.5818 55.1664 45.5818 47.6686C45.5818 40.1709 45.241 34.718 44.9002 31.3099C44.5594 27.9018 43.8778 25.5162 42.8554 24.1529C41.8329 22.7897 40.1289 22.4489 38.0841 22.4489C36.0392 22.1081 34.3352 22.7897 33.3128 24.1529ZM137.259 8.135C142.712 12.2247 145.438 17.3368 145.438 23.8121C145.438 28.9242 144.075 33.3547 141.349 36.7628C138.622 40.1709 134.192 42.8973 128.398 44.9422C134.192 45.6238 138.963 47.6686 142.712 51.4175C146.461 55.1664 148.165 59.9377 148.165 66.7538C148.165 71.5251 146.802 75.9556 144.075 80.0453C141.349 84.135 137.259 87.2023 131.806 89.9287C126.353 92.3144 119.878 93.6776 112.039 93.6776C97.7253 93.6776 86.8195 88.9063 78.6401 79.0229L92.954 64.709C96.0213 67.4355 98.7477 69.4803 101.133 70.8435C103.519 72.2067 106.586 72.5476 109.654 72.5476C112.38 72.5476 114.766 71.866 116.47 70.5027C118.174 69.1395 119.196 67.0947 119.196 64.3682C119.196 61.3009 118.174 58.9153 116.47 57.2112C114.766 55.5072 112.039 54.8256 107.95 54.8256H100.111L103.178 36.422H108.631C112.039 36.422 114.425 35.7404 115.788 34.3772C117.151 33.0139 118.174 31.3099 118.174 28.9242C118.174 26.8794 117.492 25.1754 115.788 23.8121C114.084 22.7897 112.039 22.1081 109.313 22.1081C106.586 22.1081 103.519 22.7897 101.133 23.8121C98.4069 25.1754 96.0213 26.8794 93.6356 28.9242L80.0033 14.6103C88.8643 6.09016 99.7702 1.65967 113.402 1.65967C123.627 2.00048 131.465 4.04532 137.259 8.135Z" fill="white" stroke="currentColor" stroke-width="1.70404" stroke-miterlimit="10"/>
</g>
</g>
</g>
<defs>
<clipPath id="clip0_91_464">
<rect width="150" height="95" fill="white"/>
</clipPath>
<clipPath id="clip1_91_464">
<rect width="150" height="95" fill="white"/>
</clipPath>
<clipPath id="clip2_91_464">
<rect width="148.892" height="95" fill="white" transform="translate(0.554199)"/>
</clipPath>
</defs>
</svg>
