<svg width="68" height="68" viewBox="0 0 68 68" fill="none" xmlns="http://www.w3.org/2000/svg">
<path d="M42.9514 17.2127C44.9834 18.7267 46.9225 20.44 48.3967 22.5252C48.8616 23.2158 49.3663 23.9728 49.353 24.8494V40.1095C48.6889 40.1228 48.0249 40.1228 47.3608 40.1095C47.3475 35.0759 47.3608 30.0291 47.3608 24.9822C47.3741 24.4642 47.0288 24.0525 46.7499 23.6408C45.5014 21.9408 43.9342 20.4931 42.2741 19.2181C39.2592 16.9072 35.8061 15.1541 32.1272 14.2111C27.5053 13.0025 22.578 13.0291 17.9694 14.2775C13.5866 15.4595 9.53579 17.7705 6.17563 20.8119C5.09985 21.8213 4.05063 22.8838 3.25376 24.1322C3.05454 24.4111 3.00141 24.7564 3.0147 25.1017C3.04126 34.9564 3.00141 44.8244 3.04126 54.6791C4.5022 54.7056 5.96313 54.6791 7.42407 54.6923C7.43735 45.9134 7.41079 37.1478 7.43735 28.3822C19.2577 28.3556 31.0913 28.3955 42.9116 28.3689C42.978 28.7939 42.9647 29.2056 42.9647 29.6306V40.0963C42.3006 40.1228 41.6366 40.1361 40.9725 40.0963C40.9592 36.8556 40.9858 33.615 40.9592 30.3744C30.4538 30.3611 19.9483 30.3611 9.44282 30.3744C9.42954 39.14 9.4561 47.9189 9.42954 56.6845C6.64048 56.6845 3.83813 56.6978 1.04907 56.6845C1.02251 46.1525 1.04907 35.6338 1.03579 25.1017C1.02251 24.597 1.08891 24.0924 1.32798 23.6408C1.89907 22.4986 2.70923 21.5025 3.57251 20.5728C6.50766 17.5181 10.1202 15.1142 14.0514 13.5205C19.0717 11.4619 24.6631 10.8111 30.0155 11.7142C34.6905 12.4845 39.153 14.4103 42.9514 17.2127Z" fill="black"/>
<path d="M39.5515 24.1056H31.9148C31.9015 23.4415 31.9015 22.7774 31.9148 22.1134H39.5515C39.5648 22.7774 39.5648 23.4415 39.5515 24.1056ZM29.0328 24.1188C26.4961 24.1321 23.9461 24.1188 21.4094 24.1188C21.3828 23.4415 21.3828 22.7774 21.4094 22.1134H29.0328C29.0461 22.7774 29.0461 23.4415 29.0328 24.1188ZM18.514 24.0923H10.9172C10.864 23.4282 10.864 22.7642 10.9039 22.1001C13.2547 22.1001 15.6055 22.1134 17.9562 22.1001C18.1555 22.1001 18.3414 22.1267 18.5406 22.1532C18.514 22.804 18.5539 23.4548 18.514 24.0923ZM30.7062 42.8056C30.7195 43.3634 30.2015 43.8415 29.6437 43.8017C26.8015 43.8017 23.9726 43.7884 21.1305 43.8017C20.7719 43.7884 20.3734 43.8149 20.0945 43.5626C19.7758 43.3235 19.7359 42.8985 19.7359 42.5267V33.8938C19.6961 33.336 20.1742 32.8181 20.732 32.8313C21.6617 32.8048 22.5914 32.8181 23.5211 32.8313C23.5609 34.6509 23.5078 36.4704 23.5476 38.2899C24.6633 38.3032 25.7656 38.3032 26.8812 38.2899C26.9078 36.4704 26.8812 34.6509 26.8945 32.8313C27.8508 32.8181 28.807 32.8048 29.7633 32.8313C30.2812 32.8446 30.7195 33.336 30.693 33.854C30.693 36.829 30.693 39.804 30.7062 42.8056Z" fill="black"/>
<path d="M64.8525 40.7201C65.3439 41.0123 65.8752 41.2646 66.3533 41.6099C66.7385 41.8888 67.0572 42.367 66.9643 42.8584C66.8846 43.4029 66.433 43.7748 65.9814 44.0271C62.3291 46.1388 58.69 48.2373 55.0377 50.349C54.5729 50.6279 53.9619 50.8271 53.4439 50.5482C52.9525 50.2826 52.7799 49.6717 52.7799 49.1404C52.7666 47.3342 52.7932 45.5279 52.7666 43.7217C48.0518 43.7084 43.3502 43.7349 38.6486 43.7084C38.6354 43.0443 38.6221 42.3935 38.6486 41.7295C43.3635 41.7162 48.065 41.7428 52.7666 41.7162C52.7932 39.8967 52.7533 38.0771 52.7799 36.2576C52.7799 35.7263 52.9791 35.1154 53.4838 34.8631C54.015 34.5974 54.6127 34.8232 55.0908 35.1021C58.3314 37.0013 61.5986 38.8607 64.8525 40.7201Z" fill="#FF5C05"/>
<path d="M49.3929 56.6845C46.6039 56.6978 43.8015 56.6978 40.9992 56.6845C40.9859 52.9126 40.9859 49.1407 40.9992 45.3689C41.6632 45.3423 42.314 45.3556 42.9781 45.3689C43.0179 48.4634 42.9515 51.5712 43.0046 54.679C44.4656 54.6923 45.9265 54.679 47.3874 54.679C47.414 51.5712 47.3609 48.4634 47.414 45.3556H49.3796C49.3929 49.1274 49.3929 52.8993 49.3929 56.6845ZM37.1742 55.6353C37.2007 56.1931 36.696 56.6978 36.1382 56.6579C33.1765 56.6712 30.2015 56.6712 27.2398 56.6579C26.6687 56.6978 26.1773 56.1798 26.2171 55.622C26.2171 52.7399 26.2304 49.8712 26.2171 46.9892C26.2171 46.6438 26.2304 46.2454 26.5093 45.9931C26.7218 45.754 27.0671 45.7009 27.3726 45.7009H30.0156C30.0421 47.5204 30.0156 49.3532 30.0289 51.1728C31.1445 51.186 32.2468 51.186 33.3624 51.1728C33.389 49.3532 33.3492 47.5337 33.3757 45.7142C34.332 45.7142 35.3015 45.7009 36.2578 45.7274C36.789 45.7407 37.2007 46.2188 37.1742 46.7368C37.1874 49.7118 37.1874 52.6868 37.1742 55.6353ZM24.1984 55.2634C24.1851 55.6353 24.2249 56.0603 23.946 56.3524C23.7203 56.6446 23.3351 56.6978 22.9898 56.6845H14.4765C14.1312 56.6845 13.746 56.6446 13.507 56.3657C13.2148 56.0735 13.2414 55.6353 13.2414 55.2501C13.2546 52.4079 13.2414 49.579 13.2546 46.7368C13.2148 46.1923 13.6929 45.7142 14.2242 45.7274C15.1539 45.7142 16.0968 45.7274 17.0265 45.7274C17.0664 47.5337 17.0398 49.3532 17.0398 51.1728C18.1554 51.2126 19.271 51.1993 20.3867 51.186C20.4132 49.3665 20.3867 47.547 20.3999 45.7274C21.3429 45.7142 22.2992 45.7142 23.2421 45.7274C23.7734 45.7142 24.2382 46.2056 24.1984 46.7368C24.2117 49.579 24.1984 52.4212 24.1984 55.2634Z" fill="black"/>
</svg>
