<svg width="20" height="20" viewBox="0 0 20 20" fill="none" xmlns="http://www.w3.org/2000/svg">
<g clip-path="url(#clip0_886_840)">
<path d="M18.6667 17.3127V8.10433C18.6667 7.93615 18.6275 7.77028 18.5523 7.61985C18.4771 7.46942 18.3679 7.33857 18.2334 7.23766L10.65 1.55016C10.4625 1.40952 10.2344 1.3335 10 1.3335C9.76564 1.3335 9.53756 1.40952 9.35004 1.55016L1.76671 7.23766C1.63216 7.33857 1.52296 7.46942 1.44774 7.61985C1.37253 7.77028 1.33337 7.93615 1.33337 8.10433V17.3127C1.33337 17.6 1.44751 17.8755 1.65068 18.0787C1.85384 18.2819 2.12939 18.396 2.41671 18.396H6.75004C7.03736 18.396 7.31291 18.2819 7.51607 18.0787C7.71924 17.8755 7.83337 17.6 7.83337 17.3127V14.0627C7.83337 13.7753 7.94751 13.4998 8.15067 13.2966C8.35384 13.0935 8.62939 12.9793 8.91671 12.9793H11.0834C11.3707 12.9793 11.6462 13.0935 11.8494 13.2966C12.0526 13.4998 12.1667 13.7753 12.1667 14.0627V17.3127C12.1667 17.6 12.2808 17.8755 12.484 18.0787C12.6872 18.2819 12.9627 18.396 13.25 18.396H17.5834C17.8707 18.396 18.1462 18.2819 18.3494 18.0787C18.5526 17.8755 18.6667 17.6 18.6667 17.3127Z" stroke="#22372D" stroke-width="1.5" stroke-linecap="round" stroke-linejoin="round"/>
</g>
<defs>
<clipPath id="clip0_886_840">
<rect width="20" height="20" fill="white"/>
</clipPath>
</defs>
</svg>
