<svg width="20" height="20" viewBox="0 0 20 20" fill="none" xmlns="http://www.w3.org/2000/svg">
<g clip-path="url(#clip0_886_850)">
<path d="M17.4489 0.566895C18.0105 0.566895 18.4847 0.756201 18.8639 1.13623L18.9977 1.28271C19.2883 1.63501 19.4332 2.05918 19.4332 2.55029V17.4487C19.4332 18.0103 19.2441 18.4845 18.8649 18.8638C18.4849 19.2437 18.0104 19.4331 17.4489 19.4331H2.55042C2.05935 19.433 1.63514 19.2886 1.28284 18.9985L1.13635 18.8647C0.756395 18.4848 0.567017 18.0103 0.567017 17.4487V2.55029C0.567101 1.98889 0.756459 1.51534 1.13635 1.13623L1.28284 1.00244C1.63516 0.711723 2.05923 0.566969 2.55042 0.566895H17.4489ZM2.55042 1.93311C2.40289 1.93321 2.26252 1.99416 2.12756 2.12842C1.99378 2.26316 1.93333 2.40301 1.93323 2.55029V17.4487C1.93323 17.5964 1.99419 17.7365 2.12854 17.8716H2.12756C2.26252 18.0058 2.40289 18.0668 2.55042 18.0669H17.4489C17.5964 18.0669 17.7367 18.0058 17.8717 17.8716L17.9586 17.77C18.0325 17.6666 18.067 17.5596 18.067 17.4487V2.55029C18.0669 2.40277 18.006 2.2624 17.8717 2.12744V2.12842C17.7366 1.99407 17.5965 1.93311 17.4489 1.93311H2.55042ZM11.1666 13.9829C11.3572 13.9829 11.5222 14.0484 11.6539 14.1792L11.7399 14.2847C11.8133 14.3954 11.8502 14.5236 11.8502 14.6665C11.8502 14.8094 11.8133 14.9376 11.7399 15.0483L11.6539 15.1538C11.5222 15.2846 11.3572 15.3501 11.1666 15.3501H5.33362C5.19054 15.3501 5.06168 15.3134 4.95081 15.2397L4.84631 15.1538C4.71549 15.0221 4.65002 14.8571 4.65002 14.6665C4.65002 14.4759 4.71549 14.3109 4.84631 14.1792L4.95081 14.0933C5.06168 14.0197 5.19054 13.9829 5.33362 13.9829H11.1666ZM14.6666 9.31689C14.8572 9.31689 15.0222 9.38138 15.1539 9.51221V9.51318L15.2399 9.61768C15.3133 9.72841 15.3502 9.85666 15.3502 9.99951C15.3502 10.1426 15.3135 10.2715 15.2399 10.3823L15.1539 10.4868C15.0222 10.6176 14.8572 10.6831 14.6666 10.6831H5.33362C5.19048 10.6831 5.06171 10.6464 4.95081 10.5728L4.84631 10.4868C4.71549 10.3551 4.65002 10.1901 4.65002 9.99951C4.6501 9.80904 4.71556 9.64485 4.84631 9.51318V9.51221L4.95081 9.42627C5.06164 9.35273 5.19061 9.31689 5.33362 9.31689H14.6666ZM14.6666 4.6499C14.8096 4.6499 14.9377 4.68678 15.0485 4.76025L15.1539 4.84619L15.2399 4.95068C15.3135 5.06156 15.3502 5.19042 15.3502 5.3335C15.3501 5.52393 15.2846 5.68817 15.1539 5.81982V5.8208C15.0222 5.95163 14.8572 6.01611 14.6666 6.01611H5.33362C5.14304 6.01611 4.97804 5.95157 4.84631 5.8208V5.81982C4.71556 5.68816 4.6501 5.52397 4.65002 5.3335C4.65002 5.14288 4.71549 4.97793 4.84631 4.84619L4.95081 4.76025C5.06171 4.68658 5.19048 4.6499 5.33362 4.6499H14.6666Z" fill="#22372D" stroke="#22372D" stroke-width="0.2"/>
</g>
<defs>
<clipPath id="clip0_886_850">
<rect width="20" height="20" fill="white"/>
</clipPath>
</defs>
</svg>
