<svg width="20" height="20" viewBox="0 0 20 20" fill="none" xmlns="http://www.w3.org/2000/svg">
<path d="M8.26136 4.75707C8.29697 5.11926 8.24705 5.4906 8.11699 5.83094C8.11099 5.84662 8.10478 5.86219 8.09846 5.87768L8.1494 5.85623C8.66459 5.63925 9.2425 5.52455 9.82067 5.52455C10.4012 5.52455 10.9813 5.64015 11.4981 5.85885L11.5497 5.88067C11.5422 5.86248 11.5349 5.84419 11.5279 5.82572C11.397 5.48056 11.3492 5.11959 11.3859 4.75288C11.4201 4.41055 11.5303 4.07661 11.7044 3.78713C11.7644 3.68743 11.8319 3.59359 11.9055 3.50634C11.814 3.35309 11.7056 3.21305 11.5821 3.08884C11.4681 2.97423 11.3432 2.87521 11.2095 2.79297C11.1634 2.85891 11.1132 2.92207 11.0589 2.98193C10.7279 3.34721 10.2882 3.54837 9.82064 3.54837C9.35261 3.54836 8.91257 3.34689 8.58157 2.98107C8.52764 2.92146 8.47773 2.85861 8.43184 2.79299C8.2996 2.87437 8.17594 2.97224 8.06279 3.08548C7.93885 3.20953 7.83007 3.3494 7.73816 3.50246C7.81356 3.59142 7.88255 3.6873 7.94373 3.78928C8.1178 4.07947 8.22763 4.41411 8.26136 4.75707Z" fill="#22372D"/>
<path d="M3.7199 7.74919C4.05305 7.75303 4.37604 7.82857 4.67991 7.9737C4.97332 8.11385 5.23651 8.3127 5.46218 8.56474C5.68789 8.81681 5.86509 9.10983 5.98884 9.43564C5.99872 9.46164 6.00808 9.48781 6.01721 9.51405L6.01879 9.51397C6.11501 9.50859 6.21269 9.50586 6.30911 9.50586C6.52692 9.50586 6.74643 9.51971 6.96155 9.54701L7.07029 9.56082L7.12277 9.45465C7.49112 8.7095 8.08833 8.12813 8.80439 7.81764L8.96222 7.7492L8.89375 7.57776C8.77999 7.29288 8.6212 7.036 8.42179 6.81426C8.25019 6.62342 8.05476 6.46585 7.83969 6.34435C7.71687 6.51343 7.57106 6.66218 7.40593 6.78544C7.0811 7.0279 6.70173 7.15604 6.30883 7.15604C6.04419 7.15604 5.78721 7.09863 5.54501 6.98541C5.31131 6.87615 5.10151 6.71984 4.92144 6.52084C4.87055 6.46458 4.82284 6.40561 4.77821 6.34424C4.55767 6.46883 4.35776 6.63148 4.18278 6.8292C3.97865 7.05988 3.81833 7.32687 3.70631 7.62274L3.65833 7.74949C3.66988 7.74932 3.68142 7.74903 3.69299 7.74903C3.70193 7.74903 3.71109 7.74908 3.7199 7.74919Z" fill="#22372D"/>
<path d="M4.87881 5.9322C4.90454 5.97975 4.93223 6.02594 4.96179 6.07073C5.01271 6.14792 5.06915 6.22098 5.13105 6.28941C5.28398 6.45844 5.46211 6.59116 5.66049 6.68391C5.86594 6.77996 6.08408 6.82866 6.30883 6.82866C6.64238 6.82866 6.96437 6.71991 7.24002 6.51417C7.28656 6.47943 7.33117 6.44216 7.37398 6.40282C7.46619 6.31812 7.54945 6.22313 7.62268 6.11941C7.634 6.10338 7.64503 6.08715 7.65586 6.07071C7.68533 6.02597 7.71309 5.9798 7.73885 5.93218C7.77844 5.859 7.81366 5.78264 7.84396 5.70335C7.95443 5.41428 7.99687 5.09929 7.9667 4.79243C7.93808 4.50133 7.84472 4.21706 7.69671 3.97035C7.63201 3.8625 7.55726 3.76249 7.47428 3.67218C7.43821 3.63293 7.40057 3.59553 7.36154 3.56009C7.28496 3.49056 7.20297 3.42865 7.11668 3.37556C6.86906 3.22323 6.59726 3.146 6.30884 3.146C6.08404 3.146 5.86587 3.19471 5.66039 3.29077C5.46202 3.38352 5.28389 3.51626 5.13096 3.68531C4.97803 3.85436 4.85795 4.05125 4.77404 4.27055C4.68714 4.49767 4.64307 4.73883 4.64307 4.98733C4.64307 5.23587 4.68714 5.47706 4.77407 5.7042C4.80432 5.78321 4.83933 5.85926 4.87881 5.9322Z" fill="#22372D"/>
<path d="M14.7245 6.52181C14.5444 6.72056 14.3346 6.87666 14.1009 6.98577C13.8589 7.09877 13.6022 7.15605 13.3379 7.15605C12.9438 7.15605 12.5635 7.02722 12.2382 6.78349C12.0742 6.66061 11.9293 6.51256 11.8072 6.3444C11.378 6.58738 11.0251 6.9774 10.8057 7.45487L10.7166 7.64885L10.9057 7.70898C11.7303 7.97107 12.4433 8.59625 12.8621 9.42421L12.9117 9.52231L13.0132 9.51596C13.1206 9.50923 13.2298 9.50582 13.3376 9.50582C13.545 9.50582 13.7543 9.5184 13.9597 9.5432L13.9723 9.54472C13.9726 9.54395 13.9728 9.54316 13.9731 9.54238C14.0725 9.24648 14.2164 8.97345 14.4008 8.73088C14.7722 8.2423 15.2879 7.90981 15.853 7.79465C15.8996 7.78515 15.9465 7.77727 15.9935 7.77067L15.9594 7.67459C15.8505 7.36795 15.6905 7.09103 15.4838 6.85154C15.3045 6.64387 15.0979 6.4737 14.8686 6.34424C14.8237 6.40594 14.7757 6.46525 14.7245 6.52181Z" fill="#22372D"/>
<path d="M11.8012 5.69893C11.8319 5.77979 11.8676 5.85766 11.9079 5.93219C11.9337 5.97983 11.9615 6.02595 11.991 6.0707C12.0022 6.08781 12.0138 6.10471 12.0255 6.12138C12.0989 6.22503 12.1823 6.31993 12.2747 6.40454C12.3162 6.44261 12.3594 6.47879 12.4045 6.51254C12.6805 6.71935 13.0033 6.82866 13.3379 6.82866C13.5623 6.82866 13.7802 6.78005 13.9855 6.6842C14.1838 6.59159 14.362 6.45902 14.515 6.2902C14.5772 6.22155 14.6339 6.14823 14.685 6.07074C14.7146 6.02595 14.7422 5.97977 14.768 5.93222C14.8073 5.85953 14.8422 5.78376 14.8724 5.70504C14.9595 5.47773 15.0037 5.23626 15.0037 4.98733C15.0037 4.73883 14.9596 4.49767 14.8727 4.27055C14.7888 4.05126 14.6687 3.85436 14.5158 3.68531C14.3629 3.51626 14.1847 3.38352 13.9864 3.29077C13.7809 3.19471 13.5627 3.146 13.3379 3.146C13.05 3.146 12.7786 3.22304 12.5312 3.37497C12.443 3.42914 12.3593 3.49255 12.2812 3.56385C12.2422 3.59947 12.2047 3.63708 12.1687 3.67651C12.0877 3.7652 12.0146 3.86307 11.9511 3.96853C11.8031 4.21463 11.7095 4.49828 11.6804 4.78882C11.6493 5.09954 11.69 5.40574 11.8012 5.69893Z" fill="#22372D"/>
<path d="M5.43984 14.971C5.66912 14.5897 5.94583 14.2461 6.26229 13.9496C6.44965 13.7741 6.64934 13.6169 6.8592 13.479L6.79249 13.3797C6.47997 12.9144 6.06286 12.5445 5.58629 12.31L5.57253 12.3032C5.53429 12.3518 5.49445 12.3991 5.45293 12.445C5.22454 12.6974 4.95845 12.8956 4.66208 13.0342C4.35501 13.1778 4.02912 13.2505 3.69345 13.2505C3.35778 13.2505 3.03189 13.1778 2.72482 13.0342C2.42844 12.8957 2.16237 12.6974 1.93397 12.445C1.89246 12.3991 1.85261 12.3518 1.81437 12.3032L1.80062 12.31C1.27318 12.5695 0.824728 12.9886 0.503739 13.5222C0.17419 14.07 0 14.7065 0 15.3631V16.3415C0 16.783 0.32428 17.1421 0.722877 17.1421C0.812612 17.1421 0.901208 17.1235 0.986198 17.0869C1.81863 16.7276 2.7547 16.5377 3.69324 16.5377C4.00146 16.5377 4.31204 16.5581 4.61634 16.5983L4.75316 16.6164L4.79172 16.4701C4.9067 16.0341 5.07443 15.6217 5.2883 15.2422C5.33602 15.1504 5.38644 15.0599 5.43984 14.971Z" fill="#22372D"/>
<path d="M1.90429 11.9005C1.97552 12.0114 2.05541 12.116 2.14362 12.2134C2.34488 12.4359 2.57929 12.6106 2.84033 12.7326C3.11065 12.859 3.39769 12.923 3.69348 12.923C3.98927 12.923 4.27631 12.859 4.54663 12.7326C4.80767 12.6106 5.04208 12.4359 5.24334 12.2134C5.33154 12.116 5.41143 12.0114 5.48266 11.9005C5.57399 11.7583 5.65106 11.6054 5.71311 11.4433C5.82749 11.1445 5.88548 10.8271 5.88548 10.5C5.88548 10.2795 5.85902 10.0634 5.80675 9.85434C5.78204 9.75553 5.75162 9.65827 5.71541 9.5629C5.60641 9.27593 5.4503 9.01781 5.25139 8.79567C5.05253 8.57357 4.82066 8.39837 4.56224 8.27494C4.29473 8.14717 4.01026 8.08067 3.71674 8.07729C3.70889 8.07719 3.7008 8.07715 3.69292 8.07715C3.52131 8.07715 3.35268 8.09885 3.18855 8.14164C3.06957 8.17264 2.95293 8.21465 2.83929 8.26784C2.57831 8.38996 2.34397 8.56476 2.1428 8.78736C1.94173 9.00985 1.78386 9.26897 1.67355 9.55749C1.55936 9.85619 1.50146 10.1733 1.50146 10.5C1.50146 10.8271 1.55946 11.1445 1.67384 11.4433C1.73588 11.6054 1.81296 11.7583 1.90429 11.9005Z" fill="#22372D"/>
<path d="M19.4963 13.5222C19.1753 12.9887 18.7269 12.5695 18.1994 12.31L18.1857 12.3032C18.1474 12.3518 18.1076 12.3991 18.0661 12.445C17.8377 12.6974 17.5716 12.8956 17.2752 13.0342C16.9682 13.1778 16.6423 13.2505 16.3066 13.2505C15.9709 13.2505 15.645 13.1778 15.338 13.0342C15.0416 12.8957 14.7755 12.6974 14.5471 12.445C14.5056 12.3991 14.4657 12.3518 14.4275 12.3032L14.4137 12.31C13.9372 12.5445 13.5201 12.9143 13.2075 13.3797L13.141 13.4788C13.7112 13.8527 14.1985 14.3651 14.5675 14.9831C14.6177 15.0673 14.6653 15.1531 14.7105 15.24C14.9249 15.62 15.0931 16.0332 15.2083 16.4702L15.2469 16.6164L15.3837 16.5983C15.6881 16.5581 15.9987 16.5377 16.307 16.5377C17.2454 16.5377 18.1814 16.7276 19.0138 17.0869C19.0988 17.1236 19.1874 17.1422 19.2772 17.1422C19.6758 17.1422 20 16.783 20 16.3415V15.3631C20.0001 14.7065 19.8259 14.07 19.4963 13.5222Z" fill="#22372D"/>
<path d="M14.6279 8.942C14.4655 9.15571 14.3387 9.39619 14.2511 9.65677C14.2243 9.73669 14.2015 9.81787 14.1825 9.90004C14.1375 10.0951 14.1146 10.296 14.1146 10.4999C14.1146 10.827 14.1726 11.1444 14.287 11.4432C14.349 11.6054 14.4261 11.7582 14.5174 11.9004C14.5887 12.0114 14.6686 12.1159 14.7568 12.2134C14.958 12.4358 15.1925 12.6105 15.4535 12.7325C15.7238 12.8589 16.0109 12.923 16.3066 12.923C16.6024 12.923 16.8895 12.8589 17.1598 12.7325C17.4208 12.6105 17.6552 12.4358 17.8565 12.2134C17.9447 12.1159 18.0246 12.0114 18.0958 11.9004C18.1872 11.7582 18.2642 11.6054 18.3263 11.4432C18.4407 11.1444 18.4987 10.827 18.4987 10.4999C18.4987 10.1698 18.4398 9.85008 18.3238 9.54967C18.2124 9.26118 18.0531 9.00222 17.8504 8.78C17.6489 8.55917 17.4147 8.38575 17.1543 8.26454C16.92 8.15547 16.674 8.09334 16.4216 8.07928C16.3847 8.07723 16.3478 8.07617 16.3106 8.07617C16.1764 8.07617 16.0406 8.08999 15.9069 8.11723C15.4094 8.21861 14.9552 8.51153 14.6279 8.942Z" fill="#22372D"/>
<path d="M14.3199 15.1633C13.9147 14.4844 13.3564 13.942 12.699 13.5866C12.6546 13.5626 12.6098 13.5395 12.5645 13.5172L12.4869 13.479C12.4234 13.5631 12.3564 13.6444 12.2856 13.7225C11.9886 14.0502 11.6427 14.3076 11.2575 14.4875C10.8587 14.6737 10.4356 14.7681 9.99994 14.7681C9.56356 14.7681 9.13996 14.6735 8.7409 14.4869C8.35567 14.3068 8.00979 14.0491 7.71285 13.7209C7.64262 13.6433 7.57609 13.5625 7.51306 13.479L7.43543 13.5172C7.3902 13.5394 7.34538 13.5626 7.30093 13.5867C6.99756 13.7508 6.71319 13.9564 6.45393 14.1993C6.1587 14.4759 5.90057 14.7965 5.6867 15.1521C5.63532 15.2376 5.58687 15.3247 5.54113 15.4132C5.19176 16.0893 5.00818 16.8504 5.00818 17.6325V18.9708C5.00818 19.2509 5.1077 19.5122 5.28842 19.7066C5.37415 19.7988 5.47358 19.8712 5.58397 19.9217C5.69694 19.9735 5.81575 19.9997 5.93709 19.9997C6.05235 19.9997 6.1662 19.9758 6.27551 19.9286C7.4211 19.4342 8.70903 19.1729 10 19.1729C11.291 19.1729 12.5789 19.4342 13.7244 19.9286C13.8337 19.9758 13.9476 19.9997 14.0629 19.9997C14.1842 19.9997 14.303 19.9735 14.416 19.9217C14.5263 19.8712 14.6258 19.7988 14.7115 19.7066C14.8922 19.5122 14.9918 19.2509 14.9918 18.9708V17.6325C14.9918 16.8498 14.8074 16.0872 14.4569 15.4097C14.4137 15.3263 14.3681 15.244 14.3199 15.1633Z" fill="#22372D"/>
<path d="M12.0483 8.86542C11.7763 8.57459 11.4609 8.34627 11.1109 8.18685C10.7542 8.02431 10.3797 7.94189 9.99792 7.94189C9.60523 7.94189 9.21931 8.02972 8.85091 8.20292C8.32551 8.44994 7.87907 8.85806 7.55986 9.38318C7.23401 9.91921 7.06177 10.545 7.06177 11.193C7.06177 11.6314 7.13949 12.0569 7.29279 12.4574C7.37673 12.6768 7.48125 12.8834 7.60519 13.0756C7.6998 13.2223 7.80569 13.3606 7.92251 13.4897C8.19231 13.7879 8.50653 14.0221 8.85642 14.1856C9.21873 14.355 9.60348 14.4409 9.99997 14.4409C10.3958 14.4409 10.7801 14.3552 11.1422 14.1862C11.492 14.0228 11.8063 13.7889 12.0762 13.4911C12.1936 13.3616 12.2999 13.2228 12.3949 13.0756C12.5186 12.8838 12.6229 12.6777 12.7067 12.4589C12.8604 12.0581 12.9382 11.6322 12.9382 11.193C12.9383 10.3056 12.6222 9.47894 12.0483 8.86542Z" fill="#22372D"/>
<path d="M8.61482 2.51367C8.66624 2.59721 8.72509 2.67605 8.79116 2.74907C9.06616 3.05301 9.43177 3.2204 9.82062 3.22041C10.209 3.22041 10.5744 3.05326 10.8495 2.74975C10.9158 2.67656 10.9749 2.59748 11.0265 2.51368C11.0546 2.46798 11.0805 2.4209 11.1041 2.37252C11.2168 2.14119 11.2766 1.88119 11.2766 1.61094C11.2766 1.17117 11.12 0.761484 10.8355 0.457332C10.7008 0.313349 10.5446 0.200318 10.3714 0.121381C10.1946 0.0408369 10.009 0 9.81966 0C9.62492 0 9.43366 0.0435014 9.25118 0.129289C8.71262 0.382497 8.36462 0.964076 8.36462 1.61094C8.36462 1.88113 8.42448 2.14113 8.53721 2.3725C8.56077 2.42088 8.5867 2.46797 8.61482 2.51367Z" fill="#22372D"/>
</svg>
