<svg width="26" height="16" viewBox="0 0 26 16" fill="none" xmlns="http://www.w3.org/2000/svg">
<path d="M9.63174 11.7991C9.53119 11.7724 9.4246 11.7583 9.31221 11.7583C9.19984 11.7583 9.08704 11.7724 8.97508 11.7991C8.16456 11.9925 7.39982 12.8518 7.18036 13.8793C6.93057 15.0489 7.48046 16.0002 8.40627 16.0002C9.33189 16.0002 10.2881 15.0489 10.5379 13.8793C10.7574 12.8518 10.3595 11.9925 9.63174 11.7991ZM8.57196 15.2244C7.98478 15.2244 7.63628 14.6209 7.79465 13.8793C7.95301 13.1378 8.55931 12.5343 9.14649 12.5343C9.73348 12.5343 10.082 13.1378 9.92361 13.8793C9.76524 14.6209 9.15894 15.2244 8.57196 15.2244Z" fill="#22372D"/>
<path d="M19.7013 11.7583C18.7755 11.7583 17.819 12.7098 17.5693 13.8793C17.3195 15.0489 17.8696 16.0002 18.7954 16.0002C19.7208 16.0002 20.6772 15.0489 20.927 13.8793C21.1768 12.7098 20.6268 11.7583 19.7013 11.7583ZM18.9611 15.2244C18.3737 15.2244 18.0252 14.6209 18.1836 13.8793C18.3419 13.1378 18.9482 12.5343 19.5356 12.5343C20.1226 12.5343 20.4711 13.1378 20.3127 13.8793C20.1543 14.6209 19.5481 15.2244 18.9611 15.2244Z" fill="#22372D"/>
<path d="M25.9934 6.84669C25.9981 6.86221 26.0003 6.87872 26 6.89531L25.9909 7.9285L25.9779 9.42843L25.4048 12.1115C25.3276 12.473 25.0657 12.777 24.7819 12.8612C24.7549 12.8727 24.7248 12.8793 24.6911 12.8804C24.69 12.8804 24.6887 12.8804 24.6873 12.8808C24.6678 12.883 24.6476 12.8843 24.6278 12.8843H22.0268C22.0344 13.1409 22.0157 13.4107 21.9686 13.6888H21.2503C21.2938 13.4046 21.2963 13.1338 21.2631 12.8843C21.2628 12.8834 21.2628 12.8823 21.2626 12.8814C21.1449 12.0063 20.5827 11.3942 19.7788 11.3942C19.4437 11.3942 19.1054 11.5006 18.7887 11.6882C18.6874 11.748 18.588 11.8166 18.4917 11.8927C18.4887 11.8953 18.4853 11.8978 18.4824 11.9004C18.1631 12.1549 17.8785 12.492 17.6601 12.8814C17.5187 13.1318 17.4056 13.4035 17.327 13.6888H16.6087C16.6808 13.4094 16.778 13.1388 16.8959 12.8814H11.6381C11.6458 13.1388 11.6272 13.4094 11.5797 13.6888H10.8611C10.9051 13.4035 10.9075 13.1318 10.8737 12.8814C10.8139 12.4381 10.6402 12.0624 10.3791 11.7996C10.3394 11.7597 10.2981 11.7226 10.2545 11.6882C10.0181 11.5006 9.72492 11.3942 9.38981 11.3942C9.0547 11.3942 8.71608 11.5006 8.39968 11.6882C8.34164 11.7226 8.28418 11.7597 8.2276 11.7996C7.85403 12.0624 7.51994 12.4381 7.2708 12.8814C7.12971 13.1318 7.01655 13.4035 6.93818 13.6888H6.21985C6.29179 13.4094 6.38916 13.1388 6.50686 12.8814H4.90149L5.15633 11.6882H7.28031C7.92977 10.9548 8.76374 10.4888 9.5831 10.4888C10.4025 10.4888 11.0376 10.9548 11.3734 11.6882H17.6695C17.9807 11.3364 18.3344 11.0466 18.7089 10.8395L20.5795 2.08154C20.6103 1.93729 20.6878 1.80744 20.7858 1.71824C20.8709 1.64066 20.9706 1.59375 21.07 1.59375H21.7452C22.7415 1.59375 23.6719 1.85177 24.4787 2.3523C24.5449 2.39312 24.6023 2.44761 24.6498 2.51354C24.6973 2.57893 24.7347 2.65613 24.7606 2.74257L25.752 6.04256L25.9934 6.84669Z" fill="#22372D"/>
<path d="M24.7543 7.33843H21.0998C20.8674 7.33843 20.7298 7.10054 20.7925 6.80687L21.4591 3.68586C21.5218 3.39219 21.761 3.1543 21.9933 3.1543H24.0442C24.1867 3.1543 24.2999 3.24572 24.3451 3.39662L25.2826 6.51764C25.3889 6.87115 25.0881 7.33843 24.7543 7.33843Z" fill="#FCFCEF"/>
<path d="M5.76252 10.4851C5.6664 10.9351 5.87737 11.2998 6.23365 11.2998H7.22596C7.64721 10.8582 8.11931 10.5264 8.60292 10.325C8.6062 10.3236 8.60946 10.3222 8.61269 10.321C8.96287 10.1765 9.31905 10.1005 9.66623 10.1005C9.79849 10.1005 9.92746 10.1115 10.0523 10.1333C10.2551 10.1683 10.4472 10.2314 10.6257 10.321C11.027 10.5219 11.36 10.8551 11.594 11.2998H13.368H17.6149C17.8786 11.0231 18.1618 10.7894 18.4607 10.6015L20.5394 0.868644C20.6354 0.418814 20.4245 0.053907 20.0684 0.053907H15.4306H14.5018C14.4425 0.0194239 14.3751 0.000418648 14.2993 0.000418648H5.35287C5.23233 0.000418648 5.11178 -0.000523309 4.99083 0.000418648H4.97485C4.82494 0.000418648 4.6496 0.0830152 4.51492 0.217013C4.38614 0.345138 4.26466 0.555619 4.23186 0.739596C4.1979 0.930832 4.20532 1.12912 4.29166 1.2624C4.36671 1.3781 4.46979 1.45646 4.59999 1.47477C4.61912 1.47735 4.63889 1.47876 4.65913 1.47876H7.68603H7.89724C8.02744 1.49706 8.13029 1.57567 8.20534 1.69136C8.29185 1.82464 8.29929 2.02293 8.26518 2.21394C8.23234 2.39814 8.11109 2.60838 7.98208 2.73675C7.86461 2.85361 7.71656 2.93103 7.581 2.94911H7.37202H1.35611C1.16534 2.94911 0.975147 2.94723 0.783979 2.94911C0.775572 2.94933 0.767443 2.94911 0.759095 2.94911C0.739956 2.94911 0.720524 2.95052 0.700845 2.9531C0.408325 2.99205 0.0827906 3.31422 0.0161048 3.68829C-0.0508881 4.06374 0.0948677 4.38499 0.383674 4.42346C0.403003 4.42605 0.422946 4.42745 0.443371 4.42745H5.01838C5.14859 4.44575 5.25161 4.52436 5.32664 4.64004C5.41298 4.77333 5.42041 4.97162 5.3863 5.16262C5.35365 5.34682 5.23216 5.55732 5.10337 5.68544C4.98544 5.80276 4.83658 5.88045 4.70056 5.89805H4.55048C4.3599 5.89805 2.12625 5.89592 1.93521 5.89805H1.91014C1.89138 5.89805 1.87255 5.89921 1.85342 5.9018C1.56054 5.93981 1.23404 6.26223 1.16713 6.63723C1.10038 7.01244 1.24594 7.33368 1.53469 7.37241C1.55402 7.375 1.57396 7.3764 1.5944 7.3764H6.42649H6.95756C7.08777 7.39471 7.19084 7.47307 7.26589 7.58877C7.3524 7.72206 7.35965 7.92034 7.32567 8.11159C7.29288 8.29555 7.17139 8.50603 7.04261 8.63416C6.92582 8.75035 6.7786 8.82772 6.64385 8.84637C5.21421 8.8463 3.90694 8.84634 3.8529 8.84674H3.83711C3.8178 8.84674 3.79818 8.84815 3.77831 8.85073C3.64274 8.8688 3.49469 8.94624 3.37704 9.0631C3.2482 9.19144 3.12695 9.4017 3.09411 9.5859C3.06 9.77692 3.06743 9.97521 3.15376 10.1085C3.24001 10.2413 3.36274 10.3251 3.52137 10.3251H5.79671L5.76252 10.4851Z" fill="#22372D"/>
</svg>
