<svg width="20" height="20" viewBox="0 0 20 20" fill="none" xmlns="http://www.w3.org/2000/svg">
<path d="M18.4615 1.3335H1.53846C1.13044 1.3335 0.739122 1.49558 0.450605 1.7841C0.162087 2.07262 0 2.46393 0 2.87196V18.2566C6.99926e-05 18.3877 0.0336486 18.5166 0.0975479 18.6311C0.161447 18.7456 0.253546 18.8418 0.365102 18.9107C0.476657 18.9796 0.603966 19.0188 0.734942 19.0246C0.865919 19.0305 0.996215 19.0027 1.11346 18.9441L3.84615 17.5777L6.57885 18.9441C6.68572 18.9975 6.80357 19.0254 6.92308 19.0254C7.04258 19.0254 7.16044 18.9975 7.26731 18.9441L10 17.5777L12.7327 18.9441C12.8396 18.9975 12.9574 19.0254 13.0769 19.0254C13.1964 19.0254 13.3143 18.9975 13.4212 18.9441L16.1538 17.5777L18.8865 18.9441C19.0038 19.0027 19.1341 19.0305 19.2651 19.0246C19.396 19.0188 19.5233 18.9796 19.6349 18.9107C19.7465 18.8418 19.8386 18.7456 19.9025 18.6311C19.9664 18.5166 19.9999 18.3877 20 18.2566V2.87196C20 2.46393 19.8379 2.07262 19.5494 1.7841C19.2609 1.49558 18.8696 1.3335 18.4615 1.3335ZM18.4615 17.0123L16.4981 16.0296C16.3912 15.9762 16.2733 15.9483 16.1538 15.9483C16.0343 15.9483 15.9165 15.9762 15.8096 16.0296L13.0769 17.397L10.3442 16.0296C10.2374 15.9762 10.1195 15.9483 10 15.9483C9.8805 15.9483 9.76264 15.9762 9.65577 16.0296L6.92308 17.397L4.19038 16.0296C4.08352 15.9762 3.96566 15.9483 3.84615 15.9483C3.72665 15.9483 3.60879 15.9762 3.50192 16.0296L1.53846 17.0123V2.87196H18.4615V17.0123ZM10.7692 8.25657C10.7692 8.05256 10.8503 7.8569 10.9945 7.71264C11.1388 7.56839 11.3344 7.48734 11.5385 7.48734H16.1538C16.3579 7.48734 16.5535 7.56839 16.6978 7.71264C16.842 7.8569 16.9231 8.05256 16.9231 8.25657C16.9231 8.46059 16.842 8.65624 16.6978 8.8005C16.5535 8.94476 16.3579 9.0258 16.1538 9.0258H11.5385C11.3344 9.0258 11.1388 8.94476 10.9945 8.8005C10.8503 8.65624 10.7692 8.46059 10.7692 8.25657ZM10.7692 11.3335C10.7692 11.1295 10.8503 10.9338 10.9945 10.7896C11.1388 10.6453 11.3344 10.5643 11.5385 10.5643H16.1538C16.3579 10.5643 16.5535 10.6453 16.6978 10.7896C16.842 10.9338 16.9231 11.1295 16.9231 11.3335C16.9231 11.5375 16.842 11.7332 16.6978 11.8774C16.5535 12.0217 16.3579 12.1027 16.1538 12.1027H11.5385C11.3344 12.1027 11.1388 12.0217 10.9945 11.8774C10.8503 11.7332 10.7692 11.5375 10.7692 11.3335ZM3.84615 13.6412H8.46154C8.66555 13.6412 8.86121 13.5601 9.00547 13.4159C9.14973 13.2716 9.23077 13.076 9.23077 12.872V6.71811C9.23077 6.5141 9.14973 6.31844 9.00547 6.17418C8.86121 6.02992 8.66555 5.94888 8.46154 5.94888H3.84615C3.64214 5.94888 3.44648 6.02992 3.30223 6.17418C3.15797 6.31844 3.07692 6.5141 3.07692 6.71811V12.872C3.07692 13.076 3.15797 13.2716 3.30223 13.4159C3.44648 13.5601 3.64214 13.6412 3.84615 13.6412ZM4.61538 7.48734H7.69231V12.1027H4.61538V7.48734Z" fill="#22372D"/>
</svg>
