<svg width="22" height="22" viewBox="0 0 22 22" fill="none" xmlns="http://www.w3.org/2000/svg">
<path d="M15.3145 5.47266L15.6484 5.75293L15.9717 5.45996L16.5781 4.9082L17.0303 5.10547L17.4541 5.53906C17.5944 5.68272 17.7877 5.7627 17.9863 5.7627C18.0469 5.76266 18.1059 5.75169 18.1641 5.7373C18.5992 6.21998 18.9053 6.69159 19.0674 7.15723L19.2422 7.66016C18.9833 7.42004 18.693 7.12324 18.4219 6.82812L18.1221 6.49512L17.3359 5.60547L17.249 6.79004C17.1978 7.48328 17.1462 8.24779 17.1201 8.91309C17.098 9.47769 17.0916 10.0146 17.1299 10.373L17.1494 10.5156C17.1916 10.7633 17.2237 11.0201 17.2402 11.3115C16.1464 11.6017 14.9014 11.5889 13.7637 11.2686C13.7754 11.0568 13.7951 10.8639 13.8213 10.6777L13.8662 10.3926C13.9111 10.1352 13.9249 9.72825 13.9248 9.28711C13.9247 8.83312 13.9101 8.30153 13.8896 7.77148C13.8558 6.89321 13.8045 6.00421 13.7744 5.46484L14.6328 4.90039L15.3145 5.47266Z" fill="#22372D" stroke="#22372D"/>
<path d="M8.18799 4.34082C8.60619 4.46315 9.01642 4.61594 9.41748 4.80176L9.60303 4.8877L9.79541 4.81836L9.80713 4.81348L10.3716 5.35645L10.5298 10.3877C10.0656 10.3503 9.58464 10.2496 9.08643 10.0879L8.95361 5.09961L8.9458 4.83887L8.72803 4.69531L8.71533 4.6875L8.18799 4.34082Z" fill="#22372D" stroke="#22372D"/>
<path d="M9.78735 21.4292C9.77914 21.4641 9.74665 21.5005 9.69165 21.5005H9.57739C9.52257 21.5004 9.49095 21.464 9.48267 21.4292H9.78735Z" fill="#22372D" stroke="#22372D"/>
<path d="M12.2347 21.4492C12.2221 21.476 12.1936 21.5 12.1498 21.5H12.0238C11.9799 21.5 11.9515 21.476 11.9388 21.4492H12.2347Z" fill="#22372D" stroke="#22372D"/>
<path d="M10.3448 0.788574C10.4765 0.750748 10.6218 0.758232 10.8341 0.785645L11.0704 0.818848C11.2035 0.838147 11.3694 0.858337 11.5499 0.859863L11.3781 1.05029L11.5529 1.36475C11.6159 1.47757 11.6622 1.63298 11.6622 1.84619C11.6622 1.86758 11.6611 1.89039 11.6583 1.93701L11.6427 2.19189L11.6691 2.21338L11.6417 2.21729L11.5343 2.49463C11.4382 2.74344 11.2998 2.95406 11.1486 3.09521C10.9978 3.23591 10.8592 3.28662 10.7462 3.28662C10.6329 3.28654 10.4942 3.23512 10.3429 3.09326C10.1911 2.95091 10.0519 2.73903 9.95618 2.48877L9.84387 2.19482L9.83313 1.90381C9.83274 1.89344 9.83256 1.88396 9.83215 1.87646C9.83195 1.87267 9.83135 1.86878 9.83118 1.86572C9.83101 1.86273 9.8313 1.86025 9.83118 1.85791C9.83062 1.84766 9.8302 1.84515 9.8302 1.84619C9.83023 1.54058 9.92509 1.34918 10.0431 1.22705L10.173 1.09229L10.1827 0.908691C10.1817 0.919652 10.1801 0.903171 10.213 0.868652C10.2301 0.850773 10.251 0.834502 10.2736 0.820801L10.3448 0.788574Z" fill="#22372D" stroke="#22372D"/>
<path d="M6.04578 1.01562C6.2714 1.01562 6.44348 1.08651 6.55945 1.19727C6.67325 1.30602 6.77712 1.49537 6.79089 1.81641L6.80261 2.11328L6.71863 2.42383C6.64098 2.70829 6.51336 2.95566 6.37097 3.12109C6.2251 3.2905 6.10867 3.32715 6.04578 3.32715C5.98629 3.327 5.88031 3.29462 5.74402 3.14551C5.60945 2.99822 5.48339 2.77504 5.39929 2.50977L5.30164 2.20215L5.29871 1.90137L5.29773 1.88672C5.29773 1.53348 5.40394 1.32671 5.51941 1.20996C5.6364 1.09168 5.81211 1.01572 6.04578 1.01562ZM7.31042 2.29395L7.30847 2.29492C7.30417 2.29504 7.29927 2.29395 7.29382 2.29395C7.3001 2.29392 7.30565 2.29412 7.31042 2.29395Z" fill="#22372D" stroke="#22372D"/>
<mask id="path-7-inside-1_886_903" fill="white">
<path d="M21.1815 4.69546L20.8805 5.12876L20.9064 4.84354C20.9116 4.78634 20.8729 4.73418 20.8158 4.72142C20.7545 4.70768 20.6931 4.74395 20.6767 4.80355L20.446 5.64429C20.4446 5.64581 20.4432 5.64752 20.4419 5.64899C20.7096 5.67265 20.9631 5.82235 21.1047 6.04631L21.3834 5.72574L21.8806 5.32529C22.2634 4.98987 21.642 4.31637 21.1815 4.69546Z"/>
</mask>
<path d="M21.1815 4.69546L20.8805 5.12876L20.9064 4.84354C20.9116 4.78634 20.8729 4.73418 20.8158 4.72142C20.7545 4.70768 20.6931 4.74395 20.6767 4.80355L20.446 5.64429C20.4446 5.64581 20.4432 5.64752 20.4419 5.64899C20.7096 5.67265 20.9631 5.82235 21.1047 6.04631L21.3834 5.72574L21.8806 5.32529C22.2634 4.98987 21.642 4.31637 21.1815 4.69546Z" fill="#22372D"/>
<path d="M21.1815 4.69546L20.5459 3.92341L20.4391 4.01135L20.3602 4.12499L21.1815 4.69546ZM20.8805 5.12876L19.8846 5.03841L19.5427 8.80789L21.7019 5.69922L20.8805 5.12876ZM20.9064 4.84354L21.9023 4.93389L21.9023 4.93381L20.9064 4.84354ZM20.8158 4.72142L20.5972 5.69723L20.5977 5.69733L20.8158 4.72142ZM20.6767 4.80355L21.641 5.06819L21.6411 5.06815L20.6767 4.80355ZM20.446 5.64429L21.1937 6.30834L21.3486 6.13391L21.4103 5.90893L20.446 5.64429ZM20.4419 5.64899L19.7051 4.97283L18.3342 6.46659L20.3538 6.6451L20.4419 5.64899ZM21.1047 6.04631L20.2595 6.58079L20.9777 7.71643L21.8593 6.70245L21.1047 6.04631ZM21.3834 5.72574L20.7561 4.94694L20.687 5.00262L20.6288 5.0696L21.3834 5.72574ZM21.8806 5.32529L22.5079 6.10409L22.524 6.09108L22.5396 6.07742L21.8806 5.32529ZM20.3602 4.12499L20.0592 4.55829L21.7019 5.69922L22.0028 5.26592L20.3602 4.12499ZM21.8765 5.2191L21.9023 4.93389L19.9105 4.7532L19.8846 5.03841L21.8765 5.2191ZM21.9023 4.93381C21.9541 4.36237 21.5675 3.86477 21.034 3.7455L20.5977 5.69733C20.1783 5.60358 19.8691 5.21032 19.9105 4.75327L21.9023 4.93381ZM21.0345 3.74561C20.4668 3.61842 19.8739 3.95022 19.7123 4.53895L21.6411 5.06815C21.5122 5.53769 21.0423 5.79693 20.5972 5.69723L21.0345 3.74561ZM19.7124 4.53891L19.4816 5.37965L21.4103 5.90893L21.641 5.06819L19.7124 4.53891ZM19.6983 4.98024C19.6931 4.98605 19.6891 4.99076 19.687 4.99314C19.6859 4.99439 19.6851 4.99541 19.6847 4.99586C19.6845 4.99608 19.6843 4.99632 19.6843 4.99633C19.6842 4.99641 19.6843 4.99633 19.6844 4.99621C19.6846 4.99594 19.6869 4.99325 19.69 4.98972C19.6932 4.98612 19.6984 4.98015 19.7051 4.97283L21.1787 6.32514C21.186 6.31709 21.192 6.31035 21.1958 6.30598C21.1996 6.30167 21.2026 6.29817 21.2035 6.2971C21.2037 6.29689 21.2047 6.29567 21.2042 6.29625C21.2042 6.2963 21.2036 6.29692 21.2029 6.29778C21.2015 6.29936 21.1982 6.30329 21.1937 6.30834L19.6983 4.98024ZM20.3538 6.6451C20.3327 6.64323 20.3185 6.63742 20.308 6.63115C20.2974 6.62486 20.2784 6.61067 20.2595 6.58079L21.9499 5.51182C21.6343 5.0128 21.0943 4.70275 20.5299 4.65287L20.3538 6.6451ZM21.8593 6.70245L22.138 6.38189L20.6288 5.0696L20.35 5.39016L21.8593 6.70245ZM22.0107 6.50454L22.5079 6.10409L21.2533 4.54649L20.7561 4.94694L22.0107 6.50454ZM22.5396 6.07742C22.8925 5.76817 23.0376 5.3357 22.9915 4.92144C22.9497 4.54629 22.7618 4.24001 22.5498 4.03071C22.1309 3.61727 21.2814 3.31793 20.5459 3.92341L21.8171 5.4675C21.7163 5.55043 21.5645 5.59833 21.4111 5.57858C21.2816 5.5619 21.1955 5.50414 21.1448 5.45415C21.0978 5.40777 21.0223 5.30906 21.0038 5.14269C20.9809 4.9372 21.06 4.7147 21.2216 4.57316L22.5396 6.07742Z" fill="#22372D" mask="url(#path-7-inside-1_886_903)"/>
<mask id="path-9-inside-2_886_903" fill="white">
<path d="M16.4807 3.41604C16.433 3.62831 16.4517 3.89134 16.538 4.21381L17.3665 4.53638L17.7462 3.7718C17.2936 3.54261 16.939 3.39829 16.5552 3.2793C16.5365 3.32379 16.4919 3.36603 16.4807 3.41604Z"/>
</mask>
<path d="M16.4807 3.41604C16.433 3.62831 16.4517 3.89134 16.538 4.21381L17.3665 4.53638L17.7462 3.7718C17.2936 3.54261 16.939 3.39829 16.5552 3.2793C16.5365 3.32379 16.4919 3.36603 16.4807 3.41604Z" fill="#22372D"/>
<path d="M16.4807 3.41604L17.4564 3.63532L17.4565 3.63488L16.4807 3.41604ZM16.538 4.21381L15.5719 4.47218L15.7029 4.96179L16.1752 5.14567L16.538 4.21381ZM17.3665 4.53638L17.0037 5.46824L17.8555 5.79989L18.2621 4.98119L17.3665 4.53638ZM17.7462 3.7718L18.6418 4.21662L19.0832 3.32792L18.1979 2.87966L17.7462 3.7718ZM16.5552 3.2793L16.8513 2.32415L15.9839 2.05523L15.6329 2.89278L16.5552 3.2793ZM15.5051 3.19676C15.4081 3.62825 15.464 4.06876 15.5719 4.47218L17.504 3.95544C17.4733 3.84052 17.4606 3.75793 17.4566 3.70221C17.4526 3.64691 17.458 3.62828 17.4564 3.63532L15.5051 3.19676ZM16.1752 5.14567L17.0037 5.46824L17.7293 3.60451L16.9008 3.28195L16.1752 5.14567ZM18.2621 4.98119L18.6418 4.21662L16.8506 3.32699L16.4708 4.09156L18.2621 4.98119ZM18.1979 2.87966C17.7029 2.62899 17.2962 2.46209 16.8513 2.32415L16.259 4.23445C16.5817 4.33449 16.8842 4.45624 17.2944 4.66394L18.1979 2.87966ZM15.6329 2.89278C15.6594 2.82942 15.6866 2.78654 15.6928 2.77678C15.6967 2.77063 15.6991 2.76718 15.6967 2.77062C15.6952 2.77288 15.6948 2.77346 15.6918 2.77795C15.6895 2.78134 15.6862 2.78632 15.6824 2.79194C15.6693 2.81167 15.6379 2.85925 15.6063 2.92033C15.5739 2.98299 15.5319 3.07731 15.505 3.1972L17.4565 3.63488C17.4457 3.68291 17.4323 3.7242 17.4192 3.75795C17.4062 3.79154 17.3932 3.81896 17.3826 3.83933C17.3721 3.85963 17.363 3.87511 17.3573 3.88442C17.3544 3.88921 17.352 3.89294 17.3505 3.89533C17.3489 3.8977 17.348 3.89915 17.3479 3.89926C17.3479 3.89928 17.3483 3.89869 17.3497 3.89653C17.3505 3.89546 17.3538 3.8905 17.356 3.88723C17.3611 3.87962 17.3708 3.86516 17.3817 3.84801C17.3928 3.83059 17.4076 3.80631 17.4237 3.77711C17.4397 3.74785 17.4588 3.71033 17.4774 3.66582L15.6329 2.89278Z" fill="#22372D" mask="url(#path-9-inside-2_886_903)"/>
<path d="M14.2317 3.64893C14.2344 3.69667 14.2311 3.75564 14.2131 3.83447L12.9172 4.68701L12.8596 4.7251L12.6194 4.8833L12.635 5.16943L12.6389 5.23779L12.6604 5.63916C12.6742 5.88519 12.6921 6.1995 12.7102 6.54932L12.5374 10.1021C12.2285 10.2255 11.9134 10.3094 11.5911 10.3569L11.4329 5.30615L11.8401 4.81201L12.0217 4.87256L12.2249 4.73779C12.9276 4.27005 13.5813 3.90338 14.2317 3.64893Z" fill="#22372D" stroke="#22372D"/>
<mask id="path-12-inside-3_886_903" fill="white">
<path d="M1.2178 2.29689L1.31451 1.46084C1.32139 1.40139 1.27912 1.34718 1.2188 1.33818C1.16266 1.32977 1.10882 1.36336 1.09272 1.41675L1.01256 1.68314L0.898295 1.18707C0.620367 0.684243 -0.184852 1.07496 0.0387372 1.5113L0.34199 2.04619L0.483223 2.45026C0.733233 2.51518 1.01754 2.4572 1.2178 2.29689Z"/>
</mask>
<path d="M1.2178 2.29689L1.31451 1.46084C1.32139 1.40139 1.27912 1.34718 1.2188 1.33818C1.16266 1.32977 1.10882 1.36336 1.09272 1.41675L1.01256 1.68314L0.898295 1.18707C0.620367 0.684243 -0.184852 1.07496 0.0387372 1.5113L0.34199 2.04619L0.483223 2.45026C0.733233 2.51518 1.01754 2.4572 1.2178 2.29689Z" fill="#22372D"/>
<path d="M1.2178 2.29689L1.84273 3.07757L2.1639 2.82048L2.21118 2.41181L1.2178 2.29689ZM1.31451 1.46084L0.321144 1.34589L0.321139 1.34593L1.31451 1.46084ZM1.2188 1.33818L1.07065 2.32715L1.0713 2.32724L1.2188 1.33818ZM1.09272 1.41675L0.135321 1.12798L0.135136 1.12859L1.09272 1.41675ZM1.01256 1.68314L0.0380727 1.9076L0.884064 5.58052L1.97014 1.97129L1.01256 1.68314ZM0.898295 1.18707L1.87278 0.96261L1.84131 0.826001L1.7735 0.703309L0.898295 1.18707ZM0.0387372 1.5113L-0.851223 1.96734L-0.841595 1.98612L-0.831183 2.00449L0.0387372 1.5113ZM0.34199 2.04619L1.28599 1.71624L1.25629 1.63128L1.21191 1.553L0.34199 2.04619ZM0.483223 2.45026L-0.460775 2.78021L-0.284683 3.28401L0.231873 3.41815L0.483223 2.45026ZM2.21118 2.41181L2.30789 1.57576L0.321139 1.34593L0.224425 2.18198L2.21118 2.41181ZM2.30788 1.5758C2.37864 0.964381 1.94411 0.435286 1.36629 0.349118L1.0713 2.32724C0.614128 2.25907 0.264147 1.83841 0.321144 1.34589L2.30788 1.5758ZM1.36694 0.349216C0.832088 0.269094 0.298508 0.58694 0.135321 1.12798L2.05012 1.70551C1.91914 2.13978 1.49324 2.39045 1.07065 2.32715L1.36694 0.349216ZM0.135136 1.12859L0.0549729 1.39499L1.97014 1.97129L2.0503 1.7049L0.135136 1.12859ZM1.98704 1.45869L1.87278 0.96261L-0.0761894 1.41152L0.0380727 1.9076L1.98704 1.45869ZM1.7735 0.703309C1.31206 -0.131511 0.411219 -0.14748 -0.11416 0.0781476C-0.382737 0.19349 -0.665613 0.405364 -0.841422 0.732835C-1.03582 1.09493 -1.06574 1.5487 -0.851223 1.96734L0.928697 1.05526C1.03142 1.25573 1.01831 1.49703 0.920688 1.67886C0.841658 1.82607 0.735535 1.88987 0.675054 1.91585C0.610038 1.94377 0.507163 1.96738 0.376944 1.93542C0.222423 1.89749 0.091255 1.79414 0.0230923 1.67082L1.7735 0.703309ZM-0.831183 2.00449L-0.527929 2.53938L1.21191 1.553L0.908657 1.0181L-0.831183 2.00449ZM-0.602007 2.37614L-0.460775 2.78021L1.42722 2.1203L1.28599 1.71624L-0.602007 2.37614ZM0.231873 3.41815C0.778507 3.56011 1.38936 3.4405 1.84273 3.07757L0.592866 1.51621C0.625524 1.49007 0.651891 1.48182 0.666063 1.47888C0.680262 1.47593 0.702523 1.47404 0.734572 1.48236L0.231873 3.41815Z" fill="#22372D" mask="url(#path-12-inside-3_886_903)"/>
<mask id="path-14-inside-4_886_903" fill="white">
<path d="M6.04714 4.76107C6.04949 4.76107 6.05168 4.76107 6.05392 4.76107C6.39661 4.75853 6.73047 4.55574 6.89912 4.25443H6.89808C6.80196 4.00187 6.75625 3.74506 6.80475 3.47735C6.59786 3.72272 6.34033 3.88703 6.04634 3.88703C5.77395 3.88703 5.50849 3.73685 5.28669 3.47559C5.32239 3.72795 5.27857 4.00608 5.20483 4.27291C5.37772 4.56639 5.70899 4.76107 6.04714 4.76107Z"/>
</mask>
<path d="M6.04714 4.76107C6.04949 4.76107 6.05168 4.76107 6.05392 4.76107C6.39661 4.75853 6.73047 4.55574 6.89912 4.25443H6.89808C6.80196 4.00187 6.75625 3.74506 6.80475 3.47735C6.59786 3.72272 6.34033 3.88703 6.04634 3.88703C5.77395 3.88703 5.50849 3.73685 5.28669 3.47559C5.32239 3.72795 5.27857 4.00608 5.20483 4.27291C5.37772 4.56639 5.70899 4.76107 6.04714 4.76107Z" fill="#22372D"/>
<path d="M6.05392 4.76107V5.7611L6.06134 5.76104L6.05392 4.76107ZM6.89912 4.25443L7.77173 4.74287L8.60486 3.25443H6.89912V4.25443ZM6.89808 4.25443L5.96347 4.61011L6.20867 5.25443H6.89808V4.25443ZM6.80475 3.47735L7.78873 3.65563L8.45721 -0.0338426L6.04024 2.83274L6.80475 3.47735ZM5.28669 3.47559L6.04903 2.82841L3.81259 0.193994L4.29655 3.61563L5.28669 3.47559ZM5.20483 4.27291L4.24095 4.00658L4.12804 4.41521L4.34323 4.78049L5.20483 4.27291ZM6.04714 5.76107C6.04715 5.76107 6.04715 5.76107 6.04716 5.76107C6.04716 5.76107 6.04717 5.76107 6.04717 5.76107C6.04717 5.76107 6.04718 5.76107 6.04718 5.76107C6.04719 5.76107 6.04719 5.76107 6.0472 5.76107C6.0472 5.76107 6.04721 5.76107 6.04721 5.76107C6.04722 5.76107 6.04722 5.76107 6.04723 5.76107C6.04723 5.76107 6.04723 5.76107 6.04724 5.76107C6.04724 5.76107 6.04725 5.76107 6.04725 5.76107C6.04726 5.76107 6.04726 5.76107 6.04727 5.76107C6.04727 5.76107 6.04728 5.76107 6.04728 5.76107C6.04728 5.76107 6.04729 5.76107 6.04729 5.76107C6.0473 5.76107 6.0473 5.76107 6.04731 5.76107C6.04731 5.76107 6.04732 5.76107 6.04732 5.76107C6.04733 5.76107 6.04733 5.76107 6.04733 5.76107C6.04734 5.76107 6.04734 5.76107 6.04735 5.76107C6.04735 5.76107 6.04736 5.76107 6.04736 5.76107C6.04737 5.76107 6.04737 5.76107 6.04738 5.76107C6.04738 5.76107 6.04738 5.76107 6.04739 5.76107C6.04739 5.76107 6.0474 5.76107 6.0474 5.76107C6.04741 5.76107 6.04741 5.76107 6.04742 5.76107C6.04742 5.76107 6.04743 5.76107 6.04743 5.76107C6.04743 5.76107 6.04744 5.76107 6.04744 5.76107C6.04745 5.76107 6.04745 5.76107 6.04746 5.76107C6.04746 5.76107 6.04747 5.76107 6.04747 5.76107C6.04748 5.76107 6.04748 5.76107 6.04748 5.76107C6.04749 5.76107 6.04749 5.76107 6.0475 5.76107C6.0475 5.76107 6.04751 5.76107 6.04751 5.76107C6.04752 5.76107 6.04752 5.76107 6.04753 5.76107C6.04753 5.76107 6.04753 5.76107 6.04754 5.76107C6.04754 5.76107 6.04755 5.76107 6.04755 5.76107C6.04756 5.76107 6.04756 5.76107 6.04757 5.76107C6.04757 5.76107 6.04758 5.76107 6.04758 5.76107C6.04758 5.76107 6.04759 5.76107 6.04759 5.76107C6.0476 5.76107 6.0476 5.76107 6.04761 5.76107C6.04761 5.76107 6.04762 5.76107 6.04762 5.76107C6.04763 5.76107 6.04763 5.76107 6.04763 5.76107C6.04764 5.76107 6.04764 5.76107 6.04765 5.76107C6.04765 5.76107 6.04766 5.76107 6.04766 5.76107C6.04767 5.76107 6.04767 5.76107 6.04768 5.76107C6.04768 5.76107 6.04768 5.76107 6.04769 5.76107C6.04769 5.76107 6.0477 5.76107 6.0477 5.76107C6.04771 5.76107 6.04771 5.76107 6.04772 5.76107C6.04772 5.76107 6.04773 5.76107 6.04773 5.76107C6.04773 5.76107 6.04774 5.76107 6.04774 5.76107C6.04775 5.76107 6.04775 5.76107 6.04776 5.76107C6.04776 5.76107 6.04777 5.76107 6.04777 5.76107C6.04778 5.76107 6.04778 5.76107 6.04778 5.76107C6.04779 5.76107 6.04779 5.76107 6.0478 5.76107C6.0478 5.76107 6.04781 5.76107 6.04781 5.76107C6.04782 5.76107 6.04782 5.76107 6.04783 5.76107C6.04783 5.76107 6.04783 5.76107 6.04784 5.76107C6.04784 5.76107 6.04785 5.76107 6.04785 5.76107C6.04786 5.76107 6.04786 5.76107 6.04787 5.76107C6.04787 5.76107 6.04787 5.76107 6.04788 5.76107C6.04788 5.76107 6.04789 5.76107 6.04789 5.76107C6.0479 5.76107 6.0479 5.76107 6.04791 5.76107C6.04791 5.76107 6.04792 5.76107 6.04792 5.76107C6.04792 5.76107 6.04793 5.76107 6.04793 5.76107C6.04794 5.76107 6.04794 5.76107 6.04795 5.76107C6.04795 5.76107 6.04796 5.76107 6.04796 5.76107C6.04797 5.76107 6.04797 5.76107 6.04797 5.76107C6.04798 5.76107 6.04798 5.76107 6.04799 5.76107C6.04799 5.76107 6.048 5.76107 6.048 5.76107C6.04801 5.76107 6.04801 5.76107 6.04801 5.76107C6.04802 5.76107 6.04802 5.76107 6.04803 5.76107C6.04803 5.76107 6.04804 5.76107 6.04804 5.76107C6.04805 5.76107 6.04805 5.76107 6.04806 5.76107C6.04806 5.76107 6.04806 5.76107 6.04807 5.76107C6.04807 5.76107 6.04808 5.76107 6.04808 5.76107C6.04809 5.76107 6.04809 5.76107 6.0481 5.76107C6.0481 5.76107 6.0481 5.76107 6.04811 5.76107C6.04811 5.76107 6.04812 5.76107 6.04812 5.76107C6.04813 5.76107 6.04813 5.76107 6.04814 5.76107C6.04814 5.76107 6.04815 5.76107 6.04815 5.76107C6.04815 5.76107 6.04816 5.76107 6.04816 5.76107C6.04817 5.76107 6.04817 5.76107 6.04818 5.76107C6.04818 5.76107 6.04819 5.76107 6.04819 5.76107C6.04819 5.76107 6.0482 5.76107 6.0482 5.76107C6.04821 5.76107 6.04821 5.76107 6.04822 5.76107C6.04822 5.76107 6.04823 5.76107 6.04823 5.76107C6.04824 5.76107 6.04824 5.76107 6.04824 5.76107C6.04825 5.76107 6.04825 5.76107 6.04826 5.76107C6.04826 5.76107 6.04827 5.76107 6.04827 5.76107C6.04828 5.76107 6.04828 5.76107 6.04828 5.76107C6.04829 5.76107 6.04829 5.76107 6.0483 5.76107C6.0483 5.76107 6.04831 5.76107 6.04831 5.76107C6.04832 5.76107 6.04832 5.76107 6.04833 5.76107C6.04833 5.76107 6.04833 5.76107 6.04834 5.76107C6.04834 5.76107 6.04835 5.76107 6.04835 5.76107C6.04836 5.76107 6.04836 5.76107 6.04837 5.76107C6.04837 5.76107 6.04837 5.76107 6.04838 5.76107C6.04838 5.76107 6.04839 5.76107 6.04839 5.76107C6.0484 5.76107 6.0484 5.76107 6.04841 5.76107C6.04841 5.76107 6.04841 5.76107 6.04842 5.76107C6.04842 5.76107 6.04843 5.76107 6.04843 5.76107C6.04844 5.76107 6.04844 5.76107 6.04845 5.76107C6.04845 5.76107 6.04846 5.76107 6.04846 5.76107C6.04846 5.76107 6.04847 5.76107 6.04847 5.76107C6.04848 5.76107 6.04848 5.76107 6.04849 5.76107C6.04849 5.76107 6.0485 5.76107 6.0485 5.76107C6.0485 5.76107 6.04851 5.76107 6.04851 5.76107C6.04852 5.76107 6.04852 5.76107 6.04853 5.76107C6.04853 5.76107 6.04854 5.76107 6.04854 5.76107C6.04854 5.76107 6.04855 5.76107 6.04855 5.76107C6.04856 5.76107 6.04856 5.76107 6.04857 5.76107C6.04857 5.76107 6.04858 5.76107 6.04858 5.76107C6.04858 5.76107 6.04859 5.76107 6.04859 5.76107C6.0486 5.76107 6.0486 5.76107 6.04861 5.76107C6.04861 5.76107 6.04862 5.76107 6.04862 5.76107C6.04863 5.76107 6.04863 5.76107 6.04863 5.76107C6.04864 5.76107 6.04864 5.76107 6.04865 5.76107C6.04865 5.76107 6.04866 5.76107 6.04866 5.76107C6.04867 5.76107 6.04867 5.76107 6.04867 5.76107C6.04868 5.76107 6.04868 5.76107 6.04869 5.76107C6.04869 5.76107 6.0487 5.76107 6.0487 5.76107C6.04871 5.76107 6.04871 5.76107 6.04871 5.76107C6.04872 5.76107 6.04872 5.76107 6.04873 5.76107C6.04873 5.76107 6.04874 5.76107 6.04874 5.76107C6.04875 5.76107 6.04875 5.76107 6.04875 5.76107C6.04876 5.76107 6.04876 5.76107 6.04877 5.76107C6.04877 5.76107 6.04878 5.76107 6.04878 5.76107C6.04879 5.76107 6.04879 5.76107 6.04879 5.76107C6.0488 5.76107 6.0488 5.76107 6.04881 5.76107C6.04881 5.76107 6.04882 5.76107 6.04882 5.76107C6.04883 5.76107 6.04883 5.76107 6.04884 5.76107C6.04884 5.76107 6.04884 5.76107 6.04885 5.76107C6.04885 5.76107 6.04886 5.76107 6.04886 5.76107C6.04887 5.76107 6.04887 5.76107 6.04888 5.76107C6.04888 5.76107 6.04888 5.76107 6.04889 5.76107C6.04889 5.76107 6.0489 5.76107 6.0489 5.76107C6.04891 5.76107 6.04891 5.76107 6.04892 5.76107C6.04892 5.76107 6.04892 5.76107 6.04893 5.76107C6.04893 5.76107 6.04894 5.76107 6.04894 5.76107C6.04895 5.76107 6.04895 5.76107 6.04896 5.76107C6.04896 5.76107 6.04896 5.76107 6.04897 5.76107C6.04897 5.76107 6.04898 5.76107 6.04898 5.76107C6.04899 5.76107 6.04899 5.76107 6.049 5.76107C6.049 5.76107 6.049 5.76107 6.04901 5.76107C6.04901 5.76107 6.04902 5.76107 6.04902 5.76107C6.04903 5.76107 6.04903 5.76107 6.04904 5.76107C6.04904 5.76107 6.04904 5.76107 6.04905 5.76107C6.04905 5.76107 6.04906 5.76107 6.04906 5.76107C6.04907 5.76107 6.04907 5.76107 6.04908 5.76107C6.04908 5.76107 6.04908 5.76107 6.04909 5.76107C6.04909 5.76107 6.0491 5.76107 6.0491 5.76107C6.04911 5.76107 6.04911 5.76107 6.04912 5.76107C6.04912 5.76107 6.04912 5.76107 6.04913 5.76107C6.04913 5.76107 6.04914 5.76107 6.04914 5.76107C6.04915 5.76107 6.04915 5.76107 6.04916 5.76107C6.04916 5.76107 6.04916 5.76107 6.04917 5.76107C6.04917 5.76107 6.04918 5.76107 6.04918 5.76107C6.04919 5.76107 6.04919 5.76107 6.0492 5.76107C6.0492 5.76107 6.0492 5.76107 6.04921 5.76107C6.04921 5.76107 6.04922 5.76107 6.04922 5.76107C6.04923 5.76107 6.04923 5.76107 6.04924 5.76107C6.04924 5.76107 6.04924 5.76107 6.04925 5.76107C6.04925 5.76107 6.04926 5.76107 6.04926 5.76107C6.04927 5.76107 6.04927 5.76107 6.04928 5.76107C6.04928 5.76107 6.04928 5.76107 6.04929 5.76107C6.04929 5.76107 6.0493 5.76107 6.0493 5.76107C6.04931 5.76107 6.04931 5.76107 6.04931 5.76107C6.04932 5.76107 6.04932 5.76107 6.04933 5.76107C6.04933 5.76107 6.04934 5.76107 6.04934 5.76107C6.04935 5.76107 6.04935 5.76107 6.04935 5.76107C6.04936 5.76107 6.04936 5.76107 6.04937 5.76107C6.04937 5.76107 6.04938 5.76107 6.04938 5.76107C6.04939 5.76107 6.04939 5.76107 6.04939 5.76107C6.0494 5.76107 6.0494 5.76107 6.04941 5.76107C6.04941 5.76107 6.04942 5.76107 6.04942 5.76107C6.04943 5.76107 6.04943 5.76107 6.04943 5.76107C6.04944 5.76107 6.04944 5.76107 6.04945 5.76107C6.04945 5.76107 6.04946 5.76107 6.04946 5.76107C6.04947 5.76107 6.04947 5.76107 6.04947 5.76107C6.04948 5.76107 6.04948 5.76107 6.04949 5.76107C6.04949 5.76107 6.0495 5.76107 6.0495 5.76107C6.04951 5.76107 6.04951 5.76107 6.04951 5.76107C6.04952 5.76107 6.04952 5.76107 6.04953 5.76107C6.04953 5.76107 6.04954 5.76107 6.04954 5.76107C6.04955 5.76107 6.04955 5.76107 6.04955 5.76107C6.04956 5.76107 6.04956 5.76107 6.04957 5.76107C6.04957 5.76107 6.04958 5.76107 6.04958 5.76107C6.04958 5.76107 6.04959 5.76107 6.04959 5.76107C6.0496 5.76107 6.0496 5.76107 6.04961 5.76107C6.04961 5.76107 6.04962 5.76107 6.04962 5.76107C6.04962 5.76107 6.04963 5.76107 6.04963 5.76107C6.04964 5.76107 6.04964 5.76107 6.04965 5.76107C6.04965 5.76107 6.04966 5.76107 6.04966 5.76107C6.04966 5.76107 6.04967 5.76107 6.04967 5.76107C6.04968 5.76107 6.04968 5.76107 6.04969 5.76107C6.04969 5.76107 6.0497 5.76107 6.0497 5.76107C6.0497 5.76107 6.04971 5.76107 6.04971 5.76107C6.04972 5.76107 6.04972 5.76107 6.04973 5.76107C6.04973 5.76107 6.04973 5.76107 6.04974 5.76107C6.04974 5.76107 6.04975 5.76107 6.04975 5.76107C6.04976 5.76107 6.04976 5.76107 6.04977 5.76107C6.04977 5.76107 6.04977 5.76107 6.04978 5.76107C6.04978 5.76107 6.04979 5.76107 6.04979 5.76107C6.0498 5.76107 6.0498 5.76107 6.04981 5.76107C6.04981 5.76107 6.04981 5.76107 6.04982 5.76107C6.04982 5.76107 6.04983 5.76107 6.04983 5.76107C6.04984 5.76107 6.04984 5.76107 6.04985 5.76107C6.04985 5.76107 6.04985 5.76107 6.04986 5.76107C6.04986 5.76107 6.04987 5.76107 6.04987 5.76107C6.04988 5.76107 6.04988 5.76107 6.04988 5.76107C6.04989 5.76107 6.04989 5.76107 6.0499 5.76107C6.0499 5.76107 6.04991 5.76107 6.04991 5.76107C6.04992 5.76107 6.04992 5.76107 6.04992 5.76107C6.04993 5.76107 6.04993 5.76107 6.04994 5.76107C6.04994 5.76107 6.04995 5.76107 6.04995 5.76107C6.04996 5.76107 6.04996 5.76107 6.04996 5.76107C6.04997 5.76107 6.04997 5.76107 6.04998 5.76107C6.04998 5.76107 6.04999 5.76107 6.04999 5.76107C6.04999 5.76107 6.05 5.76107 6.05 5.76107C6.05001 5.76107 6.05001 5.76107 6.05002 5.76107C6.05002 5.76107 6.05003 5.76107 6.05003 5.76107C6.05003 5.76107 6.05004 5.76107 6.05004 5.76107C6.05005 5.76107 6.05005 5.76107 6.05006 5.76107C6.05006 5.76107 6.05007 5.76107 6.05007 5.76107C6.05007 5.76107 6.05008 5.76107 6.05008 5.76107C6.05009 5.76107 6.05009 5.76107 6.0501 5.76107C6.0501 5.76107 6.0501 5.76107 6.05011 5.76107C6.05011 5.76107 6.05012 5.76107 6.05012 5.76107C6.05013 5.76107 6.05013 5.76107 6.05014 5.76107C6.05014 5.76107 6.05014 5.76107 6.05015 5.76107C6.05015 5.76107 6.05016 5.76107 6.05016 5.76107C6.05017 5.76107 6.05017 5.76107 6.05018 5.76107C6.05018 5.76107 6.05018 5.76107 6.05019 5.76107C6.05019 5.76107 6.0502 5.76107 6.0502 5.76107C6.05021 5.76107 6.05021 5.76107 6.05021 5.76107C6.05022 5.76107 6.05022 5.76107 6.05023 5.76107C6.05023 5.76107 6.05024 5.76107 6.05024 5.76107C6.05025 5.76107 6.05025 5.76107 6.05025 5.76107C6.05026 5.76107 6.05026 5.76107 6.05027 5.76107C6.05027 5.76107 6.05028 5.76107 6.05028 5.76107C6.05029 5.76107 6.05029 5.76107 6.05029 5.76107C6.0503 5.76107 6.0503 5.76107 6.05031 5.76107C6.05031 5.76107 6.05032 5.76107 6.05032 5.76107C6.05032 5.76107 6.05033 5.76107 6.05033 5.76107C6.05034 5.76107 6.05034 5.76107 6.05035 5.76107C6.05035 5.76107 6.05036 5.76107 6.05036 5.76107C6.05036 5.76107 6.05037 5.76107 6.05037 5.76107C6.05038 5.76107 6.05038 5.76107 6.05039 5.76107C6.05039 5.76107 6.05039 5.76107 6.0504 5.76107C6.0504 5.76107 6.05041 5.76107 6.05041 5.76107C6.05042 5.76107 6.05042 5.76107 6.05043 5.76107C6.05043 5.76107 6.05043 5.76107 6.05044 5.76107C6.05044 5.76107 6.05045 5.76107 6.05045 5.76107C6.05046 5.76107 6.05046 5.76107 6.05046 5.76107C6.05047 5.76107 6.05047 5.76107 6.05048 5.76107C6.05048 5.76107 6.05049 5.76107 6.05049 5.76107C6.0505 5.76107 6.0505 5.76107 6.0505 5.76107C6.05051 5.76107 6.05051 5.76107 6.05052 5.76107C6.05052 5.76107 6.05053 5.76107 6.05053 5.76107C6.05054 5.76107 6.05054 5.76107 6.05054 5.76107C6.05055 5.76107 6.05055 5.76107 6.05056 5.76107C6.05056 5.76107 6.05057 5.76107 6.05057 5.76107C6.05057 5.76107 6.05058 5.76107 6.05058 5.76107C6.05059 5.76107 6.05059 5.76107 6.0506 5.76107C6.0506 5.76107 6.05061 5.76107 6.05061 5.76107C6.05061 5.76107 6.05062 5.76107 6.05062 5.76107C6.05063 5.76107 6.05063 5.76107 6.05064 5.76107C6.05064 5.76107 6.05064 5.76107 6.05065 5.76107C6.05065 5.76107 6.05066 5.76107 6.05066 5.76107C6.05067 5.76107 6.05067 5.76107 6.05068 5.76107C6.05068 5.76107 6.05068 5.76107 6.05069 5.76107C6.05069 5.76107 6.0507 5.76107 6.0507 5.76107C6.05071 5.76107 6.05071 5.76107 6.05071 5.76107C6.05072 5.76107 6.05072 5.76107 6.05073 5.76107C6.05073 5.76107 6.05074 5.76107 6.05074 5.76107C6.05075 5.76107 6.05075 5.76107 6.05075 5.76107C6.05076 5.76107 6.05076 5.76107 6.05077 5.76107C6.05077 5.76107 6.05078 5.76107 6.05078 5.76107C6.05078 5.76107 6.05079 5.76107 6.05079 5.76107C6.0508 5.76107 6.0508 5.76107 6.05081 5.76107C6.05081 5.76107 6.05082 5.76107 6.05082 5.76107C6.05082 5.76107 6.05083 5.76107 6.05083 5.76107C6.05084 5.76107 6.05084 5.76107 6.05085 5.76107C6.05085 5.76107 6.05085 5.76107 6.05086 5.76107C6.05086 5.76107 6.05087 5.76107 6.05087 5.76107C6.05088 5.76107 6.05088 5.76107 6.05089 5.76107C6.05089 5.76107 6.05089 5.76107 6.0509 5.76107C6.0509 5.76107 6.05091 5.76107 6.05091 5.76107C6.05092 5.76107 6.05092 5.76107 6.05092 5.76107C6.05093 5.76107 6.05093 5.76107 6.05094 5.76107C6.05094 5.76107 6.05095 5.76107 6.05095 5.76107C6.05096 5.76107 6.05096 5.76107 6.05096 5.76107C6.05097 5.76107 6.05097 5.76107 6.05098 5.76107C6.05098 5.76107 6.05099 5.76107 6.05099 5.76107C6.05099 5.76107 6.051 5.76107 6.051 5.76107C6.05101 5.76107 6.05101 5.76107 6.05102 5.76107C6.05102 5.76107 6.05103 5.76107 6.05103 5.76107C6.05103 5.76107 6.05104 5.76107 6.05104 5.76107C6.05105 5.76107 6.05105 5.76107 6.05106 5.76107C6.05106 5.76107 6.05106 5.76107 6.05107 5.76107C6.05107 5.76107 6.05108 5.76107 6.05108 5.76107C6.05109 5.76107 6.05109 5.76107 6.0511 5.76107C6.0511 5.76107 6.0511 5.76107 6.05111 5.76107C6.05111 5.76107 6.05112 5.76107 6.05112 5.76107C6.05113 5.76107 6.05113 5.76107 6.05113 5.76107C6.05114 5.76107 6.05114 5.76107 6.05115 5.76107C6.05115 5.76107 6.05116 5.76107 6.05116 5.76107C6.05116 5.76107 6.05117 5.76107 6.05117 5.76107C6.05118 5.76107 6.05118 5.76107 6.05119 5.76107C6.05119 5.76107 6.0512 5.76107 6.0512 5.76107C6.0512 5.76107 6.05121 5.76107 6.05121 5.76107C6.05122 5.76107 6.05122 5.76107 6.05123 5.76107C6.05123 5.76107 6.05123 5.76107 6.05124 5.76107C6.05124 5.76107 6.05125 5.76107 6.05125 5.76107C6.05126 5.76107 6.05126 5.76107 6.05127 5.76107C6.05127 5.76107 6.05127 5.76107 6.05128 5.76107C6.05128 5.76107 6.05129 5.76107 6.05129 5.76107C6.0513 5.76107 6.0513 5.76107 6.0513 5.76107C6.05131 5.76107 6.05131 5.76107 6.05132 5.76107C6.05132 5.76107 6.05133 5.76107 6.05133 5.76107C6.05134 5.76107 6.05134 5.76107 6.05134 5.76107C6.05135 5.76107 6.05135 5.76107 6.05136 5.76107C6.05136 5.76107 6.05137 5.76107 6.05137 5.76107C6.05137 5.76107 6.05138 5.76107 6.05138 5.76107C6.05139 5.76107 6.05139 5.76107 6.0514 5.76107C6.0514 5.76107 6.05141 5.76107 6.05141 5.76107C6.05141 5.76107 6.05142 5.76107 6.05142 5.76107C6.05143 5.76107 6.05143 5.76107 6.05144 5.76107C6.05144 5.76107 6.05144 5.76107 6.05145 5.76107C6.05145 5.76107 6.05146 5.76107 6.05146 5.76107C6.05147 5.76107 6.05147 5.76107 6.05147 5.76107C6.05148 5.76107 6.05148 5.76107 6.05149 5.76107C6.05149 5.76107 6.0515 5.76107 6.0515 5.76107C6.05151 5.76107 6.05151 5.76107 6.05151 5.76107C6.05152 5.76107 6.05152 5.76107 6.05153 5.76107C6.05153 5.76107 6.05154 5.76107 6.05154 5.76107C6.05154 5.76107 6.05155 5.76107 6.05155 5.76107C6.05156 5.76107 6.05156 5.76107 6.05157 5.76107C6.05157 5.76107 6.05158 5.76107 6.05158 5.76107C6.05158 5.76107 6.05159 5.76107 6.05159 5.76107C6.0516 5.76107 6.0516 5.76107 6.05161 5.76107C6.05161 5.76107 6.05161 5.76107 6.05162 5.76107C6.05162 5.76107 6.05163 5.76107 6.05163 5.76107C6.05164 5.76107 6.05164 5.76107 6.05164 5.76107C6.05165 5.76107 6.05165 5.76107 6.05166 5.76107C6.05166 5.76107 6.05167 5.76107 6.05167 5.76107C6.05168 5.76107 6.05168 5.76107 6.05168 5.76107C6.05169 5.76107 6.05169 5.76107 6.0517 5.76107C6.0517 5.76107 6.05171 5.76107 6.05171 5.76107C6.05171 5.76107 6.05172 5.76107 6.05172 5.76107C6.05173 5.76107 6.05173 5.76107 6.05174 5.76107C6.05174 5.76107 6.05175 5.76107 6.05175 5.76107C6.05175 5.76107 6.05176 5.76107 6.05176 5.76107C6.05177 5.76107 6.05177 5.76107 6.05178 5.76107C6.05178 5.76107 6.05178 5.76107 6.05179 5.76107C6.05179 5.76107 6.0518 5.76107 6.0518 5.76107C6.05181 5.76107 6.05181 5.76107 6.05182 5.76107C6.05182 5.76107 6.05182 5.76107 6.05183 5.76107C6.05183 5.76107 6.05184 5.76107 6.05184 5.76107C6.05185 5.76107 6.05185 5.76107 6.05185 5.76107C6.05186 5.76107 6.05186 5.76107 6.05187 5.76107C6.05187 5.76107 6.05188 5.76107 6.05188 5.76107C6.05188 5.76107 6.05189 5.76107 6.05189 5.76107C6.0519 5.76107 6.0519 5.76107 6.05191 5.76107C6.05191 5.76107 6.05192 5.76107 6.05192 5.76107C6.05192 5.76107 6.05193 5.76107 6.05193 5.76107C6.05194 5.76107 6.05194 5.76107 6.05195 5.76107C6.05195 5.76107 6.05195 5.76107 6.05196 5.76107C6.05196 5.76107 6.05197 5.76107 6.05197 5.76107C6.05198 5.76107 6.05198 5.76107 6.05199 5.76107C6.05199 5.76107 6.05199 5.76107 6.052 5.76107C6.052 5.76107 6.05201 5.76107 6.05201 5.76107C6.05202 5.76107 6.05202 5.76107 6.05202 5.76107C6.05203 5.76107 6.05203 5.76107 6.05204 5.76107C6.05204 5.76107 6.05205 5.76107 6.05205 5.76107C6.05205 5.76107 6.05206 5.76107 6.05206 5.76107C6.05207 5.76107 6.05207 5.76107 6.05208 5.76107C6.05208 5.76107 6.05209 5.76107 6.05209 5.76107C6.05209 5.76107 6.0521 5.76107 6.0521 5.76107C6.05211 5.76107 6.05211 5.76107 6.05212 5.76107C6.05212 5.76107 6.05212 5.76107 6.05213 5.76107C6.05213 5.76107 6.05214 5.76107 6.05214 5.76107C6.05215 5.76107 6.05215 5.76107 6.05215 5.76107C6.05216 5.76107 6.05216 5.76107 6.05217 5.76107C6.05217 5.76107 6.05218 5.76107 6.05218 5.76107C6.05219 5.76107 6.05219 5.76107 6.05219 5.76107C6.0522 5.76107 6.0522 5.76107 6.05221 5.76107C6.05221 5.76107 6.05222 5.76107 6.05222 5.76107C6.05222 5.76107 6.05223 5.76107 6.05223 5.76107C6.05224 5.76107 6.05224 5.76107 6.05225 5.76107C6.05225 5.76107 6.05226 5.76107 6.05226 5.76107C6.05226 5.76107 6.05227 5.76107 6.05227 5.76107C6.05228 5.76107 6.05228 5.76107 6.05229 5.76107C6.05229 5.76107 6.05229 5.76107 6.0523 5.76107C6.0523 5.76107 6.05231 5.76107 6.05231 5.76107C6.05232 5.76107 6.05232 5.76107 6.05232 5.76107C6.05233 5.76107 6.05233 5.76107 6.05234 5.76107C6.05234 5.76107 6.05235 5.76107 6.05235 5.76107C6.05236 5.76107 6.05236 5.76107 6.05236 5.76107C6.05237 5.76107 6.05237 5.76107 6.05238 5.76107C6.05238 5.76107 6.05239 5.76107 6.05239 5.76107C6.05239 5.76107 6.0524 5.76107 6.0524 5.76107C6.05241 5.76107 6.05241 5.76107 6.05242 5.76107C6.05242 5.76107 6.05243 5.76107 6.05243 5.76107C6.05243 5.76107 6.05244 5.76107 6.05244 5.76107C6.05245 5.76107 6.05245 5.76107 6.05246 5.76107C6.05246 5.76107 6.05246 5.76107 6.05247 5.76107C6.05247 5.76107 6.05248 5.76107 6.05248 5.76107C6.05249 5.76107 6.05249 5.76107 6.05249 5.76107C6.0525 5.76107 6.0525 5.76107 6.05251 5.76107C6.05251 5.76107 6.05252 5.76107 6.05252 5.76107C6.05253 5.76107 6.05253 5.76107 6.05253 5.76107C6.05254 5.76107 6.05254 5.76107 6.05255 5.76107C6.05255 5.76107 6.05256 5.76107 6.05256 5.76107C6.05256 5.76107 6.05257 5.76107 6.05257 5.76107C6.05258 5.76107 6.05258 5.76107 6.05259 5.76107C6.05259 5.76107 6.0526 5.76107 6.0526 5.76107C6.0526 5.76107 6.05261 5.76107 6.05261 5.76107C6.05262 5.76107 6.05262 5.76107 6.05263 5.76107C6.05263 5.76107 6.05263 5.76107 6.05264 5.76107C6.05264 5.76107 6.05265 5.76107 6.05265 5.76107C6.05266 5.76107 6.05266 5.76107 6.05266 5.76107C6.05267 5.76107 6.05267 5.76107 6.05268 5.76107C6.05268 5.76107 6.05269 5.76107 6.05269 5.76107C6.0527 5.76107 6.0527 5.76107 6.0527 5.76107C6.05271 5.76107 6.05271 5.76107 6.05272 5.76107C6.05272 5.76107 6.05273 5.76107 6.05273 5.76107C6.05273 5.76107 6.05274 5.76107 6.05274 5.76107C6.05275 5.76107 6.05275 5.76107 6.05276 5.76107C6.05276 5.76107 6.05277 5.76107 6.05277 5.76107C6.05277 5.76107 6.05278 5.76107 6.05278 5.76107C6.05279 5.76107 6.05279 5.76107 6.0528 5.76107C6.0528 5.76107 6.0528 5.76107 6.05281 5.76107C6.05281 5.76107 6.05282 5.76107 6.05282 5.76107C6.05283 5.76107 6.05283 5.76107 6.05283 5.76107C6.05284 5.76107 6.05284 5.76107 6.05285 5.76107C6.05285 5.76107 6.05286 5.76107 6.05286 5.76107C6.05287 5.76107 6.05287 5.76107 6.05287 5.76107C6.05288 5.76107 6.05288 5.76107 6.05289 5.76107C6.05289 5.76107 6.0529 5.76107 6.0529 5.76107C6.0529 5.76107 6.05291 5.76107 6.05291 5.76107C6.05292 5.76107 6.05292 5.76107 6.05293 5.76107C6.05293 5.76107 6.05294 5.76107 6.05294 5.76107C6.05294 5.76107 6.05295 5.76107 6.05295 5.76107C6.05296 5.76107 6.05296 5.76107 6.05297 5.76107C6.05297 5.76107 6.05297 5.76107 6.05298 5.76107C6.05298 5.76107 6.05299 5.76107 6.05299 5.76107C6.053 5.76107 6.053 5.76107 6.053 5.76107C6.05301 5.76107 6.05301 5.76107 6.05302 5.76107C6.05302 5.76107 6.05303 5.76107 6.05303 5.76107C6.05304 5.76107 6.05304 5.76107 6.05304 5.76107C6.05305 5.76107 6.05305 5.76107 6.05306 5.76107C6.05306 5.76107 6.05307 5.76107 6.05307 5.76107C6.05307 5.76107 6.05308 5.76107 6.05308 5.76107C6.05309 5.76107 6.05309 5.76107 6.0531 5.76107C6.0531 5.76107 6.05311 5.76107 6.05311 5.76107C6.05311 5.76107 6.05312 5.76107 6.05312 5.76107C6.05313 5.76107 6.05313 5.76107 6.05314 5.76107C6.05314 5.76107 6.05314 5.76107 6.05315 5.76107C6.05315 5.76107 6.05316 5.76107 6.05316 5.76107C6.05317 5.76107 6.05317 5.76107 6.05318 5.76107C6.05318 5.76107 6.05318 5.76107 6.05319 5.76107C6.05319 5.76107 6.0532 5.76107 6.0532 5.76107C6.05321 5.76107 6.05321 5.76107 6.05321 5.76107C6.05322 5.76107 6.05322 5.76107 6.05323 5.76107C6.05323 5.76107 6.05324 5.76107 6.05324 5.76107C6.05324 5.76107 6.05325 5.76107 6.05325 5.76107C6.05326 5.76107 6.05326 5.76107 6.05327 5.76107C6.05327 5.76107 6.05328 5.76107 6.05328 5.76107C6.05328 5.76107 6.05329 5.76107 6.05329 5.76107C6.0533 5.76107 6.0533 5.76107 6.05331 5.76107C6.05331 5.76107 6.05331 5.76107 6.05332 5.76107C6.05332 5.76107 6.05333 5.76107 6.05333 5.76107C6.05334 5.76107 6.05334 5.76107 6.05335 5.76107C6.05335 5.76107 6.05335 5.76107 6.05336 5.76107C6.05336 5.76107 6.05337 5.76107 6.05337 5.76107C6.05338 5.76107 6.05338 5.76107 6.05338 5.76107C6.05339 5.76107 6.05339 5.76107 6.0534 5.76107C6.0534 5.76107 6.05341 5.76107 6.05341 5.76107C6.05342 5.76107 6.05342 5.76107 6.05342 5.76107C6.05343 5.76107 6.05343 5.76107 6.05344 5.76107C6.05344 5.76107 6.05345 5.76107 6.05345 5.76107C6.05345 5.76107 6.05346 5.76107 6.05346 5.76107C6.05347 5.76107 6.05347 5.76107 6.05348 5.76107C6.05348 5.76107 6.05349 5.76107 6.05349 5.76107C6.05349 5.76107 6.0535 5.76107 6.0535 5.76107C6.05351 5.76107 6.05351 5.76107 6.05352 5.76107C6.05352 5.76107 6.05352 5.76107 6.05353 5.76107C6.05353 5.76107 6.05354 5.76107 6.05354 5.76107C6.05355 5.76107 6.05355 5.76107 6.05356 5.76107C6.05356 5.76107 6.05356 5.76107 6.05357 5.76107C6.05357 5.76107 6.05358 5.76107 6.05358 5.76107C6.05359 5.76107 6.05359 5.76107 6.05359 5.76107C6.0536 5.76107 6.0536 5.76107 6.05361 5.76107C6.05361 5.76107 6.05362 5.76107 6.05362 5.76107C6.05363 5.76107 6.05363 5.76107 6.05363 5.76107C6.05364 5.76107 6.05364 5.76107 6.05365 5.76107C6.05365 5.76107 6.05366 5.76107 6.05366 5.76107C6.05366 5.76107 6.05367 5.76107 6.05367 5.76107C6.05368 5.76107 6.05368 5.76107 6.05369 5.76107C6.05369 5.76107 6.0537 5.76107 6.0537 5.76107C6.0537 5.76107 6.05371 5.76107 6.05371 5.76107C6.05372 5.76107 6.05372 5.76107 6.05373 5.76107C6.05373 5.76107 6.05373 5.76107 6.05374 5.76107C6.05374 5.76107 6.05375 5.76107 6.05375 5.76107C6.05376 5.76107 6.05376 5.76107 6.05377 5.76107C6.05377 5.76107 6.05377 5.76107 6.05378 5.76107C6.05378 5.76107 6.05379 5.76107 6.05379 5.76107C6.0538 5.76107 6.0538 5.76107 6.0538 5.76107C6.05381 5.76107 6.05381 5.76107 6.05382 5.76107C6.05382 5.76107 6.05383 5.76107 6.05383 5.76107C6.05384 5.76107 6.05384 5.76107 6.05384 5.76107C6.05385 5.76107 6.05385 5.76107 6.05386 5.76107C6.05386 5.76107 6.05387 5.76107 6.05387 5.76107C6.05387 5.76107 6.05388 5.76107 6.05388 5.76107C6.05389 5.76107 6.05389 5.76107 6.0539 5.76107C6.0539 5.76107 6.05391 5.76107 6.05391 5.76107C6.05391 5.76107 6.05392 5.76107 6.05392 5.76107V3.76107C6.05392 3.76107 6.05391 3.76107 6.05391 3.76107C6.05391 3.76107 6.0539 3.76107 6.0539 3.76107C6.05389 3.76107 6.05389 3.76107 6.05388 3.76107C6.05388 3.76107 6.05387 3.76107 6.05387 3.76107C6.05387 3.76107 6.05386 3.76107 6.05386 3.76107C6.05385 3.76107 6.05385 3.76107 6.05384 3.76107C6.05384 3.76107 6.05384 3.76107 6.05383 3.76107C6.05383 3.76107 6.05382 3.76107 6.05382 3.76107C6.05381 3.76107 6.05381 3.76107 6.0538 3.76107C6.0538 3.76107 6.0538 3.76107 6.05379 3.76107C6.05379 3.76107 6.05378 3.76107 6.05378 3.76107C6.05377 3.76107 6.05377 3.76107 6.05377 3.76107C6.05376 3.76107 6.05376 3.76107 6.05375 3.76107C6.05375 3.76107 6.05374 3.76107 6.05374 3.76107C6.05373 3.76107 6.05373 3.76107 6.05373 3.76107C6.05372 3.76107 6.05372 3.76107 6.05371 3.76107C6.05371 3.76107 6.0537 3.76107 6.0537 3.76107C6.0537 3.76107 6.05369 3.76107 6.05369 3.76107C6.05368 3.76107 6.05368 3.76107 6.05367 3.76107C6.05367 3.76107 6.05366 3.76107 6.05366 3.76107C6.05366 3.76107 6.05365 3.76107 6.05365 3.76107C6.05364 3.76107 6.05364 3.76107 6.05363 3.76107C6.05363 3.76107 6.05363 3.76107 6.05362 3.76107C6.05362 3.76107 6.05361 3.76107 6.05361 3.76107C6.0536 3.76107 6.0536 3.76107 6.05359 3.76107C6.05359 3.76107 6.05359 3.76107 6.05358 3.76107C6.05358 3.76107 6.05357 3.76107 6.05357 3.76107C6.05356 3.76107 6.05356 3.76107 6.05356 3.76107C6.05355 3.76107 6.05355 3.76107 6.05354 3.76107C6.05354 3.76107 6.05353 3.76107 6.05353 3.76107C6.05352 3.76107 6.05352 3.76107 6.05352 3.76107C6.05351 3.76107 6.05351 3.76107 6.0535 3.76107C6.0535 3.76107 6.05349 3.76107 6.05349 3.76107C6.05349 3.76107 6.05348 3.76107 6.05348 3.76107C6.05347 3.76107 6.05347 3.76107 6.05346 3.76107C6.05346 3.76107 6.05345 3.76107 6.05345 3.76107C6.05345 3.76107 6.05344 3.76107 6.05344 3.76107C6.05343 3.76107 6.05343 3.76107 6.05342 3.76107C6.05342 3.76107 6.05342 3.76107 6.05341 3.76107C6.05341 3.76107 6.0534 3.76107 6.0534 3.76107C6.05339 3.76107 6.05339 3.76107 6.05338 3.76107C6.05338 3.76107 6.05338 3.76107 6.05337 3.76107C6.05337 3.76107 6.05336 3.76107 6.05336 3.76107C6.05335 3.76107 6.05335 3.76107 6.05335 3.76107C6.05334 3.76107 6.05334 3.76107 6.05333 3.76107C6.05333 3.76107 6.05332 3.76107 6.05332 3.76107C6.05331 3.76107 6.05331 3.76107 6.05331 3.76107C6.0533 3.76107 6.0533 3.76107 6.05329 3.76107C6.05329 3.76107 6.05328 3.76107 6.05328 3.76107C6.05328 3.76107 6.05327 3.76107 6.05327 3.76107C6.05326 3.76107 6.05326 3.76107 6.05325 3.76107C6.05325 3.76107 6.05324 3.76107 6.05324 3.76107C6.05324 3.76107 6.05323 3.76107 6.05323 3.76107C6.05322 3.76107 6.05322 3.76107 6.05321 3.76107C6.05321 3.76107 6.05321 3.76107 6.0532 3.76107C6.0532 3.76107 6.05319 3.76107 6.05319 3.76107C6.05318 3.76107 6.05318 3.76107 6.05318 3.76107C6.05317 3.76107 6.05317 3.76107 6.05316 3.76107C6.05316 3.76107 6.05315 3.76107 6.05315 3.76107C6.05314 3.76107 6.05314 3.76107 6.05314 3.76107C6.05313 3.76107 6.05313 3.76107 6.05312 3.76107C6.05312 3.76107 6.05311 3.76107 6.05311 3.76107C6.05311 3.76107 6.0531 3.76107 6.0531 3.76107C6.05309 3.76107 6.05309 3.76107 6.05308 3.76107C6.05308 3.76107 6.05307 3.76107 6.05307 3.76107C6.05307 3.76107 6.05306 3.76107 6.05306 3.76107C6.05305 3.76107 6.05305 3.76107 6.05304 3.76107C6.05304 3.76107 6.05304 3.76107 6.05303 3.76107C6.05303 3.76107 6.05302 3.76107 6.05302 3.76107C6.05301 3.76107 6.05301 3.76107 6.053 3.76107C6.053 3.76107 6.053 3.76107 6.05299 3.76107C6.05299 3.76107 6.05298 3.76107 6.05298 3.76107C6.05297 3.76107 6.05297 3.76107 6.05297 3.76107C6.05296 3.76107 6.05296 3.76107 6.05295 3.76107C6.05295 3.76107 6.05294 3.76107 6.05294 3.76107C6.05294 3.76107 6.05293 3.76107 6.05293 3.76107C6.05292 3.76107 6.05292 3.76107 6.05291 3.76107C6.05291 3.76107 6.0529 3.76107 6.0529 3.76107C6.0529 3.76107 6.05289 3.76107 6.05289 3.76107C6.05288 3.76107 6.05288 3.76107 6.05287 3.76107C6.05287 3.76107 6.05287 3.76107 6.05286 3.76107C6.05286 3.76107 6.05285 3.76107 6.05285 3.76107C6.05284 3.76107 6.05284 3.76107 6.05283 3.76107C6.05283 3.76107 6.05283 3.76107 6.05282 3.76107C6.05282 3.76107 6.05281 3.76107 6.05281 3.76107C6.0528 3.76107 6.0528 3.76107 6.0528 3.76107C6.05279 3.76107 6.05279 3.76107 6.05278 3.76107C6.05278 3.76107 6.05277 3.76107 6.05277 3.76107C6.05277 3.76107 6.05276 3.76107 6.05276 3.76107C6.05275 3.76107 6.05275 3.76107 6.05274 3.76107C6.05274 3.76107 6.05273 3.76107 6.05273 3.76107C6.05273 3.76107 6.05272 3.76107 6.05272 3.76107C6.05271 3.76107 6.05271 3.76107 6.0527 3.76107C6.0527 3.76107 6.0527 3.76107 6.05269 3.76107C6.05269 3.76107 6.05268 3.76107 6.05268 3.76107C6.05267 3.76107 6.05267 3.76107 6.05266 3.76107C6.05266 3.76107 6.05266 3.76107 6.05265 3.76107C6.05265 3.76107 6.05264 3.76107 6.05264 3.76107C6.05263 3.76107 6.05263 3.76107 6.05263 3.76107C6.05262 3.76107 6.05262 3.76107 6.05261 3.76107C6.05261 3.76107 6.0526 3.76107 6.0526 3.76107C6.0526 3.76107 6.05259 3.76107 6.05259 3.76107C6.05258 3.76107 6.05258 3.76107 6.05257 3.76107C6.05257 3.76107 6.05256 3.76107 6.05256 3.76107C6.05256 3.76107 6.05255 3.76107 6.05255 3.76107C6.05254 3.76107 6.05254 3.76107 6.05253 3.76107C6.05253 3.76107 6.05253 3.76107 6.05252 3.76107C6.05252 3.76107 6.05251 3.76107 6.05251 3.76107C6.0525 3.76107 6.0525 3.76107 6.05249 3.76107C6.05249 3.76107 6.05249 3.76107 6.05248 3.76107C6.05248 3.76107 6.05247 3.76107 6.05247 3.76107C6.05246 3.76107 6.05246 3.76107 6.05246 3.76107C6.05245 3.76107 6.05245 3.76107 6.05244 3.76107C6.05244 3.76107 6.05243 3.76107 6.05243 3.76107C6.05243 3.76107 6.05242 3.76107 6.05242 3.76107C6.05241 3.76107 6.05241 3.76107 6.0524 3.76107C6.0524 3.76107 6.05239 3.76107 6.05239 3.76107C6.05239 3.76107 6.05238 3.76107 6.05238 3.76107C6.05237 3.76107 6.05237 3.76107 6.05236 3.76107C6.05236 3.76107 6.05236 3.76107 6.05235 3.76107C6.05235 3.76107 6.05234 3.76107 6.05234 3.76107C6.05233 3.76107 6.05233 3.76107 6.05232 3.76107C6.05232 3.76107 6.05232 3.76107 6.05231 3.76107C6.05231 3.76107 6.0523 3.76107 6.0523 3.76107C6.05229 3.76107 6.05229 3.76107 6.05229 3.76107C6.05228 3.76107 6.05228 3.76107 6.05227 3.76107C6.05227 3.76107 6.05226 3.76107 6.05226 3.76107C6.05226 3.76107 6.05225 3.76107 6.05225 3.76107C6.05224 3.76107 6.05224 3.76107 6.05223 3.76107C6.05223 3.76107 6.05222 3.76107 6.05222 3.76107C6.05222 3.76107 6.05221 3.76107 6.05221 3.76107C6.0522 3.76107 6.0522 3.76107 6.05219 3.76107C6.05219 3.76107 6.05219 3.76107 6.05218 3.76107C6.05218 3.76107 6.05217 3.76107 6.05217 3.76107C6.05216 3.76107 6.05216 3.76107 6.05215 3.76107C6.05215 3.76107 6.05215 3.76107 6.05214 3.76107C6.05214 3.76107 6.05213 3.76107 6.05213 3.76107C6.05212 3.76107 6.05212 3.76107 6.05212 3.76107C6.05211 3.76107 6.05211 3.76107 6.0521 3.76107C6.0521 3.76107 6.05209 3.76107 6.05209 3.76107C6.05209 3.76107 6.05208 3.76107 6.05208 3.76107C6.05207 3.76107 6.05207 3.76107 6.05206 3.76107C6.05206 3.76107 6.05205 3.76107 6.05205 3.76107C6.05205 3.76107 6.05204 3.76107 6.05204 3.76107C6.05203 3.76107 6.05203 3.76107 6.05202 3.76107C6.05202 3.76107 6.05202 3.76107 6.05201 3.76107C6.05201 3.76107 6.052 3.76107 6.052 3.76107C6.05199 3.76107 6.05199 3.76107 6.05199 3.76107C6.05198 3.76107 6.05198 3.76107 6.05197 3.76107C6.05197 3.76107 6.05196 3.76107 6.05196 3.76107C6.05195 3.76107 6.05195 3.76107 6.05195 3.76107C6.05194 3.76107 6.05194 3.76107 6.05193 3.76107C6.05193 3.76107 6.05192 3.76107 6.05192 3.76107C6.05192 3.76107 6.05191 3.76107 6.05191 3.76107C6.0519 3.76107 6.0519 3.76107 6.05189 3.76107C6.05189 3.76107 6.05188 3.76107 6.05188 3.76107C6.05188 3.76107 6.05187 3.76107 6.05187 3.76107C6.05186 3.76107 6.05186 3.76107 6.05185 3.76107C6.05185 3.76107 6.05185 3.76107 6.05184 3.76107C6.05184 3.76107 6.05183 3.76107 6.05183 3.76107C6.05182 3.76107 6.05182 3.76107 6.05182 3.76107C6.05181 3.76107 6.05181 3.76107 6.0518 3.76107C6.0518 3.76107 6.05179 3.76107 6.05179 3.76107C6.05178 3.76107 6.05178 3.76107 6.05178 3.76107C6.05177 3.76107 6.05177 3.76107 6.05176 3.76107C6.05176 3.76107 6.05175 3.76107 6.05175 3.76107C6.05175 3.76107 6.05174 3.76107 6.05174 3.76107C6.05173 3.76107 6.05173 3.76107 6.05172 3.76107C6.05172 3.76107 6.05171 3.76107 6.05171 3.76107C6.05171 3.76107 6.0517 3.76107 6.0517 3.76107C6.05169 3.76107 6.05169 3.76107 6.05168 3.76107C6.05168 3.76107 6.05168 3.76107 6.05167 3.76107C6.05167 3.76107 6.05166 3.76107 6.05166 3.76107C6.05165 3.76107 6.05165 3.76107 6.05164 3.76107C6.05164 3.76107 6.05164 3.76107 6.05163 3.76107C6.05163 3.76107 6.05162 3.76107 6.05162 3.76107C6.05161 3.76107 6.05161 3.76107 6.05161 3.76107C6.0516 3.76107 6.0516 3.76107 6.05159 3.76107C6.05159 3.76107 6.05158 3.76107 6.05158 3.76107C6.05158 3.76107 6.05157 3.76107 6.05157 3.76107C6.05156 3.76107 6.05156 3.76107 6.05155 3.76107C6.05155 3.76107 6.05154 3.76107 6.05154 3.76107C6.05154 3.76107 6.05153 3.76107 6.05153 3.76107C6.05152 3.76107 6.05152 3.76107 6.05151 3.76107C6.05151 3.76107 6.05151 3.76107 6.0515 3.76107C6.0515 3.76107 6.05149 3.76107 6.05149 3.76107C6.05148 3.76107 6.05148 3.76107 6.05147 3.76107C6.05147 3.76107 6.05147 3.76107 6.05146 3.76107C6.05146 3.76107 6.05145 3.76107 6.05145 3.76107C6.05144 3.76107 6.05144 3.76107 6.05144 3.76107C6.05143 3.76107 6.05143 3.76107 6.05142 3.76107C6.05142 3.76107 6.05141 3.76107 6.05141 3.76107C6.05141 3.76107 6.0514 3.76107 6.0514 3.76107C6.05139 3.76107 6.05139 3.76107 6.05138 3.76107C6.05138 3.76107 6.05137 3.76107 6.05137 3.76107C6.05137 3.76107 6.05136 3.76107 6.05136 3.76107C6.05135 3.76107 6.05135 3.76107 6.05134 3.76107C6.05134 3.76107 6.05134 3.76107 6.05133 3.76107C6.05133 3.76107 6.05132 3.76107 6.05132 3.76107C6.05131 3.76107 6.05131 3.76107 6.0513 3.76107C6.0513 3.76107 6.0513 3.76107 6.05129 3.76107C6.05129 3.76107 6.05128 3.76107 6.05128 3.76107C6.05127 3.76107 6.05127 3.76107 6.05127 3.76107C6.05126 3.76107 6.05126 3.76107 6.05125 3.76107C6.05125 3.76107 6.05124 3.76107 6.05124 3.76107C6.05123 3.76107 6.05123 3.76107 6.05123 3.76107C6.05122 3.76107 6.05122 3.76107 6.05121 3.76107C6.05121 3.76107 6.0512 3.76107 6.0512 3.76107C6.0512 3.76107 6.05119 3.76107 6.05119 3.76107C6.05118 3.76107 6.05118 3.76107 6.05117 3.76107C6.05117 3.76107 6.05116 3.76107 6.05116 3.76107C6.05116 3.76107 6.05115 3.76107 6.05115 3.76107C6.05114 3.76107 6.05114 3.76107 6.05113 3.76107C6.05113 3.76107 6.05113 3.76107 6.05112 3.76107C6.05112 3.76107 6.05111 3.76107 6.05111 3.76107C6.0511 3.76107 6.0511 3.76107 6.0511 3.76107C6.05109 3.76107 6.05109 3.76107 6.05108 3.76107C6.05108 3.76107 6.05107 3.76107 6.05107 3.76107C6.05106 3.76107 6.05106 3.76107 6.05106 3.76107C6.05105 3.76107 6.05105 3.76107 6.05104 3.76107C6.05104 3.76107 6.05103 3.76107 6.05103 3.76107C6.05103 3.76107 6.05102 3.76107 6.05102 3.76107C6.05101 3.76107 6.05101 3.76107 6.051 3.76107C6.051 3.76107 6.05099 3.76107 6.05099 3.76107C6.05099 3.76107 6.05098 3.76107 6.05098 3.76107C6.05097 3.76107 6.05097 3.76107 6.05096 3.76107C6.05096 3.76107 6.05096 3.76107 6.05095 3.76107C6.05095 3.76107 6.05094 3.76107 6.05094 3.76107C6.05093 3.76107 6.05093 3.76107 6.05092 3.76107C6.05092 3.76107 6.05092 3.76107 6.05091 3.76107C6.05091 3.76107 6.0509 3.76107 6.0509 3.76107C6.05089 3.76107 6.05089 3.76107 6.05089 3.76107C6.05088 3.76107 6.05088 3.76107 6.05087 3.76107C6.05087 3.76107 6.05086 3.76107 6.05086 3.76107C6.05085 3.76107 6.05085 3.76107 6.05085 3.76107C6.05084 3.76107 6.05084 3.76107 6.05083 3.76107C6.05083 3.76107 6.05082 3.76107 6.05082 3.76107C6.05082 3.76107 6.05081 3.76107 6.05081 3.76107C6.0508 3.76107 6.0508 3.76107 6.05079 3.76107C6.05079 3.76107 6.05078 3.76107 6.05078 3.76107C6.05078 3.76107 6.05077 3.76107 6.05077 3.76107C6.05076 3.76107 6.05076 3.76107 6.05075 3.76107C6.05075 3.76107 6.05075 3.76107 6.05074 3.76107C6.05074 3.76107 6.05073 3.76107 6.05073 3.76107C6.05072 3.76107 6.05072 3.76107 6.05071 3.76107C6.05071 3.76107 6.05071 3.76107 6.0507 3.76107C6.0507 3.76107 6.05069 3.76107 6.05069 3.76107C6.05068 3.76107 6.05068 3.76107 6.05068 3.76107C6.05067 3.76107 6.05067 3.76107 6.05066 3.76107C6.05066 3.76107 6.05065 3.76107 6.05065 3.76107C6.05064 3.76107 6.05064 3.76107 6.05064 3.76107C6.05063 3.76107 6.05063 3.76107 6.05062 3.76107C6.05062 3.76107 6.05061 3.76107 6.05061 3.76107C6.05061 3.76107 6.0506 3.76107 6.0506 3.76107C6.05059 3.76107 6.05059 3.76107 6.05058 3.76107C6.05058 3.76107 6.05057 3.76107 6.05057 3.76107C6.05057 3.76107 6.05056 3.76107 6.05056 3.76107C6.05055 3.76107 6.05055 3.76107 6.05054 3.76107C6.05054 3.76107 6.05054 3.76107 6.05053 3.76107C6.05053 3.76107 6.05052 3.76107 6.05052 3.76107C6.05051 3.76107 6.05051 3.76107 6.0505 3.76107C6.0505 3.76107 6.0505 3.76107 6.05049 3.76107C6.05049 3.76107 6.05048 3.76107 6.05048 3.76107C6.05047 3.76107 6.05047 3.76107 6.05046 3.76107C6.05046 3.76107 6.05046 3.76107 6.05045 3.76107C6.05045 3.76107 6.05044 3.76107 6.05044 3.76107C6.05043 3.76107 6.05043 3.76107 6.05043 3.76107C6.05042 3.76107 6.05042 3.76107 6.05041 3.76107C6.05041 3.76107 6.0504 3.76107 6.0504 3.76107C6.05039 3.76107 6.05039 3.76107 6.05039 3.76107C6.05038 3.76107 6.05038 3.76107 6.05037 3.76107C6.05037 3.76107 6.05036 3.76107 6.05036 3.76107C6.05036 3.76107 6.05035 3.76107 6.05035 3.76107C6.05034 3.76107 6.05034 3.76107 6.05033 3.76107C6.05033 3.76107 6.05032 3.76107 6.05032 3.76107C6.05032 3.76107 6.05031 3.76107 6.05031 3.76107C6.0503 3.76107 6.0503 3.76107 6.05029 3.76107C6.05029 3.76107 6.05029 3.76107 6.05028 3.76107C6.05028 3.76107 6.05027 3.76107 6.05027 3.76107C6.05026 3.76107 6.05026 3.76107 6.05025 3.76107C6.05025 3.76107 6.05025 3.76107 6.05024 3.76107C6.05024 3.76107 6.05023 3.76107 6.05023 3.76107C6.05022 3.76107 6.05022 3.76107 6.05021 3.76107C6.05021 3.76107 6.05021 3.76107 6.0502 3.76107C6.0502 3.76107 6.05019 3.76107 6.05019 3.76107C6.05018 3.76107 6.05018 3.76107 6.05018 3.76107C6.05017 3.76107 6.05017 3.76107 6.05016 3.76107C6.05016 3.76107 6.05015 3.76107 6.05015 3.76107C6.05014 3.76107 6.05014 3.76107 6.05014 3.76107C6.05013 3.76107 6.05013 3.76107 6.05012 3.76107C6.05012 3.76107 6.05011 3.76107 6.05011 3.76107C6.0501 3.76107 6.0501 3.76107 6.0501 3.76107C6.05009 3.76107 6.05009 3.76107 6.05008 3.76107C6.05008 3.76107 6.05007 3.76107 6.05007 3.76107C6.05007 3.76107 6.05006 3.76107 6.05006 3.76107C6.05005 3.76107 6.05005 3.76107 6.05004 3.76107C6.05004 3.76107 6.05003 3.76107 6.05003 3.76107C6.05003 3.76107 6.05002 3.76107 6.05002 3.76107C6.05001 3.76107 6.05001 3.76107 6.05 3.76107C6.05 3.76107 6.04999 3.76107 6.04999 3.76107C6.04999 3.76107 6.04998 3.76107 6.04998 3.76107C6.04997 3.76107 6.04997 3.76107 6.04996 3.76107C6.04996 3.76107 6.04996 3.76107 6.04995 3.76107C6.04995 3.76107 6.04994 3.76107 6.04994 3.76107C6.04993 3.76107 6.04993 3.76107 6.04992 3.76107C6.04992 3.76107 6.04992 3.76107 6.04991 3.76107C6.04991 3.76107 6.0499 3.76107 6.0499 3.76107C6.04989 3.76107 6.04989 3.76107 6.04988 3.76107C6.04988 3.76107 6.04988 3.76107 6.04987 3.76107C6.04987 3.76107 6.04986 3.76107 6.04986 3.76107C6.04985 3.76107 6.04985 3.76107 6.04985 3.76107C6.04984 3.76107 6.04984 3.76107 6.04983 3.76107C6.04983 3.76107 6.04982 3.76107 6.04982 3.76107C6.04981 3.76107 6.04981 3.76107 6.04981 3.76107C6.0498 3.76107 6.0498 3.76107 6.04979 3.76107C6.04979 3.76107 6.04978 3.76107 6.04978 3.76107C6.04977 3.76107 6.04977 3.76107 6.04977 3.76107C6.04976 3.76107 6.04976 3.76107 6.04975 3.76107C6.04975 3.76107 6.04974 3.76107 6.04974 3.76107C6.04973 3.76107 6.04973 3.76107 6.04973 3.76107C6.04972 3.76107 6.04972 3.76107 6.04971 3.76107C6.04971 3.76107 6.0497 3.76107 6.0497 3.76107C6.0497 3.76107 6.04969 3.76107 6.04969 3.76107C6.04968 3.76107 6.04968 3.76107 6.04967 3.76107C6.04967 3.76107 6.04966 3.76107 6.04966 3.76107C6.04966 3.76107 6.04965 3.76107 6.04965 3.76107C6.04964 3.76107 6.04964 3.76107 6.04963 3.76107C6.04963 3.76107 6.04962 3.76107 6.04962 3.76107C6.04962 3.76107 6.04961 3.76107 6.04961 3.76107C6.0496 3.76107 6.0496 3.76107 6.04959 3.76107C6.04959 3.76107 6.04958 3.76107 6.04958 3.76107C6.04958 3.76107 6.04957 3.76107 6.04957 3.76107C6.04956 3.76107 6.04956 3.76107 6.04955 3.76107C6.04955 3.76107 6.04955 3.76107 6.04954 3.76107C6.04954 3.76107 6.04953 3.76107 6.04953 3.76107C6.04952 3.76107 6.04952 3.76107 6.04951 3.76107C6.04951 3.76107 6.04951 3.76107 6.0495 3.76107C6.0495 3.76107 6.04949 3.76107 6.04949 3.76107C6.04948 3.76107 6.04948 3.76107 6.04947 3.76107C6.04947 3.76107 6.04947 3.76107 6.04946 3.76107C6.04946 3.76107 6.04945 3.76107 6.04945 3.76107C6.04944 3.76107 6.04944 3.76107 6.04943 3.76107C6.04943 3.76107 6.04943 3.76107 6.04942 3.76107C6.04942 3.76107 6.04941 3.76107 6.04941 3.76107C6.0494 3.76107 6.0494 3.76107 6.04939 3.76107C6.04939 3.76107 6.04939 3.76107 6.04938 3.76107C6.04938 3.76107 6.04937 3.76107 6.04937 3.76107C6.04936 3.76107 6.04936 3.76107 6.04935 3.76107C6.04935 3.76107 6.04935 3.76107 6.04934 3.76107C6.04934 3.76107 6.04933 3.76107 6.04933 3.76107C6.04932 3.76107 6.04932 3.76107 6.04931 3.76107C6.04931 3.76107 6.04931 3.76107 6.0493 3.76107C6.0493 3.76107 6.04929 3.76107 6.04929 3.76107C6.04928 3.76107 6.04928 3.76107 6.04928 3.76107C6.04927 3.76107 6.04927 3.76107 6.04926 3.76107C6.04926 3.76107 6.04925 3.76107 6.04925 3.76107C6.04924 3.76107 6.04924 3.76107 6.04924 3.76107C6.04923 3.76107 6.04923 3.76107 6.04922 3.76107C6.04922 3.76107 6.04921 3.76107 6.04921 3.76107C6.0492 3.76107 6.0492 3.76107 6.0492 3.76107C6.04919 3.76107 6.04919 3.76107 6.04918 3.76107C6.04918 3.76107 6.04917 3.76107 6.04917 3.76107C6.04916 3.76107 6.04916 3.76107 6.04916 3.76107C6.04915 3.76107 6.04915 3.76107 6.04914 3.76107C6.04914 3.76107 6.04913 3.76107 6.04913 3.76107C6.04912 3.76107 6.04912 3.76107 6.04912 3.76107C6.04911 3.76107 6.04911 3.76107 6.0491 3.76107C6.0491 3.76107 6.04909 3.76107 6.04909 3.76107C6.04908 3.76107 6.04908 3.76107 6.04908 3.76107C6.04907 3.76107 6.04907 3.76107 6.04906 3.76107C6.04906 3.76107 6.04905 3.76107 6.04905 3.76107C6.04904 3.76107 6.04904 3.76107 6.04904 3.76107C6.04903 3.76107 6.04903 3.76107 6.04902 3.76107C6.04902 3.76107 6.04901 3.76107 6.04901 3.76107C6.049 3.76107 6.049 3.76107 6.049 3.76107C6.04899 3.76107 6.04899 3.76107 6.04898 3.76107C6.04898 3.76107 6.04897 3.76107 6.04897 3.76107C6.04896 3.76107 6.04896 3.76107 6.04896 3.76107C6.04895 3.76107 6.04895 3.76107 6.04894 3.76107C6.04894 3.76107 6.04893 3.76107 6.04893 3.76107C6.04892 3.76107 6.04892 3.76107 6.04892 3.76107C6.04891 3.76107 6.04891 3.76107 6.0489 3.76107C6.0489 3.76107 6.04889 3.76107 6.04889 3.76107C6.04888 3.76107 6.04888 3.76107 6.04888 3.76107C6.04887 3.76107 6.04887 3.76107 6.04886 3.76107C6.04886 3.76107 6.04885 3.76107 6.04885 3.76107C6.04884 3.76107 6.04884 3.76107 6.04884 3.76107C6.04883 3.76107 6.04883 3.76107 6.04882 3.76107C6.04882 3.76107 6.04881 3.76107 6.04881 3.76107C6.0488 3.76107 6.0488 3.76107 6.04879 3.76107C6.04879 3.76107 6.04879 3.76107 6.04878 3.76107C6.04878 3.76107 6.04877 3.76107 6.04877 3.76107C6.04876 3.76107 6.04876 3.76107 6.04875 3.76107C6.04875 3.76107 6.04875 3.76107 6.04874 3.76107C6.04874 3.76107 6.04873 3.76107 6.04873 3.76107C6.04872 3.76107 6.04872 3.76107 6.04871 3.76107C6.04871 3.76107 6.04871 3.76107 6.0487 3.76107C6.0487 3.76107 6.04869 3.76107 6.04869 3.76107C6.04868 3.76107 6.04868 3.76107 6.04867 3.76107C6.04867 3.76107 6.04867 3.76107 6.04866 3.76107C6.04866 3.76107 6.04865 3.76107 6.04865 3.76107C6.04864 3.76107 6.04864 3.76107 6.04863 3.76107C6.04863 3.76107 6.04863 3.76107 6.04862 3.76107C6.04862 3.76107 6.04861 3.76107 6.04861 3.76107C6.0486 3.76107 6.0486 3.76107 6.04859 3.76107C6.04859 3.76107 6.04858 3.76107 6.04858 3.76107C6.04858 3.76107 6.04857 3.76107 6.04857 3.76107C6.04856 3.76107 6.04856 3.76107 6.04855 3.76107C6.04855 3.76107 6.04854 3.76107 6.04854 3.76107C6.04854 3.76107 6.04853 3.76107 6.04853 3.76107C6.04852 3.76107 6.04852 3.76107 6.04851 3.76107C6.04851 3.76107 6.0485 3.76107 6.0485 3.76107C6.0485 3.76107 6.04849 3.76107 6.04849 3.76107C6.04848 3.76107 6.04848 3.76107 6.04847 3.76107C6.04847 3.76107 6.04846 3.76107 6.04846 3.76107C6.04846 3.76107 6.04845 3.76107 6.04845 3.76107C6.04844 3.76107 6.04844 3.76107 6.04843 3.76107C6.04843 3.76107 6.04842 3.76107 6.04842 3.76107C6.04841 3.76107 6.04841 3.76107 6.04841 3.76107C6.0484 3.76107 6.0484 3.76107 6.04839 3.76107C6.04839 3.76107 6.04838 3.76107 6.04838 3.76107C6.04837 3.76107 6.04837 3.76107 6.04837 3.76107C6.04836 3.76107 6.04836 3.76107 6.04835 3.76107C6.04835 3.76107 6.04834 3.76107 6.04834 3.76107C6.04833 3.76107 6.04833 3.76107 6.04833 3.76107C6.04832 3.76107 6.04832 3.76107 6.04831 3.76107C6.04831 3.76107 6.0483 3.76107 6.0483 3.76107C6.04829 3.76107 6.04829 3.76107 6.04828 3.76107C6.04828 3.76107 6.04828 3.76107 6.04827 3.76107C6.04827 3.76107 6.04826 3.76107 6.04826 3.76107C6.04825 3.76107 6.04825 3.76107 6.04824 3.76107C6.04824 3.76107 6.04824 3.76107 6.04823 3.76107C6.04823 3.76107 6.04822 3.76107 6.04822 3.76107C6.04821 3.76107 6.04821 3.76107 6.0482 3.76107C6.0482 3.76107 6.04819 3.76107 6.04819 3.76107C6.04819 3.76107 6.04818 3.76107 6.04818 3.76107C6.04817 3.76107 6.04817 3.76107 6.04816 3.76107C6.04816 3.76107 6.04815 3.76107 6.04815 3.76107C6.04815 3.76107 6.04814 3.76107 6.04814 3.76107C6.04813 3.76107 6.04813 3.76107 6.04812 3.76107C6.04812 3.76107 6.04811 3.76107 6.04811 3.76107C6.0481 3.76107 6.0481 3.76107 6.0481 3.76107C6.04809 3.76107 6.04809 3.76107 6.04808 3.76107C6.04808 3.76107 6.04807 3.76107 6.04807 3.76107C6.04806 3.76107 6.04806 3.76107 6.04806 3.76107C6.04805 3.76107 6.04805 3.76107 6.04804 3.76107C6.04804 3.76107 6.04803 3.76107 6.04803 3.76107C6.04802 3.76107 6.04802 3.76107 6.04801 3.76107C6.04801 3.76107 6.04801 3.76107 6.048 3.76107C6.048 3.76107 6.04799 3.76107 6.04799 3.76107C6.04798 3.76107 6.04798 3.76107 6.04797 3.76107C6.04797 3.76107 6.04797 3.76107 6.04796 3.76107C6.04796 3.76107 6.04795 3.76107 6.04795 3.76107C6.04794 3.76107 6.04794 3.76107 6.04793 3.76107C6.04793 3.76107 6.04792 3.76107 6.04792 3.76107C6.04792 3.76107 6.04791 3.76107 6.04791 3.76107C6.0479 3.76107 6.0479 3.76107 6.04789 3.76107C6.04789 3.76107 6.04788 3.76107 6.04788 3.76107C6.04787 3.76107 6.04787 3.76107 6.04787 3.76107C6.04786 3.76107 6.04786 3.76107 6.04785 3.76107C6.04785 3.76107 6.04784 3.76107 6.04784 3.76107C6.04783 3.76107 6.04783 3.76107 6.04783 3.76107C6.04782 3.76107 6.04782 3.76107 6.04781 3.76107C6.04781 3.76107 6.0478 3.76107 6.0478 3.76107C6.04779 3.76107 6.04779 3.76107 6.04778 3.76107C6.04778 3.76107 6.04778 3.76107 6.04777 3.76107C6.04777 3.76107 6.04776 3.76107 6.04776 3.76107C6.04775 3.76107 6.04775 3.76107 6.04774 3.76107C6.04774 3.76107 6.04773 3.76107 6.04773 3.76107C6.04773 3.76107 6.04772 3.76107 6.04772 3.76107C6.04771 3.76107 6.04771 3.76107 6.0477 3.76107C6.0477 3.76107 6.04769 3.76107 6.04769 3.76107C6.04768 3.76107 6.04768 3.76107 6.04768 3.76107C6.04767 3.76107 6.04767 3.76107 6.04766 3.76107C6.04766 3.76107 6.04765 3.76107 6.04765 3.76107C6.04764 3.76107 6.04764 3.76107 6.04763 3.76107C6.04763 3.76107 6.04763 3.76107 6.04762 3.76107C6.04762 3.76107 6.04761 3.76107 6.04761 3.76107C6.0476 3.76107 6.0476 3.76107 6.04759 3.76107C6.04759 3.76107 6.04758 3.76107 6.04758 3.76107C6.04758 3.76107 6.04757 3.76107 6.04757 3.76107C6.04756 3.76107 6.04756 3.76107 6.04755 3.76107C6.04755 3.76107 6.04754 3.76107 6.04754 3.76107C6.04753 3.76107 6.04753 3.76107 6.04753 3.76107C6.04752 3.76107 6.04752 3.76107 6.04751 3.76107C6.04751 3.76107 6.0475 3.76107 6.0475 3.76107C6.04749 3.76107 6.04749 3.76107 6.04748 3.76107C6.04748 3.76107 6.04748 3.76107 6.04747 3.76107C6.04747 3.76107 6.04746 3.76107 6.04746 3.76107C6.04745 3.76107 6.04745 3.76107 6.04744 3.76107C6.04744 3.76107 6.04743 3.76107 6.04743 3.76107C6.04743 3.76107 6.04742 3.76107 6.04742 3.76107C6.04741 3.76107 6.04741 3.76107 6.0474 3.76107C6.0474 3.76107 6.04739 3.76107 6.04739 3.76107C6.04738 3.76107 6.04738 3.76107 6.04738 3.76107C6.04737 3.76107 6.04737 3.76107 6.04736 3.76107C6.04736 3.76107 6.04735 3.76107 6.04735 3.76107C6.04734 3.76107 6.04734 3.76107 6.04733 3.76107C6.04733 3.76107 6.04733 3.76107 6.04732 3.76107C6.04732 3.76107 6.04731 3.76107 6.04731 3.76107C6.0473 3.76107 6.0473 3.76107 6.04729 3.76107C6.04729 3.76107 6.04728 3.76107 6.04728 3.76107C6.04728 3.76107 6.04727 3.76107 6.04727 3.76107C6.04726 3.76107 6.04726 3.76107 6.04725 3.76107C6.04725 3.76107 6.04724 3.76107 6.04724 3.76107C6.04723 3.76107 6.04723 3.76107 6.04723 3.76107C6.04722 3.76107 6.04722 3.76107 6.04721 3.76107C6.04721 3.76107 6.0472 3.76107 6.0472 3.76107C6.04719 3.76107 6.04719 3.76107 6.04718 3.76107C6.04718 3.76107 6.04717 3.76107 6.04717 3.76107C6.04717 3.76107 6.04716 3.76107 6.04716 3.76107C6.04715 3.76107 6.04715 3.76107 6.04714 3.76107V5.76107ZM6.06134 5.76104C6.77518 5.75575 7.43338 5.34733 7.77173 4.74287L6.02652 3.766C6.0296 3.76051 6.03155 3.75873 6.03092 3.75937C6.03023 3.76007 6.02853 3.76155 6.02623 3.76293C6.02393 3.76432 6.02331 3.76424 6.02551 3.7636C6.02782 3.76292 6.03481 3.76118 6.0465 3.7611L6.06134 5.76104ZM6.89912 3.25443H6.89808V5.25443H6.89912V3.25443ZM7.83268 3.89875C7.7794 3.75873 7.78216 3.69192 7.78873 3.65563L5.82077 3.29906C5.73033 3.7982 5.82452 4.24502 5.96347 4.61011L7.83268 3.89875ZM6.04024 2.83274C6.01868 2.8583 6.00053 2.87611 5.98695 2.88783C5.9734 2.89952 5.9662 2.90361 5.9663 2.90356C5.9667 2.90333 5.97476 2.89887 5.99018 2.89455C6.00614 2.89009 6.02556 2.88703 6.04634 2.88703V4.88703C6.74143 4.88703 7.25368 4.49624 7.56927 4.12195L6.04024 2.83274ZM6.04634 2.88703C6.07091 2.88703 6.0916 2.89052 6.10681 2.89466C6.12164 2.8987 6.1287 2.90265 6.12803 2.90228C6.12525 2.90076 6.09542 2.88305 6.04903 2.82841L4.52435 4.12276C4.86706 4.52646 5.38819 4.88703 6.04634 4.88703V2.88703ZM4.29655 3.61563C4.30439 3.67106 4.29927 3.79555 4.24095 4.00658L6.16871 4.53925C6.25787 4.21661 6.34039 3.78484 6.27684 3.33554L4.29655 3.61563ZM4.34323 4.78049C4.68979 5.36878 5.34305 5.76107 6.04714 5.76107V3.76107C6.0585 3.76107 6.06531 3.76268 6.06758 3.76332C6.06974 3.76392 6.06916 3.76401 6.06692 3.76271C6.06468 3.7614 6.06297 3.75998 6.06225 3.75927C6.06157 3.7586 6.06342 3.7602 6.06644 3.76534L4.34323 4.78049Z" fill="#22372D" mask="url(#path-14-inside-4_886_903)"/>
<mask id="path-16-inside-5_886_903" fill="white">
<path d="M3.80189 20.8257L3.7646 21.2689C3.74112 21.5481 3.95289 21.793 4.2376 21.8161C4.5223 21.8391 4.77212 21.6314 4.7956 21.3522L4.83079 20.9335C4.76783 20.9373 4.70477 20.9398 4.64155 20.9398C4.35839 20.9398 4.07463 20.9004 3.80189 20.8257Z"/>
</mask>
<path d="M3.80189 20.8257L3.7646 21.2689C3.74112 21.5481 3.95289 21.793 4.2376 21.8161C4.5223 21.8391 4.77212 21.6314 4.7956 21.3522L4.83079 20.9335C4.76783 20.9373 4.70477 20.9398 4.64155 20.9398C4.35839 20.9398 4.07463 20.9004 3.80189 20.8257Z" fill="#22372D"/>
<path d="M3.80189 20.8257L4.06621 19.8612L2.90625 19.5433L2.80541 20.7418L3.80189 20.8257ZM3.7646 21.2689L2.76812 21.185L2.76811 21.1851L3.7646 21.2689ZM4.7956 21.3522L5.79208 21.436L5.79208 21.436L4.7956 21.3522ZM4.83079 20.9335L5.82728 21.0172L5.92409 19.8654L4.77034 19.9353L4.83079 20.9335ZM2.80541 20.7418L2.76812 21.185L4.76107 21.3527L4.79836 20.9095L2.80541 20.7418ZM2.76811 21.1851C2.69672 22.034 3.33888 22.7467 4.15698 22.8128L4.31821 20.8193C4.56689 20.8394 4.78551 21.0621 4.76108 21.3527L2.76811 21.1851ZM4.15698 22.8128C4.97292 22.8788 5.72092 22.2822 5.79208 21.436L3.79911 21.2684C3.82331 20.9807 4.07169 20.7994 4.31821 20.8193L4.15698 22.8128ZM5.79208 21.436L5.82728 21.0172L3.83431 20.8497L3.79911 21.2685L5.79208 21.436ZM4.77034 19.9353C4.72088 19.9383 4.67891 19.9398 4.64155 19.9398V21.9398C4.73062 21.9398 4.81477 21.9363 4.89125 21.9317L4.77034 19.9353ZM4.64155 19.9398C4.45038 19.9398 4.25546 19.9131 4.06621 19.8612L3.53756 21.7901C3.8938 21.8878 4.2664 21.9398 4.64155 21.9398V19.9398Z" fill="#22372D" mask="url(#path-16-inside-5_886_903)"/>
<mask id="path-18-inside-6_886_903" fill="white">
<path d="M6.73059 21.0137V21.4722C6.73059 21.7393 6.95134 21.9558 7.22363 21.9558C7.49598 21.9558 7.71668 21.7393 7.71668 21.4722V21.0138C7.55565 21.046 7.39194 21.064 7.22787 21.064C7.06096 21.064 6.89421 21.0466 6.73059 21.0137Z"/>
</mask>
<path d="M6.73059 21.0137V21.4722C6.73059 21.7393 6.95134 21.9558 7.22363 21.9558C7.49598 21.9558 7.71668 21.7393 7.71668 21.4722V21.0138C7.55565 21.046 7.39194 21.064 7.22787 21.064C7.06096 21.064 6.89421 21.0466 6.73059 21.0137Z" fill="#22372D"/>
<path d="M6.73059 21.0137L6.92774 20.0333L5.73059 19.7926V21.0137H6.73059ZM7.71668 21.0138H8.71668V19.7935L7.5202 20.0333L7.71668 21.0138ZM5.73059 21.0137V21.4722H7.73059V21.0137H5.73059ZM5.73059 21.4722C5.73059 22.3098 6.41742 22.9558 7.22363 22.9558V20.9558C7.48526 20.9558 7.73059 21.1688 7.73059 21.4722H5.73059ZM7.22363 22.9558C8.0299 22.9558 8.71668 22.3098 8.71668 21.4722H6.71668C6.71668 21.1689 6.96205 20.9558 7.22363 20.9558V22.9558ZM8.71668 21.4722V21.0138H6.71668V21.4722H8.71668ZM7.5202 20.0333C7.41688 20.054 7.3192 20.064 7.22787 20.064V22.064C7.46467 22.064 7.69442 22.0381 7.91315 21.9943L7.5202 20.0333ZM7.22787 20.064C7.13034 20.064 7.02963 20.0538 6.92774 20.0333L6.53344 21.994C6.75878 22.0394 6.99159 22.064 7.22787 22.064V20.064Z" fill="#22372D" mask="url(#path-18-inside-6_886_903)"/>
<path d="M7.53577 20.4165C7.33474 20.4496 7.12742 20.4501 6.92444 20.4165L6.64221 11.853C6.99962 11.8339 7.35542 11.7833 7.70374 11.6997L7.53577 20.4165ZM4.60706 11.6099C4.94012 11.7102 5.28184 11.7815 5.62756 11.8218L4.65393 20.3159C4.44998 20.3174 4.24552 20.2945 4.04749 20.2476L4.59729 11.7632L4.60706 11.6099Z" fill="#22372D" stroke="#22372D"/>
<mask id="path-21-inside-7_886_903" fill="white">
<path d="M2.57749 5.06582L2.77087 5.30904C2.81374 5.36296 2.89101 5.3768 2.95054 5.34126L3.63995 4.92942L3.5361 5.20202C3.51527 5.25668 3.53885 5.31803 3.59124 5.34566C3.64758 5.37533 3.71777 5.35607 3.75017 5.30205L4.21859 4.521L3.85631 3.93066L3.31147 4.21138L2.59095 4.88566C2.53995 4.93338 2.53412 5.01126 2.57749 5.06582Z"/>
</mask>
<path d="M2.57749 5.06582L2.77087 5.30904C2.81374 5.36296 2.89101 5.3768 2.95054 5.34126L3.63995 4.92942L3.5361 5.20202C3.51527 5.25668 3.53885 5.31803 3.59124 5.34566C3.64758 5.37533 3.71777 5.35607 3.75017 5.30205L4.21859 4.521L3.85631 3.93066L3.31147 4.21138L2.59095 4.88566C2.53995 4.93338 2.53412 5.01126 2.57749 5.06582Z" fill="#22372D"/>
<path d="M2.57749 5.06582L1.79469 5.68809L1.79474 5.68815L2.57749 5.06582ZM2.77087 5.30904L3.55362 4.6867L3.55362 4.6867L2.77087 5.30904ZM2.95054 5.34126L3.46321 6.19984L3.46338 6.19974L2.95054 5.34126ZM3.63995 4.92942L4.57444 5.28539L5.59974 2.59383L3.12711 4.07093L3.63995 4.92942ZM3.5361 5.20202L4.4705 5.55826L4.4706 5.558L3.5361 5.20202ZM3.59124 5.34566L3.12489 6.23025L3.12517 6.2304L3.59124 5.34566ZM3.75017 5.30205L4.60773 5.81644L4.60777 5.81637L3.75017 5.30205ZM4.21859 4.521L5.07618 5.03532L5.38821 4.51503L5.07089 3.99795L4.21859 4.521ZM3.85631 3.93066L4.70861 3.40762L4.22323 2.61668L3.39829 3.04172L3.85631 3.93066ZM3.31147 4.21138L2.85345 3.32244L2.72977 3.38617L2.62818 3.48123L3.31147 4.21138ZM2.59095 4.88566L3.27416 5.61588L3.27424 5.61581L2.59095 4.88566ZM1.79474 5.68815L1.98812 5.93138L3.55362 4.6867L3.36024 4.44348L1.79474 5.68815ZM1.98812 5.93137C2.34604 6.38156 2.97827 6.4894 3.46321 6.19984L2.43787 4.48267C2.80375 4.2642 3.28144 4.34437 3.55362 4.6867L1.98812 5.93137ZM3.46338 6.19974L4.15279 5.7879L3.12711 4.07093L2.4377 4.48277L3.46338 6.19974ZM2.70545 4.57344L2.60161 4.84604L4.4706 5.558L4.57444 5.28539L2.70545 4.57344ZM2.60171 4.84578C2.39699 5.38276 2.63461 5.97178 3.12489 6.23025L4.0576 4.46106C4.44308 4.66428 4.63355 5.1306 4.4705 5.55826L2.60171 4.84578ZM3.12517 6.2304C3.64291 6.50314 4.29758 6.33349 4.60773 5.81644L2.89261 4.78766C3.13795 4.37865 3.65224 4.24752 4.05731 4.46091L3.12517 6.2304ZM4.60777 5.81637L5.07618 5.03532L3.36099 4.00667L2.89258 4.78772L4.60777 5.81637ZM5.07089 3.99795L4.70861 3.40762L3.004 4.45371L3.36628 5.04404L5.07089 3.99795ZM3.39829 3.04172L2.85345 3.32244L3.76948 5.10033L4.31432 4.81961L3.39829 3.04172ZM2.62818 3.48123L1.90766 4.15551L3.27424 5.61581L3.99476 4.94153L2.62818 3.48123ZM1.90774 4.15544C1.47771 4.55778 1.42578 5.22401 1.79469 5.68809L3.36029 4.44354C3.64246 4.7985 3.60219 5.30897 3.27416 5.61588L1.90774 4.15544Z" fill="#22372D" mask="url(#path-21-inside-7_886_903)"/>
<mask id="path-23-inside-8_886_903" fill="white">
<path d="M4.32303 4.45938L4.36047 4.52039L4.34931 4.53907L5.0948 4.21366C5.16335 3.95739 5.18952 3.73846 5.17357 3.55273C4.75097 3.61634 4.35853 3.71597 3.95532 3.8602L3.96076 3.86905L4.32303 4.45938Z"/>
</mask>
<path d="M4.32303 4.45938L4.36047 4.52039L4.34931 4.53907L5.0948 4.21366C5.16335 3.95739 5.18952 3.73846 5.17357 3.55273C4.75097 3.61634 4.35853 3.71597 3.95532 3.8602L3.96076 3.86905L4.32303 4.45938Z" fill="#22372D"/>
<path d="M4.32303 4.45938L5.17536 3.93637L5.17534 3.93633L4.32303 4.45938ZM4.36047 4.52039L5.21875 5.03359L5.52962 4.51368L5.2128 3.99738L4.36047 4.52039ZM4.34931 4.53907L3.49103 4.02587L1.88985 6.70372L4.74935 5.45556L4.34931 4.53907ZM5.0948 4.21366L5.49485 5.13016L5.93636 4.93744L6.06084 4.47206L5.0948 4.21366ZM5.17357 3.55273L6.1699 3.46716L6.07869 2.40524L5.02474 2.56387L5.17357 3.55273ZM3.95532 3.8602L3.61853 2.91862L2.45843 3.33357L3.10317 4.38349L3.95532 3.8602ZM3.96076 3.86905L4.81306 3.346L4.81291 3.34575L3.96076 3.86905ZM3.47071 4.98239L3.50815 5.0434L5.2128 3.99738L5.17536 3.93637L3.47071 4.98239ZM3.5022 4.0072L3.49103 4.02587L5.20758 5.05226L5.21875 5.03359L3.5022 4.0072ZM4.74935 5.45556L5.49485 5.13016L4.69476 3.29717L3.94926 3.62257L4.74935 5.45556ZM6.06084 4.47206C6.14761 4.14767 6.19904 3.80639 6.1699 3.46716L4.17724 3.63831C4.18001 3.67053 4.17909 3.76711 4.12876 3.95527L6.06084 4.47206ZM5.02474 2.56387C4.53663 2.63734 4.0813 2.75309 3.61853 2.91862L4.29211 4.80178C4.63576 4.67886 4.96531 4.59534 5.3224 4.5416L5.02474 2.56387ZM3.10317 4.38349L3.10861 4.39234L4.81291 3.34575L4.80747 3.3369L3.10317 4.38349ZM3.10845 4.39209L3.47073 4.98243L5.17534 3.93633L4.81306 3.346L3.10845 4.39209Z" fill="#22372D" mask="url(#path-23-inside-8_886_903)"/>
<path d="M5.02466 4.92041C5.30241 5.16843 5.66639 5.3208 6.04712 5.3208H6.05786C6.426 5.31806 6.7779 5.17186 7.05103 4.93506L7.85474 5.4624C7.80516 6.26435 7.727 6.97888 7.53833 7.67529L7.52954 7.70654L7.52563 7.73877C7.42014 8.51826 7.42038 9.30741 7.52563 10.0854L7.57739 10.4185C7.58654 10.4709 7.59249 10.5212 7.60083 10.5688C6.65911 10.8311 5.62466 10.7935 4.70435 10.4644C4.85812 9.51922 4.85798 8.556 4.69946 7.61084L4.69556 7.5874L4.68872 7.56396L4.52271 6.88623C4.47321 6.66382 4.42927 6.44352 4.39185 6.22217L4.32642 5.83447L4.10669 5.81885C4.17597 5.76436 4.23648 5.69795 4.28345 5.61963L4.28442 5.62061L4.58911 5.11084L5.02466 4.92041ZM1.30103 4.49854L1.42017 4.93604L1.86743 4.85986C1.89 4.85599 1.91441 4.8555 1.9397 4.85303C1.90914 5.02563 1.93971 5.20578 2.03345 5.36377C1.8153 5.26357 1.61365 5.14937 1.43091 5.01514C1.29703 4.61832 1.18845 4.22055 1.1145 3.81885L1.30103 4.49854Z" fill="#22372D" stroke="#22372D"/>
<mask id="path-26-inside-9_886_903" fill="white">
<path d="M17.9 5.10663C17.9443 5.1519 18.0171 5.15483 18.065 5.11318C18.1095 5.07446 18.118 5.00944 18.0849 4.96094L17.9198 4.71914L18.6874 4.96422C18.7537 4.98539 18.8257 4.95444 18.8547 4.8923L18.9857 4.61197C19.0151 4.5491 18.9912 4.47464 18.9303 4.43969L18.1476 3.99025C18.0969 3.96111 18.0412 3.94117 17.9832 3.93134L17.7836 3.89746L17.4479 4.57589L17.9 5.10663Z"/>
</mask>
<path d="M17.9 5.10663C17.9443 5.1519 18.0171 5.15483 18.065 5.11318C18.1095 5.07446 18.118 5.00944 18.0849 4.96094L17.9198 4.71914L18.6874 4.96422C18.7537 4.98539 18.8257 4.95444 18.8547 4.8923L18.9857 4.61197C19.0151 4.5491 18.9912 4.47464 18.9303 4.43969L18.1476 3.99025C18.0969 3.96111 18.0412 3.94117 17.9832 3.93134L17.7836 3.89746L17.4479 4.57589L17.9 5.10663Z" fill="#22372D"/>
<path d="M17.9 5.10663L17.1388 5.75514L17.1611 5.78125L17.1851 5.80578L17.9 5.10663ZM18.065 5.11318L17.4087 4.35865L17.4084 4.35887L18.065 5.11318ZM18.0849 4.96094L18.9108 4.39719L18.9108 4.39715L18.0849 4.96094ZM17.9198 4.71914L18.224 3.76652L15.4553 2.88251L17.0939 5.28293L17.9198 4.71914ZM18.6874 4.96422L18.3832 5.91684L18.3833 5.91684L18.6874 4.96422ZM18.8547 4.8923L17.9488 4.46877L17.9486 4.46922L18.8547 4.8923ZM18.9857 4.61197L19.8916 5.0355L19.8918 5.03513L18.9857 4.61197ZM18.9303 4.43969L19.4283 3.57251L19.4283 3.57249L18.9303 4.43969ZM18.1476 3.99025L18.6456 3.12305L18.6455 3.12303L18.1476 3.99025ZM17.9832 3.93134L17.8159 4.91725L17.816 4.91726L17.9832 3.93134ZM17.7836 3.89746L17.9509 2.91155L17.2173 2.78707L16.8873 3.45396L17.7836 3.89746ZM17.4479 4.57589L16.5516 4.13239L16.2594 4.72289L16.6867 5.2244L17.4479 4.57589ZM17.1851 5.80578C17.6001 6.23024 18.2745 6.25655 18.7215 5.8675L17.4084 4.35887C17.7597 4.05312 18.2885 4.07356 18.615 4.40748L17.1851 5.80578ZM18.7212 5.86772C19.1453 5.49882 19.2321 4.8679 18.9108 4.39719L17.2589 5.52469C17.0039 5.15098 17.0736 4.6501 17.4087 4.35865L18.7212 5.86772ZM18.9108 4.39715L18.7457 4.15534L17.0939 5.28293L17.259 5.52473L18.9108 4.39715ZM17.6157 5.67176L18.3832 5.91684L18.9916 4.0116L18.224 3.76652L17.6157 5.67176ZM18.3833 5.91684C18.918 6.08757 19.5142 5.84344 19.7608 5.31538L17.9486 4.46922C18.1371 4.06544 18.5894 3.8832 18.9916 4.01159L18.3833 5.91684ZM19.7605 5.31583L19.8916 5.0355L18.0798 4.18844L17.9488 4.46877L19.7605 5.31583ZM19.8918 5.03513C20.1448 4.49342 19.932 3.86179 19.4283 3.57251L18.4323 5.30687C18.0503 5.0875 17.8854 4.60478 18.0797 4.18881L19.8918 5.03513ZM19.4283 3.57249L18.6456 3.12305L17.6496 4.85745L18.4323 5.30689L19.4283 3.57249ZM18.6455 3.12303C18.4918 3.03478 18.3241 2.97488 18.1505 2.94543L17.816 4.91726C17.7582 4.90746 17.7019 4.88745 17.6497 4.85748L18.6455 3.12303ZM18.1505 2.94543L17.9509 2.91155L17.6163 4.88337L17.8159 4.91725L18.1505 2.94543ZM16.8873 3.45396L16.5516 4.13239L18.3442 5.01939L18.6799 4.34096L16.8873 3.45396ZM16.6867 5.2244L17.1388 5.75514L18.6612 4.45812L18.2091 3.92738L16.6867 5.2244Z" fill="#22372D" mask="url(#path-26-inside-9_886_903)"/>
<path d="M9.29309 11.3247C9.81319 11.4523 10.3513 11.5181 10.8888 11.5181C11.3965 11.518 11.9048 11.4586 12.3986 11.3433C12.4011 11.4189 12.4064 11.4981 12.4064 11.5815V11.5894L12.545 20.3491H11.63L11.4728 12.1665L11.463 11.6655L10.962 11.6763C10.8908 11.6778 10.8187 11.6769 10.7462 11.6733L10.2316 11.6479L10.2218 12.1626L10.0636 20.3491H9.10754L9.28821 11.5923V11.5815C9.28821 11.4916 9.29007 11.4062 9.29309 11.3247Z" fill="#22372D" stroke="#22372D"/>
<path d="M13.9423 12.4663C14.4878 12.5826 15.0474 12.6421 15.6024 12.6421C16.1029 12.6421 16.6006 12.5921 17.0829 12.4966L17.5858 20.2729C17.3882 20.3281 17.1812 20.3494 16.9764 20.3354L16.0741 13.0063L16.0643 12.856L15.0653 12.8677L14.7118 20.4624C14.5085 20.4957 14.299 20.4935 14.0966 20.4546L13.9423 12.4663Z" fill="#22372D" stroke="#22372D"/>
<mask id="path-30-inside-10_886_903" fill="white">
<path d="M13.9159 21.0529V21.4565C13.9159 21.7323 14.1439 21.9559 14.4251 21.9559H14.4946C14.7758 21.9559 15.0038 21.7323 15.0038 21.4565V21.0356C14.816 21.0827 14.623 21.1088 14.4293 21.1088C14.2567 21.1088 14.0842 21.0899 13.9159 21.0529Z"/>
</mask>
<path d="M13.9159 21.0529V21.4565C13.9159 21.7323 14.1439 21.9559 14.4251 21.9559H14.4946C14.7758 21.9559 15.0038 21.7323 15.0038 21.4565V21.0356C14.816 21.0827 14.623 21.1088 14.4293 21.1088C14.2567 21.1088 14.0842 21.0899 13.9159 21.0529Z" fill="#22372D"/>
<path d="M13.9159 21.0529L14.1306 20.0762L12.9159 19.8092V21.0529H13.9159ZM15.0038 21.0356H16.0038V19.7543L14.7608 20.0656L15.0038 21.0356ZM12.9159 21.0529V21.4565H14.9159V21.0529H12.9159ZM12.9159 21.4565C12.9159 22.3029 13.6101 22.9559 14.4251 22.9559V20.9559C14.6777 20.9559 14.9159 21.1617 14.9159 21.4565H12.9159ZM14.4251 22.9559H14.4946V20.9559H14.4251V22.9559ZM14.4946 22.9559C15.3096 22.9559 16.0038 22.3029 16.0038 21.4565H14.0038C14.0038 21.1617 14.242 20.9559 14.4946 20.9559V22.9559ZM16.0038 21.4565V21.0356H14.0038V21.4565H16.0038ZM14.7608 20.0656C14.6445 20.0947 14.5332 20.1088 14.4293 20.1088V22.1088C14.7127 22.1088 14.9875 22.0706 15.2467 22.0057L14.7608 20.0656ZM14.4293 20.1088C14.3296 20.1088 14.2291 20.0979 14.1306 20.0762L13.7012 22.0296C13.9394 22.0819 14.1839 22.1088 14.4293 22.1088V20.1088Z" fill="#22372D" mask="url(#path-30-inside-10_886_903)"/>
<mask id="path-32-inside-11_886_903" fill="white">
<path d="M17.1013 20.9618C16.994 20.9618 16.8869 20.9525 16.7804 20.9383L16.8138 21.3361C16.8385 21.6289 17.1004 21.8466 17.399 21.8225L17.4515 21.8182C17.7501 21.7941 17.9721 21.5372 17.9475 21.2444L17.912 20.8223C17.6522 20.9142 17.377 20.9618 17.1013 20.9618Z"/>
</mask>
<path d="M17.1013 20.9618C16.994 20.9618 16.8869 20.9525 16.7804 20.9383L16.8138 21.3361C16.8385 21.6289 17.1004 21.8466 17.399 21.8225L17.4515 21.8182C17.7501 21.7941 17.9721 21.5372 17.9475 21.2444L17.912 20.8223C17.6522 20.9142 17.377 20.9618 17.1013 20.9618Z" fill="#22372D"/>
<path d="M16.7804 20.9383L16.9124 19.9471L15.6797 19.783L15.7839 21.0221L16.7804 20.9383ZM16.8138 21.3361L15.8174 21.4199L15.8174 21.4199L16.8138 21.3361ZM17.399 21.8225L17.4796 22.8192L17.4798 22.8192L17.399 21.8225ZM17.4515 21.8182L17.3709 20.8215L17.3707 20.8215L17.4515 21.8182ZM17.9475 21.2444L16.951 21.3282L16.951 21.3282L17.9475 21.2444ZM17.912 20.8223L18.9085 20.7385L18.7999 19.4474L17.5785 19.8795L17.912 20.8223ZM17.1013 19.9618C17.0507 19.9618 16.9896 19.9574 16.9124 19.9471L16.6484 21.9296C16.7841 21.9476 16.9373 21.9618 17.1013 21.9618V19.9618ZM15.7839 21.0221L15.8174 21.4199L17.8103 21.2523L17.7769 20.8545L15.7839 21.0221ZM15.8174 21.4199C15.8897 22.2797 16.6499 22.8863 17.4796 22.8192L17.3184 20.8257C17.551 20.8069 17.7873 20.978 17.8103 21.2523L15.8174 21.4199ZM17.4798 22.8192L17.5323 22.815L17.3707 20.8215L17.3183 20.8257L17.4798 22.8192ZM17.5321 22.815C18.3642 22.7477 19.0165 22.023 18.944 21.1606L16.951 21.3282C16.9277 21.0513 17.136 20.8405 17.3709 20.8215L17.5321 22.815ZM18.944 21.1606L18.9085 20.7385L16.9155 20.9061L16.951 21.3282L18.944 21.1606ZM17.5785 19.8795C17.425 19.9338 17.2625 19.9618 17.1013 19.9618V21.9618C17.4915 21.9618 17.8795 21.8945 18.2455 21.765L17.5785 19.8795Z" fill="#22372D" mask="url(#path-32-inside-11_886_903)"/>
<path d="M10.8506 4.34521L10.8457 4.34033C10.8486 4.34013 10.8516 4.34055 10.8545 4.34033L10.8506 4.34521Z" fill="#22372D" stroke="#22372D"/>
<path d="M15.8687 0.661133L15.9399 0.720703C16.0444 0.827538 16.1144 0.973002 16.1333 1.12598L16.146 1.2334L16.2026 1.3252C16.2581 1.41611 16.3048 1.54011 16.3247 1.70605L16.3345 1.88672C16.3343 1.89101 16.3336 1.89659 16.3335 1.90234L16.3296 2.20508L16.2329 2.50977C16.1489 2.77492 16.0237 2.9982 15.8892 3.14551C15.7525 3.29511 15.6458 3.32715 15.5864 3.32715C15.5235 3.32712 15.408 3.29043 15.2622 3.12109C15.1198 2.95566 14.9912 2.70836 14.9136 2.42383L14.8286 2.11035L14.8413 1.81641C14.8525 1.55675 14.9242 1.38416 15.0093 1.27148L15.1841 1.04004L15.0698 0.773438C15.0676 0.768185 15.0644 0.763021 15.062 0.757812L15.5425 0.639648L15.6938 0.632812L15.8687 0.661133ZM14.3237 2.29492L14.3218 2.29395C14.326 2.29411 14.3309 2.29389 14.3364 2.29395C14.3318 2.29393 14.3275 2.29503 14.3237 2.29492ZM14.2925 2.0752C14.2909 2.07564 14.2898 2.07679 14.2886 2.07715C14.2849 2.07826 14.2815 2.07887 14.2808 2.0791L14.2827 2.07812C14.2845 2.07758 14.288 2.07648 14.2925 2.0752ZM14.3501 2.0625C14.3342 2.06512 14.3206 2.06768 14.3101 2.07031C14.3121 2.06981 14.3147 2.06986 14.3169 2.06934L14.3501 2.0625ZM14.356 1.94727L14.3687 2.05859L14.3677 2.05957L14.3569 1.96094L14.356 1.94727ZM16.3345 1.87891C16.3345 1.87642 16.3344 1.87442 16.3345 1.87305L16.3354 1.87109C16.3354 1.87224 16.3346 1.87545 16.3345 1.87891Z" fill="#22372D" stroke="#22372D"/>
<mask id="path-36-inside-12_886_903" fill="white">
<path d="M15.6336 5.00556L16.4303 4.28147C16.355 4.01185 16.3101 3.7303 16.3462 3.4751C16.1243 3.73656 15.8588 3.88684 15.5863 3.88684C15.2923 3.88684 15.0347 3.72252 14.8279 3.4771C14.8762 3.74423 14.8308 4.00046 14.7352 4.25248L15.6336 5.00556Z"/>
</mask>
<path d="M15.6336 5.00556L16.4303 4.28147C16.355 4.01185 16.3101 3.7303 16.3462 3.4751C16.1243 3.73656 15.8588 3.88684 15.5863 3.88684C15.2923 3.88684 15.0347 3.72252 14.8279 3.4771C14.8762 3.74423 14.8308 4.00046 14.7352 4.25248L15.6336 5.00556Z" fill="#22372D"/>
<path d="M15.6336 5.00556L14.9912 5.77193L15.6602 6.33273L16.3062 5.74556L15.6336 5.00556ZM16.4303 4.28147L17.1029 5.02147L17.5592 4.6067L17.3935 4.01272L16.4303 4.28147ZM16.3462 3.4751L17.3364 3.61514L17.8204 0.192603L15.5838 2.82803L16.3462 3.4751ZM14.8279 3.4771L15.5924 2.83257L13.176 -0.0339112L13.8438 3.65523L14.8279 3.4771ZM14.7352 4.25248L13.8003 3.89775L13.5481 4.56226L14.0928 5.01884L14.7352 4.25248ZM16.3062 5.74556L17.1029 5.02147L15.7577 3.54147L14.961 4.26557L16.3062 5.74556ZM17.3935 4.01272C17.3339 3.79905 17.3283 3.67208 17.3364 3.61514L15.3561 3.33506C15.2919 3.78851 15.3762 4.22465 15.4671 4.55022L17.3935 4.01272ZM15.5838 2.82803C15.5373 2.8828 15.5074 2.90056 15.5046 2.9021C15.5039 2.90247 15.511 2.89851 15.5258 2.89447C15.541 2.89032 15.5617 2.88684 15.5863 2.88684V4.88684C16.2447 4.88684 16.7659 4.52599 17.1087 4.12216L15.5838 2.82803ZM15.5863 2.88684C15.6071 2.88684 15.6265 2.88989 15.6424 2.89435C15.6579 2.89867 15.6659 2.90313 15.6663 2.90337C15.6664 2.90343 15.6592 2.89934 15.6457 2.88765C15.6321 2.87594 15.614 2.85814 15.5924 2.83257L14.0633 4.12163C14.3789 4.49605 14.8912 4.88684 15.5863 4.88684V2.88684ZM13.8438 3.65523C13.8504 3.69165 13.8532 3.75834 13.8003 3.89775L15.6702 4.60721C15.8085 4.24257 15.902 3.79681 15.8119 3.29897L13.8438 3.65523ZM14.0928 5.01884L14.9912 5.77193L16.276 4.2392L15.3776 3.48612L14.0928 5.01884Z" fill="#22372D" mask="url(#path-36-inside-12_886_903)"/>
</svg>
