<svg width="20" height="18" viewBox="0 0 20 18" fill="none" xmlns="http://www.w3.org/2000/svg">
<path fill-rule="evenodd" clip-rule="evenodd" d="M3.92613 7.66797H2.14404V8.95403L3.92613 8.95397V7.66797Z" fill="#22372D"/>
<path fill-rule="evenodd" clip-rule="evenodd" d="M4.2499 9.69494H2.14404V10.981H5.31817V7.66797H4.57362V9.32446C4.57362 9.52907 4.42859 9.69494 4.2499 9.69494Z" fill="#22372D"/>
<path fill-rule="evenodd" clip-rule="evenodd" d="M5.96594 7.66797L5.96599 10.981H6.96343V7.66797H5.96594Z" fill="#22372D"/>
<path fill-rule="evenodd" clip-rule="evenodd" d="M17.1996 12.3721H10.0168V15.8852H17.1996V12.3721Z" fill="#22372D"/>
<path fill-rule="evenodd" clip-rule="evenodd" d="M17.48 9.69495H9.73748C9.55869 9.69495 9.41366 9.52913 9.41366 9.32452C9.41376 9.11985 9.55869 8.95409 9.73743 8.95409L17.48 8.95403C17.6587 8.95403 17.8037 9.11991 17.8037 9.32452C17.8037 9.52913 17.6587 9.695 17.48 9.69495ZM7.61095 7.2976L7.611 11.3515C7.611 11.5561 7.46593 11.722 7.28723 11.722H5.64226H5.64212H1.82045C1.64166 11.722 1.49659 11.5562 1.49659 11.3516V9.32463V7.29754C1.49659 7.09293 1.64162 6.92711 1.82036 6.92711H4.24998H5.64207H7.28718C7.46593 6.92711 7.61095 7.09299 7.61095 7.2976ZM18.808 5.30377L1.54349 5.30371L1.19186 5.30377C0.534592 5.30377 0 5.91535 0 6.66714L9.58641e-05 16.6362C9.58641e-05 17.3882 0.534592 17.9998 1.19186 17.9998H18.8082C19.4655 17.9998 20 17.3882 20 16.6362V6.66703C20 6.20661 19.7995 5.79875 19.493 5.55184C19.4858 5.54717 19.4787 5.54212 19.4717 5.5368C19.3045 5.4072 19.1137 5.32955 18.9144 5.30914C18.914 5.30909 18.9135 5.30903 18.9131 5.30903C18.8785 5.30558 18.8435 5.30377 18.8081 5.30377H18.808ZM17.48 7.61788H9.73748C9.55869 7.61788 9.41366 7.45206 9.41366 7.24745C9.41376 7.04289 9.55869 6.87701 9.73743 6.87701L17.48 6.87696C17.6587 6.87696 17.8037 7.04289 17.8037 7.24745C17.8037 7.452 17.6587 7.61793 17.48 7.61788ZM9.69359 11.6316H17.5238C17.7026 11.6316 17.8476 11.7975 17.8476 12.002L17.8477 16.2561C17.8477 16.4606 17.7026 16.6266 17.5238 16.6266H9.69364C9.5148 16.6266 9.36978 16.4607 9.36978 16.2561V12.002C9.36983 11.7975 9.51485 11.6316 9.69359 11.6316Z" fill="#22372D"/>
<path fill-rule="evenodd" clip-rule="evenodd" d="M16.698 0.0588455L3.72559 4.56229H18.8076C18.9223 4.56229 19.0356 4.57442 19.1469 4.5984L18.1841 0.967722C17.9935 0.248313 17.3265 -0.159375 16.698 0.0588455Z" fill="#22372D"/>
</svg>
