<svg width="20" height="20" viewBox="0 0 20 20" fill="none" xmlns="http://www.w3.org/2000/svg">
<path d="M8.55252 8.95895H0.396642C0.177602 8.95895 0 8.78115 0 8.56187V0.397085C0 0.177807 0.177602 0 0.396642 0H8.55252C8.77156 0 8.94918 0.177807 8.94918 0.397085V8.56187C8.94918 8.78115 8.77156 8.95895 8.55252 8.95895Z" fill="#0E4ED2"/>
<path d="M19.6033 8.95895H11.4474C11.2284 8.95895 11.0508 8.78115 11.0508 8.56187V0.397085C11.0508 0.177807 11.2284 0 11.4474 0H19.6033C19.8223 0 20 0.177807 20 0.397085V8.56187C20.0001 8.78115 19.8224 8.95895 19.6033 8.95895Z" fill="#0E4ED2"/>
<path d="M8.55252 20H0.396642C0.177602 20 0 19.8222 0 19.6029V11.4381C0 11.2188 0.177602 11.041 0.396642 11.041H8.55252C8.77156 11.041 8.94918 11.2188 8.94918 11.4381V19.6029C8.94918 19.8222 8.77156 20 8.55252 20Z" fill="#0E4ED2"/>
<path d="M19.6033 20H11.4474C11.2284 20 11.0508 19.8222 11.0508 19.6029V11.4381C11.0508 11.2188 11.2284 11.041 11.4474 11.041H19.6033C19.8223 11.041 20 11.2188 20 11.4381V19.6029C20.0001 19.8222 19.8224 20 19.6033 20Z" fill="#0E4ED2"/>
</svg>
