<svg width="300" height="40" viewBox="0 0 300 40" fill="none" xmlns="http://www.w3.org/2000/svg">
<path d="M15.2 0.979811L19.7 0.245117L21.2 4.16348C22.9 4.40838 24.6 4.73491 26.3 5.06144C27.6 4.00022 28.9 3.02063 30.2 1.9594C30.7 2.36757 31.8 3.10226 32.3 3.51042C30.3 5.79614 28.4 8.08185 26.4 10.2859C24.4 10.041 22.3 9.46961 20.2 9.63287C15.5 10.3676 11.9 14.1227 11.7 17.9594C11.5 20.1635 13.2 22.041 14.6 23.7553C12.7 25.9594 10.8 28.0819 8.9 30.2859C8.2 29.7961 7.4 29.388 6.7 28.8982L8.5 25.2247C7.6 24.0002 7 23.1023 6.1 21.8778C4 21.9594 3.4 21.9594 1.1 21.9594L0.2 19.3472L0 18.3676C1.8 17.6329 3.5 16.8165 5.2 16.0002C5.6 14.6941 6.1 13.388 6.5 12.0002L3.3 9.38797C4.3 8.24512 5.3 7.18389 6.2 6.04104C7.5 6.61246 8.9 7.10226 10.2 7.67369C11.8 6.85736 13.5 6.12267 15.1 5.38797C15.2 3.91859 15.2 2.4492 15.2 0.979811Z" fill="#0E4ED2"/>
<path d="M290.3 9.3877H296V13.7142H299.7V17.1428H296C296.2 20.5714 295.5 24.0816 296.4 27.5101C297.5 27.8367 298.7 28.0816 300 28.2448V31.4285C296.7 31.9999 292 31.9999 290.8 28.8163C289.8 24.9795 290.4 21.0612 290.3 17.2244C289.5 17.2244 288 17.1428 287.3 17.1428V13.7142H290.3V9.3877ZM244.7 13.7142C246.5 13.7142 248.3 13.7142 250.1 13.6326C250.1 14.1224 250.2 15.0203 250.2 15.5101C252.7 14.0408 255.9 12.8163 259 13.7142C261.7 14.2857 263.1 16.653 263.1 18.7755C263.2 22.9387 263.1 27.102 263.1 31.2652H257.5C257.4 27.0203 257.7 22.8571 257.4 18.6122C256.2 16.0816 250.5 16.9795 250.5 19.6734C250.4 23.5101 250.5 27.4285 250.5 31.2652H244.8C244.7 25.3877 244.7 19.5101 244.7 13.7142ZM272.4 30.7755C264.5 27.755 265.1 16.5714 273.2 14.0408C276.9 12.8979 281.7 13.551 284.2 16.2448C286.3 18.5306 286.2 21.4693 286.4 24.1632H272.4C273.2 25.6326 274.1 27.3469 276.1 27.8367C278.7 28.5714 281.2 27.4285 283 26.0408C283.9 26.9387 284.8 27.755 285.8 28.653C282.6 31.6734 276.8 32.4897 272.4 30.7755ZM272.5 20.7346C275.3 20.8163 278.1 20.8163 280.9 20.7346C280.6 19.0203 279.6 16.9795 277.1 17.0612C274.3 16.8979 273.1 19.102 272.5 20.7346ZM234.3 27.2652C236.7 24.9795 241.7 27.9183 239.3 30.4489C236.9 33.3061 231 29.7959 234.3 27.2652Z" fill="#0E4ED2"/>
<path d="M134.199 6.79941C135.999 6.79941 137.799 6.79941 139.599 6.71777C139.699 15.0443 139.599 23.3708 139.699 31.6157H134.299C134.199 23.3708 134.199 15.0443 134.199 6.79941ZM144.699 6.79941C146.599 6.79941 148.599 6.79941 150.499 6.71777V31.6974H144.699V6.79941ZM77.2992 9.81981H82.7992V14.0647C84.0992 14.0647 85.3992 14.1463 86.6992 14.1463V17.4933C85.3992 17.5749 84.0992 17.5749 82.6992 17.6565C82.7992 20.8402 82.4992 24.1055 82.8992 27.2892C83.5992 28.5137 85.4992 28.3504 86.7992 28.5137C86.6992 29.6565 86.6992 30.7994 86.5992 31.8606C83.3992 32.1872 79.0992 32.2688 77.6992 29.33C76.6992 25.4933 77.2992 21.5749 77.1992 17.6565C76.1992 17.5749 75.0992 17.4933 74.0992 17.4117C74.0992 16.2688 74.0992 15.2076 74.1992 14.0647C74.9992 14.0647 76.3992 13.9831 77.1992 13.9014C77.2992 12.5953 77.2992 11.2076 77.2992 9.81981ZM205.599 15.8606C207.099 14.3096 209.299 13.7382 211.599 13.8198C211.599 15.2892 211.699 16.8402 211.699 18.3096C209.399 18.3096 207.199 18.5545 205.399 19.779C205.499 23.779 205.399 27.779 205.399 31.6974H199.599V14.1463C201.899 14.3912 205.499 13.1668 205.599 15.8606ZM18.6992 14.0647C20.6992 14.3912 24.3992 13.0851 24.1992 15.779C27.5992 13.4117 33.0992 13.0851 35.9992 16.1872C38.2992 14.3096 41.7992 13.2484 44.9992 14.228C47.7992 14.7178 48.9992 17.33 49.0992 19.3708C49.1992 23.4525 49.0992 27.5341 49.0992 31.6157H43.3992C43.2992 27.4525 43.5992 23.2892 43.2992 19.1259C42.4992 16.5953 38.1992 17.4117 36.6992 19.0443V31.6157H30.9992C30.8992 27.4525 31.1992 23.2892 30.8992 19.2076C30.4992 16.9219 26.0992 17.0851 24.6992 18.7178C24.2992 23.0443 24.6992 27.2892 24.4992 31.6157H18.7992C18.6992 25.8198 18.6992 19.9423 18.6992 14.0647ZM58.2992 14.6361C63.3992 12.677 70.2992 14.5545 72.1992 19.0443C73.2992 22.4729 73.3992 26.6361 70.3992 29.4933C66.1992 33.4933 56.9992 33.0035 54.0992 28.1055C51.2992 23.6157 52.3992 17.0035 58.2992 14.6361ZM61.2992 17.8198C58.0992 18.9627 58.2992 22.3912 58.4992 24.7586C58.5992 26.881 61.2992 29.0851 63.9992 28.2688C67.2992 27.3708 67.5992 23.9423 67.1992 21.4933C67.0992 19.2076 64.2992 16.677 61.2992 17.8198ZM94.2992 14.5545C99.3992 12.677 106.199 14.7994 107.899 19.2892C108.899 22.3912 108.999 26.0647 106.599 28.7586C102.999 33.4117 92.9992 33.2484 89.7992 28.1872C86.8992 23.6974 87.9992 16.677 94.2992 14.5545ZM97.1992 17.6565C93.6992 18.881 93.9992 22.4729 94.3992 25.0851C94.3992 27.5341 98.1992 29.4116 100.699 27.8606C103.399 26.3096 102.899 23.2892 102.699 20.9219C102.499 18.7178 99.7992 17.0035 97.1992 17.6565ZM111.399 19.4525C112.699 12.5953 126.699 11.8606 129.199 18.3912C129.699 22.7994 128.999 27.2892 129.699 31.779C127.599 31.6974 125.299 31.9423 123.499 30.881C120.699 32.0239 117.199 32.7586 114.299 31.2892C111.099 30.0647 110.499 26.5545 111.899 24.1872C114.399 20.9219 119.599 21.0851 123.699 21.0851C123.299 19.8606 123.699 18.1463 121.799 17.6565C119.699 16.677 117.899 18.228 116.799 19.4525C115.099 19.3708 113.199 19.4525 111.399 19.4525ZM116.299 26.6361C118.099 28.8402 121.099 28.5953 123.599 27.3708V23.6157C120.499 23.3708 117.299 24.0239 116.299 26.6361ZM156.799 16.5953C160.499 12.677 169.399 12.9219 172.199 17.5749C173.699 19.6974 173.399 22.228 173.599 24.5137C168.999 24.5137 164.499 24.4321 159.899 24.5137C160.399 26.1463 161.599 27.9423 163.899 28.2688C166.399 28.8402 168.699 27.5341 170.699 26.4729C171.499 27.3708 172.299 28.1872 172.999 29.0035C168.199 33.8198 157.199 32.677 154.699 26.6361C153.999 23.3708 153.799 19.2892 156.799 16.5953ZM159.999 21.2484H167.999C167.699 19.9423 167.699 18.3096 165.799 17.8198C162.899 16.677 160.299 18.9627 159.999 21.2484ZM175.999 21.33C176.299 18.5545 177.899 15.779 181.099 14.5545C184.099 13.33 187.699 13.9831 190.099 15.779C189.899 13.2484 193.399 14.4729 195.299 14.1463C195.199 20.5137 195.499 26.881 195.099 33.2484C193.199 39.5341 181.699 40.4321 176.999 35.779C177.899 34.9627 178.799 34.1463 179.599 33.33C182.499 35.2076 186.699 35.779 189.399 33.4117C189.399 32.5137 189.499 31.6157 189.499 30.7178C187.199 31.8606 184.299 32.7586 181.699 31.779C176.799 30.0647 175.399 25.1668 175.999 21.33ZM182.399 19.6157C181.099 22.1463 180.899 25.7382 183.599 27.6974C185.299 29.0851 187.699 28.0239 189.499 27.5341C189.599 24.7586 189.899 21.9014 189.499 19.1259C188.199 16.7586 183.499 17.1668 182.399 19.6157ZM218.299 14.7178C222.599 13.0035 228.599 13.8198 231.299 17.33C233.799 20.8402 233.899 25.6565 230.999 29.0035C227.099 33.4933 217.399 33.0035 214.299 28.1055C211.499 23.6974 212.399 17.0035 218.299 14.7178ZM221.299 17.9014C217.999 19.3708 218.099 23.1259 218.899 25.6565C219.399 28.2688 223.999 29.4117 225.999 27.2892C227.799 25.0851 227.699 22.0647 226.699 19.6157C225.999 17.9014 223.299 17.0035 221.299 17.9014Z" fill="black"/>
</svg>
