<svg width="150" height="20" viewBox="0 0 150 20" fill="none" xmlns="http://www.w3.org/2000/svg">
<path d="M7.6 0.489906L9.85 0.122559L10.6 2.08174C11.45 2.20419 12.3 2.36746 13.15 2.53072C13.8 2.00011 14.45 1.51031 15.1 0.979701C15.35 1.18378 15.9 1.55113 16.15 1.75521C15.15 2.89807 14.2 4.04093 13.2 5.14297C12.2 5.02052 11.15 4.7348 10.1 4.81644C7.75 5.18378 5.95 7.06133 5.85 8.9797C5.75 10.0817 6.6 11.0205 7.3 11.8777C6.35 12.9797 5.4 14.0409 4.45 15.143C4.1 14.8981 3.7 14.694 3.35 14.4491L4.25 12.6124C3.8 12.0001 3.5 11.5511 3.05 10.9389C2 10.9797 1.7 10.9797 0.55 10.9797L0.1 9.67358L0 9.18378C0.9 8.81644 1.75 8.40827 2.6 8.00011C2.8 7.34705 3.05 6.69399 3.25 6.00011L1.65 4.69399C2.15 4.12256 2.65 3.59195 3.1 3.02052C3.75 3.30623 4.45 3.55113 5.1 3.83684C5.9 3.42868 6.75 3.06133 7.55 2.69399C7.6 1.95929 7.6 1.2246 7.6 0.489906Z" fill="#0E4ED2"/>
<path d="M145.15 4.69385H148V6.85711H149.85V8.5714H148C148.1 10.2857 147.75 12.0408 148.2 13.7551C148.75 13.9183 149.35 14.0408 150 14.1224V15.7143C148.35 16 146 16 145.4 14.4081C144.9 12.4898 145.2 10.5306 145.15 8.61222C144.75 8.61222 144 8.5714 143.65 8.5714V6.85711H145.15V4.69385ZM122.35 6.85711C123.25 6.85711 124.15 6.85711 125.05 6.8163C125.05 7.06119 125.1 7.51017 125.1 7.75507C126.35 7.02038 127.95 6.40813 129.5 6.85711C130.85 7.14283 131.55 8.3265 131.55 9.38773C131.6 11.4694 131.55 13.551 131.55 15.6326H128.75C128.7 13.5102 128.85 11.4285 128.7 9.30609C128.1 8.04079 125.25 8.48977 125.25 9.83671C125.2 11.7551 125.25 13.7143 125.25 15.6326H122.4C122.35 12.6938 122.35 9.75507 122.35 6.85711ZM136.2 15.3877C132.25 13.8775 132.55 8.28568 136.6 7.02038C138.45 6.44895 140.85 6.77548 142.1 8.12242C143.15 9.26528 143.1 10.7347 143.2 12.0816H136.2C136.6 12.8163 137.05 13.6734 138.05 13.9183C139.35 14.2857 140.6 13.7143 141.5 13.0204C141.95 13.4694 142.4 13.8775 142.9 14.3265C141.3 15.8367 138.4 16.2449 136.2 15.3877ZM136.25 10.3673C137.65 10.4081 139.05 10.4081 140.45 10.3673C140.3 9.51017 139.8 8.48977 138.55 8.53058C137.15 8.44895 136.55 9.55099 136.25 10.3673ZM117.15 13.6326C118.35 12.4898 120.85 13.9592 119.65 15.2245C118.45 16.653 115.5 14.8979 117.15 13.6326Z" fill="#0E4ED2"/>
<path d="M67.0996 2.8997C67.9996 2.8997 68.8996 2.8997 69.7996 2.85889C69.8496 7.02215 69.7996 11.1854 69.8496 15.3079H67.1496C67.0996 11.1854 67.0996 7.02215 67.0996 2.8997ZM72.3496 2.8997C73.2996 2.8997 74.2996 2.8997 75.2496 2.85889V15.3487H72.3496V2.8997ZM38.6496 4.40991H41.3996V6.53236C42.0496 6.53236 42.6996 6.57317 43.3496 6.57317V8.24664C42.6996 8.28746 42.0496 8.28746 41.3496 8.32827C41.3996 9.92011 41.2496 11.5528 41.4496 13.1446C41.7996 13.7568 42.7496 13.6752 43.3996 13.7568C43.3496 14.3283 43.3496 14.8997 43.2996 15.4303C41.6996 15.5936 39.5496 15.6344 38.8496 14.165C38.3496 12.2466 38.6496 10.2875 38.5996 8.32827C38.0996 8.28746 37.5496 8.24664 37.0496 8.20583C37.0496 7.6344 37.0496 7.10379 37.0996 6.53236C37.4996 6.53236 38.1996 6.49154 38.5996 6.45072C38.6496 5.79766 38.6496 5.10378 38.6496 4.40991ZM102.8 7.43032C103.55 6.65481 104.65 6.36909 105.8 6.40991C105.8 7.1446 105.85 7.92011 105.85 8.65481C104.7 8.65481 103.6 8.77725 102.7 9.3895C102.75 11.3895 102.7 13.3895 102.7 15.3487H99.7996V6.57317C100.95 6.69562 102.75 6.08338 102.8 7.43032ZM9.34961 6.53236C10.3496 6.69562 12.1996 6.04256 12.0996 7.3895C13.7996 6.20583 16.5496 6.04256 17.9996 7.59358C19.1496 6.6548 20.8996 6.12419 22.4996 6.61399C23.8996 6.85889 24.4996 8.16501 24.5496 9.18542C24.5996 11.2262 24.5496 13.2671 24.5496 15.3079H21.6996C21.6496 13.2262 21.7996 11.1446 21.6496 9.06297C21.2496 7.79766 19.0996 8.20583 18.3496 9.02215V15.3079H15.4996C15.4496 13.2262 15.5996 11.1446 15.4496 9.10379C15.2496 7.96093 13.0496 8.04256 12.3496 8.85889C12.1496 11.0222 12.3496 13.1446 12.2496 15.3079H9.39961C9.34961 12.4099 9.34961 9.47113 9.34961 6.53236ZM29.1496 6.81807C31.6996 5.83848 35.1496 6.77725 36.0996 9.02215C36.6496 10.7364 36.6996 12.8181 35.1996 14.2466C33.0996 16.2466 28.4996 16.0017 27.0496 13.5528C25.6496 11.3079 26.1996 8.00174 29.1496 6.81807ZM30.6496 8.40991C29.0496 8.98134 29.1496 10.6956 29.2496 11.8793C29.2996 12.9405 30.6496 14.0426 31.9996 13.6344C33.6496 13.1854 33.7996 11.4711 33.5996 10.2466C33.5496 9.10378 32.1496 7.83848 30.6496 8.40991ZM47.1496 6.77725C49.6996 5.83848 53.0996 6.8997 53.9496 9.1446C54.4496 10.6956 54.4996 12.5324 53.2996 13.8793C51.4996 16.2058 46.4996 16.1242 44.8996 13.5936C43.4496 11.3487 43.9996 7.83848 47.1496 6.77725ZM48.5996 8.32827C46.8496 8.94052 46.9996 10.7364 47.1996 12.0426C47.1996 13.2671 49.0996 14.2058 50.3496 13.4303C51.6996 12.6548 51.4496 11.1446 51.3496 9.96093C51.2496 8.85889 49.8996 8.00174 48.5996 8.32827ZM55.6996 9.22623C56.3496 5.79766 63.3496 5.43032 64.5996 8.69562C64.8496 10.8997 64.4996 13.1446 64.8496 15.3895C63.7996 15.3487 62.6496 15.4711 61.7496 14.9405C60.3496 15.5119 58.5996 15.8793 57.1496 15.1446C55.5496 14.5324 55.2496 12.7773 55.9496 11.5936C57.1996 9.96093 59.7996 10.0426 61.8496 10.0426C61.6496 9.43032 61.8496 8.57317 60.8996 8.32827C59.8496 7.83848 58.9496 8.61399 58.3996 9.22623C57.5496 9.18542 56.5996 9.22623 55.6996 9.22623ZM58.1496 12.8181C59.0496 13.9201 60.5496 13.7977 61.7996 13.1854V11.3079C60.2496 11.1854 58.6496 11.5119 58.1496 12.8181ZM78.3996 7.79766C80.2496 5.83848 84.6996 5.96093 86.0996 8.28746C86.8496 9.34868 86.6996 10.614 86.7996 11.7568C84.4996 11.7568 82.2496 11.716 79.9496 11.7568C80.1996 12.5732 80.7996 13.4711 81.9496 13.6344C83.1996 13.9201 84.3496 13.2671 85.3496 12.7364C85.7496 13.1854 86.1496 13.5936 86.4996 14.0017C84.0996 16.4099 78.5996 15.8385 77.3496 12.8181C76.9996 11.1854 76.8996 9.1446 78.3996 7.79766ZM79.9996 10.1242H83.9996C83.8496 9.47113 83.8496 8.65481 82.8996 8.40991C81.4496 7.83848 80.1496 8.98134 79.9996 10.1242ZM87.9996 10.165C88.1496 8.77726 88.9496 7.3895 90.5496 6.77725C92.0496 6.16501 93.8496 6.49154 95.0496 7.3895C94.9496 6.12419 96.6996 6.73644 97.6496 6.57317C97.5996 9.75685 97.7496 12.9405 97.5496 16.1242C96.5996 19.267 90.8496 19.716 88.4996 17.3895C88.9496 16.9813 89.3996 16.5732 89.7996 16.165C91.2496 17.1038 93.3496 17.3895 94.6996 16.2058C94.6996 15.7568 94.7496 15.3079 94.7496 14.8589C93.5996 15.4303 92.1496 15.8793 90.8496 15.3895C88.3996 14.5324 87.6996 12.0834 87.9996 10.165ZM91.1996 9.30787C90.5496 10.5732 90.4496 12.3691 91.7996 13.3487C92.6496 14.0426 93.8496 13.5119 94.7496 13.2671C94.7996 11.8793 94.9496 10.4507 94.7496 9.06297C94.0996 7.87929 91.7496 8.08338 91.1996 9.30787ZM109.15 6.85889C111.3 6.00174 114.3 6.40991 115.65 8.16501C116.9 9.92011 116.95 12.3283 115.5 14.0017C113.55 16.2466 108.7 16.0017 107.15 13.5528C105.75 11.3487 106.2 8.00174 109.15 6.85889ZM110.65 8.45072C109 9.18542 109.05 11.063 109.45 12.3283C109.7 13.6344 112 14.2058 113 13.1446C113.9 12.0426 113.85 10.5324 113.35 9.30787C113 8.45072 111.65 8.00174 110.65 8.45072Z" fill="black"/>
</svg>
