<svg width="20" height="25" viewBox="0 0 17 19" fill="none" xmlns="http://www.w3.org/2000/svg">
<path d="M13.4348 11.7668C13.2686 11.569 13.0802 11.4175 12.8696 11.3124C12.659 11.2073 12.4429 11.1548 12.2212 11.1548C11.9995 11.1548 11.7862 11.2073 11.5811 11.3124C11.3761 11.4175 11.1794 11.569 10.9909 11.7668L9.86043 13.028C9.81609 13.0033 9.76899 12.9785 9.71911 12.9538C9.66924 12.9291 9.62213 12.9043 9.5778 12.8796C9.52238 12.8425 9.4642 12.8054 9.40324 12.7683C9.34228 12.7312 9.28409 12.6941 9.22867 12.6571C8.69667 12.2861 8.18683 11.8503 7.69916 11.3495C7.21149 10.8488 6.7349 10.2831 6.2694 9.65249C6.04773 9.33102 5.85931 9.03427 5.70414 8.76226C5.54897 8.49024 5.41597 8.21822 5.30514 7.9462C5.44922 7.79783 5.59054 7.64637 5.72908 7.49181C5.86762 7.33726 6.0034 7.18579 6.1364 7.03742C6.18073 6.9756 6.23061 6.91687 6.28602 6.86123C6.34144 6.80559 6.39131 6.74685 6.43565 6.68503C6.81249 6.26464 7.0009 5.80407 7.0009 5.30331C7.0009 4.80255 6.81249 4.34197 6.43565 3.92158L5.45477 2.82733C5.39935 2.76551 5.34393 2.7006 5.28851 2.63259C5.2331 2.56459 5.17768 2.49968 5.12226 2.43785C5.01143 2.31421 4.90059 2.19057 4.78976 2.06692C4.67893 1.94328 4.56255 1.81963 4.44063 1.69599C4.27438 1.49816 4.08873 1.34978 3.88369 1.25087C3.67865 1.15195 3.46529 1.1025 3.24362 1.1025C3.02195 1.1025 2.8086 1.15195 2.60355 1.25087C2.39851 1.34978 2.20178 1.49816 2.01336 1.69599L0.799726 3.08699C0.566975 3.33427 0.384098 3.61556 0.251097 3.93086C0.118096 4.24615 0.0405118 4.58308 0.018345 4.94165C-0.0259887 5.52278 0.0100324 6.07609 0.126408 6.60157C0.242784 7.12706 0.356389 7.56291 0.467224 7.90911C0.766476 8.78699 1.13777 9.64322 1.58111 10.4778C2.02445 11.3124 2.57307 12.1625 3.227 13.028C3.61492 13.5597 4.025 14.0542 4.45726 14.5117C4.88951 14.9816 5.34116 15.4236 5.81221 15.8378C6.28325 16.252 6.77369 16.6322 7.28353 16.9784C7.79337 17.337 8.31429 17.6585 8.84629 17.9428C9.26746 18.1654 9.74682 18.3849 10.2844 18.6012C10.8219 18.8176 11.3955 18.9505 12.0051 19C12.0494 19 12.091 19 12.1298 19C12.1686 19 12.2046 19 12.2378 19C12.659 19 13.0414 18.9165 13.385 18.7496C13.7285 18.5827 14.0389 18.3323 14.316 17.9985C14.316 17.9985 14.3187 17.9985 14.3243 17.9985C14.3298 17.9985 14.3326 17.9923 14.3326 17.9799C14.4213 17.8563 14.5182 17.7357 14.6235 17.6183C14.7288 17.5008 14.8369 17.3803 14.9477 17.2566C15.0253 17.1824 15.1057 17.1021 15.1888 17.0155C15.2719 16.929 15.3523 16.8362 15.4298 16.7373C15.6072 16.5395 15.7402 16.32 15.8289 16.0789C15.9175 15.8378 15.9619 15.5998 15.9619 15.3649C15.9619 15.1052 15.9147 14.861 15.8205 14.6323C15.7263 14.4035 15.5906 14.1841 15.4132 13.9739L13.4348 11.7668ZM14.7316 15.9954C14.654 16.082 14.5792 16.1624 14.5072 16.2366C14.4351 16.3107 14.3603 16.3911 14.2827 16.4777C14.1719 16.6013 14.0583 16.7311 13.9419 16.8671C13.8255 17.0031 13.7119 17.1392 13.6011 17.2752C13.4127 17.4977 13.2104 17.6616 12.9943 17.7666C12.7781 17.8717 12.526 17.9243 12.2378 17.9243C12.2157 17.9243 12.1907 17.9243 12.163 17.9243C12.1353 17.9243 12.1048 17.9243 12.0716 17.9243C11.5396 17.8872 11.0325 17.7697 10.5504 17.5719C10.0682 17.3741 9.6443 17.1762 9.27855 16.9784C8.76871 16.7064 8.2755 16.4035 7.79891 16.0696C7.32232 15.7358 6.86236 15.3772 6.41902 14.9939C5.97569 14.6106 5.54897 14.1964 5.13889 13.7513C4.7288 13.3062 4.34088 12.8363 3.97513 12.3418C3.36554 11.5257 2.85016 10.7251 2.42899 9.93997C2.00782 9.15483 1.65869 8.35423 1.38161 7.53818C1.21535 7.0436 1.10175 6.5923 1.04079 6.18427C0.979832 5.77625 0.960436 5.39295 0.982603 5.03438C1.00477 4.79946 1.05465 4.58308 1.13223 4.38525C1.20981 4.18742 1.32619 4.00813 1.48136 3.8474L2.71162 2.47495C2.7892 2.37603 2.8751 2.30494 2.96931 2.26166C3.06352 2.21838 3.15495 2.19675 3.24362 2.19675C3.36554 2.19675 3.47083 2.22766 3.5595 2.28948C3.64817 2.3513 3.72021 2.41312 3.77563 2.47495C3.77563 2.47495 3.78117 2.47495 3.79225 2.47495C3.892 2.59859 3.99729 2.71914 4.10813 2.83661C4.21896 2.95407 4.32426 3.07462 4.42401 3.19827C4.47942 3.26009 4.53761 3.325 4.59857 3.393C4.65953 3.46101 4.71772 3.52592 4.77313 3.58774L5.75402 4.682C5.94244 4.89219 6.03665 5.0993 6.03665 5.30331C6.03665 5.50732 5.94244 5.71443 5.75402 5.92462C5.6986 5.98644 5.64595 6.04517 5.59608 6.10081C5.5462 6.15645 5.49356 6.21519 5.43814 6.27701C5.29406 6.45011 5.1472 6.61703 4.99757 6.77777C4.84795 6.9385 4.69555 7.09306 4.54038 7.24143C4.54038 7.2538 4.53761 7.25998 4.53207 7.25998C4.52653 7.25998 4.52376 7.25998 4.52376 7.25998C4.36859 7.43308 4.29101 7.6 4.29101 7.76074C4.29101 7.92148 4.30763 8.05748 4.34088 8.16876C4.34088 8.18113 4.34088 8.1904 4.34088 8.19658C4.34088 8.20277 4.34088 8.20586 4.34088 8.20586C4.47388 8.55206 4.63459 8.89517 4.82301 9.2352C5.01143 9.57522 5.23864 9.93688 5.50464 10.3202L5.52127 10.3387C6.00894 11.0188 6.516 11.6246 7.04247 12.1563C7.56893 12.688 8.12033 13.1578 8.69667 13.5658C8.77425 13.6153 8.85184 13.6617 8.92942 13.7049C9.007 13.7482 9.07905 13.7946 9.14555 13.844C9.21205 13.8811 9.27578 13.9151 9.33674 13.946C9.39769 13.977 9.45034 14.011 9.49467 14.048C9.50576 14.048 9.51407 14.0511 9.51961 14.0573C9.52515 14.0635 9.53347 14.0728 9.54455 14.0851C9.61105 14.1099 9.67201 14.1315 9.72743 14.1501C9.78284 14.1686 9.83826 14.1779 9.89368 14.1779C10.0488 14.1779 10.1708 14.1408 10.2594 14.0666C10.3481 13.9924 10.4091 13.9368 10.4423 13.8997L11.6726 12.5272C11.7391 12.4654 11.8194 12.4005 11.9136 12.3325C12.0078 12.2645 12.1104 12.2305 12.2212 12.2305C12.332 12.2305 12.4318 12.2614 12.5204 12.3232C12.6091 12.385 12.6812 12.453 12.7366 12.5272L14.715 14.7343C14.9034 14.9445 14.9976 15.1547 14.9976 15.3649C14.9976 15.5751 14.9089 15.7852 14.7316 15.9954ZM9.1788 4.53362C9.65538 4.62017 10.1043 4.784 10.5254 5.02511C10.9466 5.26622 11.329 5.57842 11.6726 5.96171C12.0051 6.34501 12.2822 6.77158 12.5038 7.24143C12.7255 7.71128 12.8751 8.20586 12.9527 8.72516C12.9749 8.86117 13.0303 8.96936 13.119 9.04973C13.2076 9.1301 13.3129 9.17028 13.4348 9.17028C13.4459 9.17028 13.457 9.17028 13.4681 9.17028C13.4792 9.17028 13.4958 9.17028 13.518 9.17028C13.651 9.14555 13.7563 9.07137 13.8338 8.94772C13.9114 8.82408 13.9391 8.68807 13.917 8.5397C13.8172 7.90911 13.6343 7.30944 13.3683 6.74067C13.1023 6.17191 12.7643 5.65879 12.3542 5.2013C11.9441 4.74382 11.4841 4.3667 10.9743 4.06996C10.4645 3.77321 9.92693 3.5692 9.36167 3.45792C9.22867 3.43319 9.10675 3.4641 8.99592 3.55065C8.88509 3.6372 8.81859 3.75466 8.79642 3.90304C8.77425 4.05141 8.79919 4.18742 8.87123 4.31106C8.94327 4.43471 9.0458 4.50889 9.1788 4.53362ZM16.9926 8.39132C16.915 7.85965 16.7987 7.34653 16.6435 6.85195C16.4994 6.35738 16.3193 5.87825 16.1032 5.41459C15.887 4.95092 15.6404 4.50889 15.3633 4.0885C15.0752 3.65575 14.7648 3.25391 14.4323 2.88297C14.0888 2.49968 13.7285 2.15347 13.3517 1.84436C12.9638 1.53525 12.562 1.26014 12.1464 1.01904C11.7308 0.777929 11.3013 0.570826 10.8579 0.397722C10.4146 0.236986 9.96018 0.107159 9.49467 0.00824356C9.36167 -0.0164852 9.23976 0.0144253 9.12892 0.100977C9.01809 0.187529 8.95159 0.304989 8.92942 0.453363C8.90725 0.601736 8.93496 0.737745 9.01255 0.861389C9.09013 0.985033 9.19542 1.05922 9.32842 1.08395C10.1708 1.24469 10.966 1.54143 11.7141 1.97419C12.4623 2.40694 13.1411 2.96334 13.7507 3.64338C14.3492 4.31106 14.8452 5.06529 15.2387 5.90607C15.6321 6.74685 15.8954 7.63091 16.0284 8.55824C16.0505 8.69425 16.1087 8.80244 16.2029 8.88281C16.2971 8.96318 16.3996 9.00336 16.5105 9.00336C16.5216 9.00336 16.5354 9.00336 16.552 9.00336C16.5687 9.00336 16.5825 9.00336 16.5936 9.00336C16.7266 8.97863 16.8319 8.90754 16.9095 8.79008C16.9871 8.67261 17.0148 8.5397 16.9926 8.39132Z" fill="#0E4ED2"/>
</svg>