<svg width="25" height="25" viewBox="0 0 25 25" fill="none" xmlns="http://www.w3.org/2000/svg">
<g clip-path="url(#clip0_331_1040)">
<path d="M20.6835 3.81135C21.0144 3.44796 21.6327 3.43168 21.9798 3.77881C22.891 4.67917 23.7859 5.59038 24.6972 6.49074C24.9466 6.72939 25.066 7.10363 24.9629 7.43449C24.8599 7.78704 24.5236 8.05823 24.1548 8.07993C23.889 8.10162 23.6178 7.99314 23.4334 7.80331C23.0483 7.42364 22.6686 7.0277 22.2727 6.65345C22.2564 8.96401 22.2727 11.2746 22.2673 13.5851C22.2727 14.0516 21.8659 14.4746 21.3995 14.4801C20.9005 14.518 20.434 14.0787 20.4449 13.5797C20.434 11.2746 20.4503 8.96401 20.434 6.65888C20.0381 7.02227 19.6747 7.41279 19.295 7.78704C19.0997 7.98772 18.8231 8.10704 18.5411 8.0745C18.1723 8.04738 17.8414 7.77619 17.7438 7.41822C17.6461 7.10363 17.7383 6.75108 17.9716 6.51786C18.8719 5.62292 19.7777 4.71714 20.6835 3.81135ZM7.91033 7.96602C8.11644 7.90636 8.32796 7.92806 8.5395 7.92263H16.7838C17.0332 7.92263 17.2882 8.00941 17.4672 8.18298C17.7709 8.46502 17.8577 8.94774 17.6624 9.31656C17.4997 9.64199 17.1472 9.8481 16.7892 9.83725H8.20864C7.77473 9.84268 7.36252 9.52809 7.27031 9.10503C7.14014 8.63316 7.44388 8.10704 7.91033 7.96602ZM8.07304 11.6705C10.9043 11.6434 13.7355 11.6705 16.5668 11.6597C16.8109 11.6597 17.0658 11.6542 17.2827 11.7844C17.5702 11.9471 17.7709 12.2726 17.7655 12.6088C17.7763 12.9885 17.5322 13.3573 17.1797 13.4984C16.9519 13.596 16.697 13.5743 16.4529 13.5743C13.703 13.5689 10.9531 13.5743 8.20864 13.5743C7.72592 13.5906 7.28116 13.1892 7.2432 12.7119C7.18896 12.2183 7.57947 11.7193 8.07304 11.6705ZM2.86615 10.9491C3.09937 10.5424 3.66888 10.3851 4.07566 10.6183C4.36855 10.7702 4.56381 11.0847 4.55839 11.4156C4.56924 13.7207 4.54754 16.0313 4.56924 18.3364C4.98145 17.9568 5.36112 17.5445 5.76791 17.154C6.03368 16.8937 6.46758 16.8449 6.79302 17.013C7.12387 17.1757 7.32998 17.55 7.29201 17.9188C7.27031 18.1412 7.15641 18.3473 6.99912 18.4991L4.31431 21.184C4.08109 21.4226 3.71769 21.5365 3.39768 21.4335C3.13734 21.3684 2.95293 21.1623 2.76852 20.9778C1.93867 20.1426 1.10339 19.3127 0.273544 18.4829C0.0728619 18.2822 -0.0301913 17.9893 0.00777569 17.7073C0.0511665 17.3384 0.344054 17.0184 0.707453 16.9371C1.00034 16.872 1.32577 16.9533 1.54273 17.1649C1.93867 17.5554 2.32376 17.9568 2.73055 18.3419C2.74682 16.2157 2.73055 14.0841 2.73597 11.958C2.7414 11.6217 2.67631 11.2529 2.86615 10.9491ZM8.02423 15.4184C8.21406 15.3913 8.4039 15.4021 8.59373 15.4021H16.4041C16.5939 15.4021 16.7892 15.3913 16.979 15.4184C17.2665 15.4672 17.5268 15.657 17.6624 15.9174C17.8414 16.2591 17.7926 16.7093 17.5322 16.9913C17.3478 17.2028 17.0712 17.3222 16.7892 17.3167H8.59916C8.32797 17.3113 8.0405 17.3493 7.78558 17.2191C7.41133 17.0456 7.18896 16.6116 7.25947 16.2049C7.3137 15.8143 7.63371 15.4835 8.02423 15.4184Z" fill="#CDD0D1"/>
</g>
<defs>
<clipPath id="clip0_331_1040">
<rect width="25" height="25" fill="white"/>
</clipPath>
</defs>
</svg>
