<svg width="20" height="18" viewBox="0 0 20 18" fill="none" xmlns="http://www.w3.org/2000/svg">
<path d="M9.56445 18C9.49414 18 9.42676 17.9854 9.3623 17.9561C9.29785 17.9268 9.24219 17.8887 9.19531 17.8418C9.125 17.7715 8.73828 17.3438 8.03516 16.5586C7.33203 15.7734 6.57617 14.8301 5.76758 13.7285C4.95898 12.627 4.2207 11.4668 3.55273 10.248C2.88477 9.0293 2.55078 7.95117 2.55078 7.01367C2.55078 6.04102 2.73828 5.13281 3.11328 4.28906C3.47656 3.43359 3.97461 2.68945 4.60742 2.05664C5.24023 1.42383 5.98438 0.919922 6.83984 0.544922C7.69531 0.181641 8.60352 0 9.56445 0C10.5254 0 11.4336 0.181641 12.2891 0.544922C13.1445 0.919922 13.8887 1.42383 14.5215 2.05664C15.1543 2.68945 15.6523 3.43359 16.0156 4.28906C16.3906 5.13281 16.5781 6.04102 16.5781 7.01367C16.5781 7.95117 16.2441 9.0293 15.5762 10.248C14.9082 11.4668 14.1699 12.627 13.3613 13.7285C12.5527 14.8301 11.7969 15.7734 11.0938 16.5586C10.3906 17.3438 10.0039 17.7715 9.93359 17.8418C9.88672 17.8887 9.83105 17.9268 9.7666 17.9561C9.70215 17.9854 9.63477 18 9.56445 18ZM9.56445 1.01953C8.74414 1.01953 7.9707 1.17773 7.24414 1.49414C6.51758 1.81055 5.88184 2.24121 5.33691 2.78613C4.79199 3.33105 4.36133 3.96094 4.04492 4.67578C3.74023 5.40234 3.58789 6.18164 3.58789 7.01367C3.58789 7.6582 3.80469 8.42578 4.23828 9.31641C4.68359 10.207 5.2168 11.1123 5.83789 12.0322C6.45898 12.9521 7.11523 13.8281 7.80664 14.6602C8.48633 15.5039 9.07227 16.1953 9.56445 16.7344C10.0566 16.1953 10.6426 15.5039 11.3223 14.6602C12.0137 13.8281 12.6699 12.9521 13.291 12.0322C13.9121 11.1123 14.4453 10.207 14.8906 9.31641C15.3242 8.42578 15.541 7.6582 15.541 7.01367C15.541 6.18164 15.3887 5.40234 15.084 4.67578C14.7676 3.96094 14.3369 3.33105 13.792 2.78613C13.2471 2.24121 12.6113 1.81055 11.8848 1.49414C11.1582 1.17773 10.3848 1.01953 9.56445 1.01953ZM9.56445 9.21094C8.74414 9.21094 8.04395 8.9209 7.46387 8.34082C6.88379 7.76074 6.59375 7.06055 6.59375 6.24023C6.59375 5.41992 6.88379 4.71973 7.46387 4.13965C8.04395 3.55957 8.74414 3.26953 9.56445 3.26953C10.3848 3.26953 11.085 3.55957 11.665 4.13965C12.2451 4.71973 12.5352 5.41992 12.5352 6.24023C12.5352 7.06055 12.2451 7.76074 11.665 8.34082C11.085 8.9209 10.3848 9.21094 9.56445 9.21094ZM9.56445 4.30664C9.02539 4.30664 8.56836 4.49414 8.19336 4.86914C7.81836 5.24414 7.63086 5.70117 7.63086 6.24023C7.63086 6.7793 7.81836 7.23633 8.19336 7.61133C8.56836 7.98633 9.02539 8.17383 9.56445 8.17383C10.1035 8.17383 10.5605 7.98633 10.9355 7.61133C11.3105 7.23633 11.498 6.7793 11.498 6.24023C11.498 5.70117 11.3105 5.24414 10.9355 4.86914C10.5605 4.49414 10.1035 4.30664 9.56445 4.30664Z" fill="#4BA0E8"/>
</svg>
