<svg width="16" height="16" viewBox="0 0 16 16" fill="none" xmlns="http://www.w3.org/2000/svg">
<g clip-path="url(#clip0_0_174)">
<path d="M5.96875 13.9688C5.96875 14.5312 6.16667 15.0104 6.5625 15.4062C6.95833 15.8021 7.4375 16 8 16C8.5625 16 9.04167 15.8021 9.4375 15.4062C9.83333 15.0104 10.0312 14.5312 10.0312 13.9688H5.96875ZM14.0781 11.7188V7.4375C14.0781 6.66667 13.9427 5.93229 13.6719 5.23438C13.401 4.54688 13.026 3.9349 12.5469 3.39844C12.0677 2.86198 11.5 2.41667 10.8438 2.0625C10.1979 1.70833 9.5 1.48958 8.75 1.40625C8.80208 1.33333 8.84115 1.25521 8.86719 1.17188C8.89323 1.08854 8.90625 1 8.90625 0.90625C8.90625 0.65625 8.81771 0.442708 8.64062 0.265625C8.46354 0.088542 8.25 0 8 0C7.75 0 7.53646 0.088542 7.35938 0.265625C7.18229 0.442708 7.09375 0.65625 7.09375 0.90625C7.09375 1 7.10677 1.08854 7.13281 1.17188C7.15885 1.25521 7.19792 1.33333 7.25 1.40625C6.5 1.48958 5.80208 1.70833 5.15625 2.0625C4.5 2.41667 3.93229 2.86198 3.45312 3.39844C2.97396 3.9349 2.59896 4.54688 2.32812 5.23438C2.05729 5.93229 1.92188 6.66667 1.92188 7.4375V11.7188H0.78125V13.0781H15.2188V11.7188H14.0781ZM12.7344 11.7188H3.26562V7.4375C3.26562 6.78125 3.39062 6.16667 3.64062 5.59375C3.89062 5.02083 4.22917 4.52083 4.65625 4.09375C5.08333 3.66667 5.58333 3.32812 6.15625 3.07812C6.72917 2.82812 7.34375 2.70312 8 2.70312C8.65625 2.70312 9.27083 2.82812 9.84375 3.07812C10.4167 3.32812 10.9167 3.66667 11.3438 4.09375C11.7708 4.52083 12.1094 5.02083 12.3594 5.59375C12.6094 6.16667 12.7344 6.78125 12.7344 7.4375V11.7188Z" fill="white"/>
</g>
<defs>
<clipPath id="clip0_0_174">
<rect width="16" height="16" fill="white" transform="matrix(1 0 0 -1 0 16)"/>
</clipPath>
</defs>
</svg>
