<svg width="31" height="30" viewBox="0 0 31 30" fill="none" xmlns="http://www.w3.org/2000/svg">
<path d="M15.5781 30C23.8624 30 30.5781 23.2843 30.5781 15C30.5781 6.71573 23.8624 0 15.5781 0C7.29385 0 0.578125 6.71573 0.578125 15C0.578125 23.2843 7.29385 30 15.5781 30Z" fill="#507CBE"/>
<path d="M18.0781 9.62488H19.9531V6.62488H17.5781H17.0781C17.0781 6.62488 15.3281 6.62488 14.2031 7.99988C14.2031 7.99988 13.4531 8.74988 13.4531 10.7499V12.8749H10.7031V15.9999H13.4531V23.9999H16.7031V15.9999H19.4531L19.8281 12.8749H16.7031V10.8749C16.7031 10.6249 16.8281 9.49988 18.0781 9.62488Z" fill="white"/>
</svg>
