<svg width="300" height="40" viewBox="0 0 300 40" fill="none" xmlns="http://www.w3.org/2000/svg">
<path d="M15.2 0.979592L19.7 0.244898L21.2 4.16326C22.9 4.40816 24.6 4.73469 26.3 5.06122C27.6 4 28.9 3.02041 30.2 1.95918C30.7 2.36735 31.8 3.10204 32.3 3.5102C30.3 5.79592 28.4 8.08163 26.4 10.2857C24.4 10.0408 22.3 9.46939 20.2 9.63265C15.5 10.3673 11.9 14.1224 11.7 17.9592C11.5 20.1633 13.2 22.0408 14.6 23.7551C12.7 25.9592 10.8 28.0816 8.9 30.2857C8.2 29.7959 7.4 29.3878 6.7 28.898L8.5 25.2245C7.6 24 7 23.102 6.1 21.8776C4 21.9592 3.4 21.9592 1.1 21.9592L0.2 19.3469L0 18.3673C1.8 17.6327 3.5 16.8163 5.2 16C5.6 14.6939 6.1 13.3878 6.5 12L3.3 9.38775C4.3 8.2449 5.3 7.18367 6.2 6.04082C7.5 6.61224 8.9 7.10204 10.2 7.67347C11.8 6.85714 13.5 6.12245 15.1 5.38775C15.2 3.91837 15.2 2.44898 15.2 0.979592Z" fill="#3585AD"/>
<path d="M290.3 9.38772H296V13.7143H299.7V17.1428H296C296.2 20.5714 295.5 24.0816 296.4 27.5102C297.5 27.8367 298.7 28.0816 300 28.2449V31.4285C296.7 32 292 32 290.8 28.8163C289.8 24.9796 290.4 21.0612 290.3 17.2245C289.5 17.2245 288 17.1428 287.3 17.1428V13.7143H290.3V9.38772ZM244.7 13.7143C246.5 13.7143 248.3 13.7143 250.1 13.6326C250.1 14.1224 250.2 15.0204 250.2 15.5102C252.7 14.0408 255.9 12.8163 259 13.7143C261.7 14.2857 263.1 16.653 263.1 18.7755C263.2 22.9387 263.1 27.102 263.1 31.2653H257.5C257.4 27.0204 257.7 22.8571 257.4 18.6122C256.2 16.0816 250.5 16.9796 250.5 19.6734C250.4 23.5102 250.5 27.4285 250.5 31.2653H244.8C244.7 25.3877 244.7 19.5102 244.7 13.7143ZM272.4 30.7755C264.5 27.7551 265.1 16.5714 273.2 14.0408C276.9 12.8979 281.7 13.551 284.2 16.2449C286.3 18.5306 286.2 21.4694 286.4 24.1632H272.4C273.2 25.6326 274.1 27.3469 276.1 27.8367C278.7 28.5714 281.2 27.4285 283 26.0408C283.9 26.9387 284.8 27.7551 285.8 28.653C282.6 31.6734 276.8 32.4898 272.4 30.7755ZM272.5 20.7347C275.3 20.8163 278.1 20.8163 280.9 20.7347C280.6 19.0204 279.6 16.9796 277.1 17.0612C274.3 16.8979 273.1 19.102 272.5 20.7347ZM234.3 27.2653C236.7 24.9796 241.7 27.9183 239.3 30.4489C236.9 33.3061 231 29.7959 234.3 27.2653Z" fill="#3585AD"/>
<path d="M134.199 6.79965C135.999 6.79965 137.799 6.79965 139.599 6.71802C139.699 15.0445 139.599 23.3711 139.699 31.616H134.299C134.199 23.3711 134.199 15.0445 134.199 6.79965ZM144.699 6.79965C146.599 6.79965 148.599 6.79965 150.499 6.71802V31.6976H144.699V6.79965ZM77.2992 9.82006H82.7992V14.065C84.0992 14.065 85.3992 14.1466 86.6992 14.1466V17.4935C85.3992 17.5752 84.0992 17.5752 82.6992 17.6568C82.7992 20.8405 82.4992 24.1058 82.8992 27.2894C83.5992 28.5139 85.4992 28.3507 86.7992 28.5139C86.6992 29.6568 86.6992 30.7997 86.5992 31.8609C83.3992 32.1874 79.0992 32.269 77.6992 29.3303C76.6992 25.4935 77.2992 21.5752 77.1992 17.6568C76.1992 17.5752 75.0992 17.4935 74.0992 17.4119C74.0992 16.269 74.0992 15.2078 74.1992 14.065C74.9992 14.065 76.3992 13.9833 77.1992 13.9017C77.2992 12.5956 77.2992 11.2078 77.2992 9.82006ZM205.599 15.8609C207.099 14.3099 209.299 13.7384 211.599 13.8201C211.599 15.2894 211.699 16.8405 211.699 18.3099C209.399 18.3099 207.199 18.5548 205.399 19.7792C205.499 23.7792 205.399 27.7792 205.399 31.6976H199.599V14.1466C201.899 14.3915 205.499 13.167 205.599 15.8609ZM18.6992 14.065C20.6992 14.3915 24.3992 13.0854 24.1992 15.7792C27.5992 13.4119 33.0992 13.0854 35.9992 16.1874C38.2992 14.3099 41.7992 13.2486 44.9992 14.2282C47.7992 14.718 48.9992 17.3303 49.0992 19.3711C49.1992 23.4527 49.0992 27.5343 49.0992 31.616H43.3992C43.2992 27.4527 43.5992 23.2894 43.2992 19.1262C42.4992 16.5956 38.1992 17.4119 36.6992 19.0445V31.616H30.9992C30.8992 27.4527 31.1992 23.2894 30.8992 19.2078C30.4992 16.9221 26.0992 17.0854 24.6992 18.718C24.2992 23.0445 24.6992 27.2894 24.4992 31.616H18.7992C18.6992 25.8201 18.6992 19.9425 18.6992 14.065ZM58.2992 14.6364C63.3992 12.6772 70.2992 14.5548 72.1992 19.0445C73.2992 22.4731 73.3992 26.6364 70.3992 29.4935C66.1992 33.4935 56.9992 33.0037 54.0992 28.1058C51.2992 23.616 52.3992 17.0037 58.2992 14.6364ZM61.2992 17.8201C58.0992 18.9629 58.2992 22.3915 58.4992 24.7588C58.5992 26.8813 61.2992 29.0854 63.9992 28.269C67.2992 27.3711 67.5992 23.9425 67.1992 21.4935C67.0992 19.2078 64.2992 16.6772 61.2992 17.8201ZM94.2992 14.5548C99.3992 12.6772 106.199 14.7997 107.899 19.2894C108.899 22.3915 108.999 26.065 106.599 28.7588C102.999 33.4119 92.9992 33.2486 89.7992 28.1874C86.8992 23.6976 87.9992 16.6772 94.2992 14.5548ZM97.1992 17.6568C93.6992 18.8813 93.9992 22.4731 94.3992 25.0854C94.3992 27.5343 98.1992 29.4119 100.699 27.8609C103.399 26.3099 102.899 23.2894 102.699 20.9221C102.499 18.718 99.7992 17.0037 97.1992 17.6568ZM111.399 19.4527C112.699 12.5956 126.699 11.8609 129.199 18.3915C129.699 22.7997 128.999 27.2894 129.699 31.7792C127.599 31.6976 125.299 31.9425 123.499 30.8813C120.699 32.0241 117.199 32.7588 114.299 31.2894C111.099 30.065 110.499 26.5548 111.899 24.1874C114.399 20.9221 119.599 21.0854 123.699 21.0854C123.299 19.8609 123.699 18.1466 121.799 17.6568C119.699 16.6772 117.899 18.2282 116.799 19.4527C115.099 19.3711 113.199 19.4527 111.399 19.4527ZM116.299 26.6364C118.099 28.8405 121.099 28.5956 123.599 27.3711V23.616C120.499 23.3711 117.299 24.0241 116.299 26.6364ZM156.799 16.5956C160.499 12.6772 169.399 12.9221 172.199 17.5752C173.699 19.6976 173.399 22.2282 173.599 24.5139C168.999 24.5139 164.499 24.4323 159.899 24.5139C160.399 26.1466 161.599 27.9425 163.899 28.269C166.399 28.8405 168.699 27.5343 170.699 26.4731C171.499 27.3711 172.299 28.1874 172.999 29.0037C168.199 33.8201 157.199 32.6772 154.699 26.6364C153.999 23.3711 153.799 19.2894 156.799 16.5956ZM159.999 21.2486H167.999C167.699 19.9425 167.699 18.3099 165.799 17.8201C162.899 16.6772 160.299 18.9629 159.999 21.2486ZM175.999 21.3303C176.299 18.5548 177.899 15.7792 181.099 14.5548C184.099 13.3303 187.699 13.9833 190.099 15.7792C189.899 13.2486 193.399 14.4731 195.299 14.1466C195.199 20.5139 195.499 26.8813 195.099 33.2486C193.199 39.5343 181.699 40.4323 176.999 35.7792C177.899 34.9629 178.799 34.1466 179.599 33.3303C182.499 35.2078 186.699 35.7792 189.399 33.4119C189.399 32.5139 189.499 31.616 189.499 30.718C187.199 31.8609 184.299 32.7588 181.699 31.7792C176.799 30.065 175.399 25.167 175.999 21.3303ZM182.399 19.616C181.099 22.1466 180.899 25.7384 183.599 27.6976C185.299 29.0854 187.699 28.0241 189.499 27.5343C189.599 24.7588 189.899 21.9017 189.499 19.1262C188.199 16.7588 183.499 17.167 182.399 19.616ZM218.299 14.718C222.599 13.0037 228.599 13.8201 231.299 17.3303C233.799 20.8405 233.899 25.6568 230.999 29.0037C227.099 33.4935 217.399 33.0037 214.299 28.1058C211.499 23.6976 212.399 17.0037 218.299 14.718ZM221.299 17.9017C217.999 19.3711 218.099 23.1262 218.899 25.6568C219.399 28.269 223.999 29.4119 225.999 27.2894C227.799 25.0854 227.699 22.065 226.699 19.616C225.999 17.9017 223.299 17.0037 221.299 17.9017Z" fill="black"/>
</svg>
