<svg width="20" height="20" viewBox="0 0 20 20" fill="none" xmlns="http://www.w3.org/2000/svg">
<path d="M8.24282 0C8.6201 0 8.99778 0 9.37545 0C9.43181 0.01174 9.48777 0.0297413 9.54452 0.034046C10.5057 0.109182 11.4372 0.324024 12.3084 0.733358C15.466 2.2169 17.2518 4.6913 17.5813 8.17534C17.7324 9.77276 17.4138 11.2994 16.682 12.7246C16.3747 13.3229 15.9853 13.8786 15.6119 14.4887C15.6319 14.5048 15.6981 14.5486 15.7532 14.6034C17.0287 15.8768 18.3065 17.1478 19.5742 18.429C19.7429 18.5997 19.8591 18.8223 20 19.0207V19.3722C19.9879 19.3859 19.9706 19.3972 19.964 19.4132C19.6994 20.0593 19.0521 20.1959 18.5566 19.7024C17.4083 18.559 16.2636 17.4116 15.1184 16.2646C14.8934 16.0392 14.6723 15.8095 14.4551 15.588C14.4245 15.5989 14.4112 15.6009 14.4014 15.6079C14.3541 15.6424 14.3079 15.678 14.2613 15.7136C12.1714 17.3161 9.82709 17.9191 7.23113 17.4621C3.22153 16.7565 0.19388 13.2991 0.00993536 9.22959C-0.069513 7.46898 0.326163 5.8156 1.24589 4.30858C2.62077 2.05685 4.61011 0.664483 7.20451 0.153794C7.54735 0.0860933 7.89646 0.050482 8.24282 0ZM15.9841 8.8003C15.9728 4.83648 12.735 1.60642 8.797 1.63068C4.82771 1.65495 1.63961 4.84588 1.63139 8.80265C1.62317 12.7504 4.85511 15.9832 8.80913 15.982C12.7643 15.9809 15.9955 12.7469 15.9841 8.8003Z" fill="white"/>
</svg>
