<svg width="31" height="30" viewBox="0 0 31 30" fill="none" xmlns="http://www.w3.org/2000/svg">
<path d="M15.2988 30C23.5488 30 30.2988 23.25 30.2988 15C30.2988 6.75 23.5488 0 15.2988 0C7.04883 0 0.298828 6.75 0.298828 15C0.298828 23.25 7.04883 30 15.2988 30Z" fill="#2CA5E0"/>
<path d="M21.9239 9.87523C21.9239 10.2502 21.7989 10.7502 21.6739 11.1252C20.9239 14.6252 20.2989 18.1253 19.5489 21.6253C19.4239 21.8753 19.4239 22.0003 19.2989 22.2503C19.1739 22.5003 18.7989 22.6252 18.5489 22.5002C18.2989 22.3752 18.1739 22.3753 18.0489 22.2503C16.9239 21.3753 15.9239 20.6253 14.7989 19.7503C14.6739 19.6253 14.5489 19.6253 14.5489 19.7503C14.0489 20.2503 13.5489 20.7502 12.9239 21.3752C12.6739 21.6252 12.4239 21.6253 12.1739 21.6253C11.9239 21.6253 11.9239 21.5002 11.7989 21.3752C11.5489 20.3752 11.1739 19.2502 10.7989 18.1252C10.6739 17.7502 10.5489 17.3752 10.4239 17.0002C10.2989 16.8752 10.2989 16.7502 10.1739 16.7502C9.1739 16.5002 8.04889 16.1252 6.92389 15.7502C6.79889 15.6252 6.67391 15.6252 6.54891 15.6252C6.29891 15.3752 6.2989 15.1252 6.4239 15.0002C6.5489 14.8752 6.7989 14.7502 7.0489 14.6252C8.4239 14.0002 9.9239 13.5003 11.4239 12.8753C14.5489 11.6253 17.6739 10.3753 20.9239 9.12526H21.0489C21.4239 8.87526 21.9239 9.12523 21.9239 9.87523ZM12.0489 20.6252C12.1739 20.6252 12.1739 20.6252 12.0489 20.6252C12.1739 19.7502 12.2989 19.0002 12.2989 18.2502C12.2989 18.0002 12.4239 17.8752 12.5489 17.7502C14.5489 15.8752 16.6739 14.0002 18.6739 12.0002C18.7989 11.8752 18.9239 11.7503 19.0489 11.6253C19.1739 11.5003 19.1739 11.5002 19.1739 11.3752C19.0489 11.2502 19.0489 11.2502 18.9239 11.2502C18.7989 11.2502 18.6739 11.3752 18.4239 11.3752C15.9239 13.0002 13.4239 14.6252 10.7989 16.2502C10.6739 16.3752 10.6739 16.3752 10.6739 16.5002C10.9239 17.5002 11.2989 18.5002 11.5489 19.3752C11.7989 20.0002 11.9239 20.3752 12.0489 20.6252Z" fill="white"/>
</svg>
