<svg width="31" height="30" viewBox="0 0 31 30" fill="none" xmlns="http://www.w3.org/2000/svg">
<path d="M15.1602 30C23.4102 30 30.1602 23.25 30.1602 15C30.1602 6.75 23.4102 0 15.1602 0C6.91016 0 0.160156 6.75 0.160156 15C0.160156 23.25 6.91016 30 15.1602 30Z" fill="#7C529D"/>
<path d="M23.6601 11.1251C23.1601 9.37508 21.2851 7.62511 19.6601 7.25011C16.9101 6.75011 14.0351 6.75011 11.2851 7.25011C9.53513 7.62511 7.66016 9.37508 7.28516 11.1251C6.78516 13.5001 6.78516 15.8751 7.28516 18.2501C7.66016 19.8751 9.41013 21.6251 11.1601 22.1251V24.0001C11.1601 24.6251 12.0351 25.0001 12.4101 24.5001L14.2851 22.5001C14.7851 22.5001 15.1601 22.5001 15.5351 22.5001C16.9101 22.5001 18.2852 22.3751 19.7852 22.1251C21.5352 21.7501 23.4101 20.0001 23.7851 18.2501C24.1601 15.8751 24.1601 13.5001 23.6601 11.1251ZM22.1601 17.8751C21.9101 19.0001 20.4101 20.3751 19.2851 20.6251C17.7851 20.8751 16.2852 21.0001 14.7852 21.0001H14.6601C14.4101 21.2501 13.2851 22.3751 13.2851 22.3751L11.7851 23.8751C11.6601 24.0001 11.5351 23.8751 11.5351 23.7501V20.6251C11.5351 20.5001 11.5351 20.5001 11.4101 20.5001C10.2851 20.2501 8.91016 18.8751 8.53516 17.7501C8.03516 15.6251 8.03516 13.3751 8.53516 11.2501C8.78516 10.1251 10.2851 8.75011 11.4101 8.50011C14.0351 8.00011 16.6602 8.00011 19.1602 8.50011C20.2852 8.75011 21.6601 10.1251 22.0351 11.2501C22.5351 13.5001 22.5351 15.7501 22.1601 17.8751ZM18.4101 16.7501C18.1601 16.6251 17.9101 16.3751 17.6601 16.2501C17.4101 16.1251 17.0351 16.1251 16.7851 16.2501C16.5351 16.5001 16.4102 16.8751 16.0352 16.8751C15.7852 16.8751 15.6602 16.7501 15.4102 16.7501C14.2852 16.2501 13.5351 15.3751 13.1601 14.2501C13.0351 14.1251 13.0351 14.0001 13.1601 13.7501C13.2851 13.6251 13.2851 13.6251 13.2851 13.6251C13.4101 13.5001 13.4102 13.5001 13.5352 13.5001C13.7852 13.2501 13.9101 12.8751 13.7851 12.5001C13.5351 12.0001 13.1601 11.5001 12.7851 11.0001C12.5351 10.7501 12.2851 10.7501 12.1601 10.8751C11.9101 11.0001 11.5351 11.2501 11.2851 11.5001C11.0351 11.7501 10.7852 12.2501 11.0352 12.6251C11.1602 13.1251 11.4101 13.5001 11.5351 13.8751C12.0351 14.7501 12.5351 15.6251 13.1601 16.3751C14.4101 17.7501 15.7851 18.5001 17.4101 19.2501C17.5351 19.3751 17.6602 19.3751 17.9102 19.3751C18.0352 19.2501 18.1601 19.2501 18.4101 19.2501C18.9101 19.0001 19.2851 18.6251 19.4101 18.1251C19.5351 17.8751 19.5351 17.6251 19.2851 17.3751C18.9101 17.1251 18.6601 16.8751 18.4101 16.7501ZM15.4102 10.1251C15.2852 10.1251 17.4102 10.2501 15.4102 10.1251V10.1251ZM15.4102 10.1251C15.2852 10.1251 15.2851 10.1251 15.2851 10.1251C15.1601 10.1251 15.0351 10.2501 15.0351 10.3751C15.0351 10.5001 15.2852 10.6251 15.4102 10.6251C15.6602 10.6251 15.9102 10.6251 16.0352 10.7501C17.6602 11.0001 18.7851 12.3751 19.0351 13.8751C19.1601 14.1251 19.1602 14.5001 19.1602 14.7501C19.1602 14.8751 19.2851 15.0001 19.4101 15.0001C19.5351 15.0001 19.6601 14.8751 19.6601 14.7501C19.6601 14.3751 19.5351 14.0001 19.5351 13.7501C19.1601 11.6251 17.4102 10.2501 15.4102 10.1251ZM18.0351 14.2501C18.0351 14.3751 18.0351 14.3751 18.0351 14.5001C18.1601 14.7501 18.4102 14.6251 18.5352 14.5001C18.5352 14.3751 18.5352 14.3751 18.5352 14.3751C18.5352 14.2501 18.5352 14.1251 18.5352 14.0001C18.5352 13.8751 18.5352 13.8751 18.5352 13.8751C18.4102 12.8751 17.9101 12.1251 17.0351 11.7501C16.5351 11.5001 16.1601 11.5001 15.6601 11.3751C15.5351 11.3751 15.4102 11.5001 15.4102 11.6251C15.4102 11.7501 15.5351 11.8751 15.6601 11.8751C15.7851 11.8751 15.9102 11.8751 16.0352 12.0001C16.2852 12.1251 16.5351 12.1251 16.9101 12.2501C17.2851 12.5001 17.6602 12.7501 17.9102 13.2501C17.9102 13.3751 18.0351 13.8751 18.0351 14.2501ZM17.2852 14.2501C17.4102 14.2501 17.4101 14.1251 17.4101 14.1251C17.4101 14.1251 17.4101 14.0001 17.4101 13.8751C17.2851 12.8751 16.7851 12.5001 15.9101 12.5001C15.7851 12.5001 15.6601 12.6251 15.6601 12.7501C15.6601 12.8751 15.7851 13.0001 15.9101 13.0001C16.0351 13.0001 16.1601 13.0001 16.2851 13.1251C16.4101 13.1251 16.5351 13.2501 16.5351 13.2501C16.6601 13.3751 16.7851 13.5001 16.9101 13.7501C16.9101 13.8751 16.9101 14.0001 17.0351 14.0001C16.9101 14.2501 17.0352 14.2501 17.2852 14.2501C17.1602 14.2501 17.0352 14.2501 17.2852 14.2501Z" fill="white"/>
</svg>
