<svg width="31" height="30" viewBox="0 0 31 30" fill="none" xmlns="http://www.w3.org/2000/svg">
<path d="M15.4395 30C23.6895 30 30.4395 23.25 30.4395 15C30.4395 6.75 23.6895 0 15.4395 0C7.18945 0 0.439453 6.75 0.439453 15C0.439453 23.25 7.18945 30 15.4395 30Z" fill="#5BB655"/>
<path d="M6.10921 23.9647C6.27817 23.0349 6.44133 22.134 6.60545 21.2327C6.6863 20.7894 6.77442 20.347 6.84365 19.9018C6.85769 19.8125 6.82089 19.7008 6.77296 19.6196C5.91362 18.1571 5.45901 16.5806 5.44013 14.8953C5.41399 12.5557 6.14116 10.4556 7.6507 8.64052C9.366 6.57842 11.5882 5.37156 14.28 5.06747C19.6941 4.45549 24.366 8.08888 25.2757 12.9766C26.2561 18.245 22.7345 23.299 17.379 24.3002C15.0725 24.7316 12.8755 24.4137 10.7831 23.3708C10.6703 23.3147 10.5182 23.2895 10.3938 23.3085C9.04114 23.5157 7.6904 23.7352 6.33869 23.95C6.27624 23.96 6.21185 23.9585 6.10921 23.9642V23.9647ZM8.10531 22.0642C8.19875 22.0566 8.24668 22.057 8.29267 22.0485C9.06003 21.9074 9.82641 21.7591 10.5957 21.6299C10.7226 21.6085 10.8857 21.6337 10.9946 21.6983C12.877 22.8158 14.8982 23.1746 17.0565 22.7783C21.9691 21.876 24.9751 16.9274 23.4539 12.2549C22.1656 8.29937 18.0427 5.92272 13.8283 6.7067C8.17115 7.75866 5.24357 14.0405 8.19633 18.8593C8.53232 19.4077 8.61704 19.8742 8.44662 20.4601C8.29703 20.9732 8.22102 21.5073 8.10531 22.0646V22.0642Z" fill="white"/>
<path d="M10.6836 12.4437C10.7151 11.5647 11.0685 10.8486 11.7608 10.2965C11.9637 10.1345 12.1989 10.0675 12.4618 10.1084C12.5257 10.1183 12.5911 10.1383 12.6535 10.1316C13.0801 10.0865 13.2766 10.3103 13.3938 10.6833C13.5599 11.2112 13.7341 11.739 13.9525 12.247C14.1064 12.6057 14.0111 12.8742 13.7748 13.1326C13.6184 13.3032 13.4562 13.469 13.2878 13.6277C13.1377 13.7693 13.114 13.9176 13.2079 14.0972C13.9307 15.476 15.0016 16.4985 16.4424 17.1423C16.6167 17.2203 16.7706 17.1941 16.9028 17.054C17.1657 16.775 17.4392 16.5052 17.6886 16.2153C17.8493 16.0286 18.0212 15.9664 18.2381 16.0818C18.9033 16.4363 19.5685 16.7917 20.224 17.1632C20.3058 17.2093 20.3775 17.3576 20.3717 17.454C20.3315 18.1145 20.1199 18.6865 19.4915 19.0443C18.7421 19.4715 17.98 19.5855 17.1318 19.3251C14.8259 18.6167 13.0786 17.2298 11.8111 15.2299C11.3808 14.5509 10.9382 13.8791 10.7795 13.077C10.7378 12.868 10.7155 12.6556 10.6841 12.4451L10.6836 12.4437Z" fill="white"/>
</svg>
