<svg width="18" height="18" viewBox="0 0 18 18" fill="none" xmlns="http://www.w3.org/2000/svg">
<g clip-path="url(#clip0_0_166)">
<path d="M9 18C7.75781 18 6.5918 17.7656 5.50195 17.2969C4.41211 16.8164 3.45996 16.1689 2.64551 15.3545C1.83105 14.54 1.18359 13.5879 0.703125 12.498C0.234375 11.4082 0 10.2422 0 9C0 7.75781 0.234375 6.5918 0.703125 5.50195C1.18359 4.41211 1.83105 3.45996 2.64551 2.64551C3.45996 1.83105 4.41211 1.18359 5.50195 0.703125C6.5918 0.234375 7.75781 0 9 0C10.2422 0 11.4082 0.234375 12.498 0.703125C13.5879 1.18359 14.54 1.83105 15.3545 2.64551C16.1689 3.45996 16.8164 4.41211 17.2969 5.50195C17.7656 6.5918 18 7.75781 18 9C18 10.2422 17.7656 11.4082 17.2969 12.498C16.8164 13.5879 16.1689 14.54 15.3545 15.3545C14.54 16.1689 13.5879 16.8164 12.498 17.2969C11.4082 17.7656 10.2422 18 9 18ZM9 1.03711C7.89844 1.03711 6.86719 1.24219 5.90625 1.65234C4.93359 2.07422 4.08691 2.64551 3.36621 3.36621C2.64551 4.08691 2.07422 4.93359 1.65234 5.90625C1.24219 6.86719 1.03711 7.89844 1.03711 9C1.03711 10.1016 1.24219 11.1328 1.65234 12.0938C2.07422 13.0664 2.64551 13.9131 3.36621 14.6338C4.08691 15.3545 4.93359 15.9258 5.90625 16.3477C6.86719 16.7578 7.89844 16.9629 9 16.9629C10.1016 16.9629 11.1328 16.7578 12.0938 16.3477C13.0664 15.9258 13.9131 15.3545 14.6338 14.6338C15.3545 13.9131 15.9258 13.0664 16.3477 12.0938C16.7578 11.1328 16.9629 10.1016 16.9629 9C16.9629 7.89844 16.7578 6.86719 16.3477 5.90625C15.9258 4.93359 15.3545 4.08691 14.6338 3.36621C13.9131 2.64551 13.0664 2.07422 12.0938 1.65234C11.1328 1.24219 10.1016 1.03711 9 1.03711ZM11.7598 12.2695C11.6895 12.2695 11.625 12.2578 11.5664 12.2344C11.5078 12.2109 11.4492 12.1758 11.3906 12.1289L8.63086 9.36914C8.58398 9.32227 8.54883 9.2666 8.52539 9.20215C8.50195 9.1377 8.49023 9.07031 8.49023 9V3.16406C8.49023 3.02344 8.54004 2.90332 8.63965 2.80371C8.73926 2.7041 8.85938 2.6543 9 2.6543C9.14062 2.6543 9.26074 2.7041 9.36035 2.80371C9.45996 2.90332 9.50977 3.02344 9.50977 3.16406V8.78906L12.1289 11.3906C12.2227 11.4961 12.2695 11.6191 12.2695 11.7598C12.2695 11.9004 12.2227 12.0234 12.1289 12.1289C12.0703 12.1758 12.0117 12.2109 11.9531 12.2344C11.8945 12.2578 11.8301 12.2695 11.7598 12.2695Z" fill="#4BA0E8"/>
</g>
<defs>
<clipPath id="clip0_0_166">
<rect width="18" height="18" fill="white" transform="matrix(1 0 0 -1 0 18)"/>
</clipPath>
</defs>
</svg>
