<svg width="31" height="30" viewBox="0 0 31 30" fill="none" xmlns="http://www.w3.org/2000/svg">
<path d="M15.7188 30C24.003 30 30.7188 23.2843 30.7188 15C30.7188 6.71573 24.003 0 15.7188 0C7.43448 0 0.71875 6.71573 0.71875 15C0.71875 23.2843 7.43448 30 15.7188 30Z" fill="url(#paint0_radial_0_177)"/>
<path d="M19.2187 6.25012H12.4687C9.46875 6.25012 6.96875 8.62512 6.96875 11.6251V18.3751C6.96875 21.3751 9.46875 23.7501 12.4687 23.7501H19.2187C22.2187 23.7501 24.7188 21.3751 24.7188 18.3751V11.6251C24.7188 8.62512 22.2187 6.25012 19.2187 6.25012ZM22.9687 17.7501C22.9687 20.1251 20.9687 22.1251 18.5937 22.1251H13.0937C10.7187 22.1251 8.71875 20.1251 8.71875 17.7501V12.2501C8.71875 9.87512 10.7187 7.87512 13.0937 7.87512H18.5937C20.9687 7.87512 22.9687 9.87512 22.9687 12.2501V17.7501ZM16.0937 10.3751C13.4687 10.3751 11.4688 12.3751 11.4688 15.0001C11.4688 17.5001 13.5937 19.6251 16.0937 19.6251C18.7187 19.6251 20.7187 17.5001 20.7187 15.0001C20.7187 12.5001 18.5937 10.3751 16.0937 10.3751ZM16.0937 17.7501C14.5937 17.7501 13.3438 16.5001 13.3438 15.0001C13.3438 13.5001 14.5937 12.2501 16.0937 12.2501C17.5937 12.2501 18.8437 13.5001 18.8437 15.0001C18.8437 16.5001 17.5937 17.7501 16.0937 17.7501ZM20.3437 11.5001C20.9687 11.5001 21.5938 11.0001 21.5938 10.3751C21.5938 9.75012 21.0937 9.25012 20.3437 9.25012C19.7187 9.25012 19.0937 9.75012 19.0937 10.3751C19.2187 11.0001 19.7187 11.5001 20.3437 11.5001Z" fill="white"/>
<defs>
<radialGradient id="paint0_radial_0_177" cx="0" cy="0" r="1" gradientUnits="userSpaceOnUse" gradientTransform="translate(8.83401 32.1315) rotate(-55.7276) scale(38.885 38.7757)">
<stop stop-color="#FEDB7F"/>
<stop offset="0.3378" stop-color="#FA6C2A"/>
<stop offset="0.5867" stop-color="#D92D76"/>
<stop offset="1" stop-color="#525DD0"/>
</radialGradient>
</defs>
</svg>
