<svg width="18" height="18" viewBox="0 0 18 18" fill="none" xmlns="http://www.w3.org/2000/svg">
<g clip-path="url(#clip0_0_171)">
<path d="M14.2206 11.1445C14.0448 10.957 13.8456 10.8135 13.6229 10.7139C13.4003 10.6143 13.1717 10.5645 12.9374 10.5645C12.703 10.5645 12.4774 10.6143 12.2606 10.7139C12.0438 10.8135 11.8358 10.957 11.6366 11.1445L10.4413 12.3398C10.3944 12.3164 10.3446 12.293 10.2919 12.2695C10.2391 12.2461 10.1893 12.2227 10.1424 12.1992C10.0838 12.1641 10.0223 12.1289 9.95787 12.0938C9.89342 12.0586 9.8319 12.0234 9.7733 11.9883C9.2108 11.6367 8.67174 11.2236 8.15612 10.749C7.64049 10.2744 7.13658 9.73828 6.6444 9.14062C6.41002 8.83594 6.2108 8.55469 6.04674 8.29688C5.88268 8.03906 5.74205 7.78125 5.62487 7.52344C5.77721 7.38281 5.92662 7.23926 6.07311 7.09277C6.21959 6.94629 6.36315 6.80273 6.50377 6.66211C6.55065 6.60352 6.60338 6.54785 6.66197 6.49512C6.72057 6.44238 6.7733 6.38672 6.82018 6.32812C7.21862 5.92969 7.41783 5.49316 7.41783 5.01855C7.41783 4.54395 7.21862 4.10742 6.82018 3.70898L5.78307 2.67188C5.72447 2.61328 5.66588 2.55176 5.60729 2.4873C5.54869 2.42285 5.4901 2.36133 5.43151 2.30273C5.31432 2.18555 5.19713 2.06836 5.07994 1.95117C4.96276 1.83398 4.83971 1.7168 4.7108 1.59961C4.53502 1.41211 4.33873 1.27148 4.12194 1.17773C3.90514 1.08398 3.67955 1.03711 3.44518 1.03711C3.2108 1.03711 2.98522 1.08398 2.76842 1.17773C2.55162 1.27148 2.34362 1.41211 2.1444 1.59961L0.861193 2.91797C0.6151 3.15234 0.42174 3.41895 0.281115 3.71777C0.14049 4.0166 0.0584591 4.33594 0.0350216 4.67578C-0.0118534 5.22656 0.0262325 5.75098 0.149279 6.24902C0.272326 6.74707 0.392443 7.16016 0.509631 7.48828C0.826037 8.32031 1.21862 9.13184 1.68737 9.92285C2.15612 10.7139 2.73619 11.5195 3.4276 12.3398C3.83776 12.8438 4.27135 13.3125 4.72838 13.7461C5.18541 14.1914 5.66295 14.6104 6.161 15.0029C6.65905 15.3955 7.1776 15.7559 7.71666 16.084C8.25572 16.4238 8.80651 16.7285 9.36901 16.998C9.81432 17.209 10.3212 17.417 10.8895 17.6221C11.4579 17.8271 12.0643 17.9531 12.7088 18C12.7557 18 12.7997 18 12.8407 18C12.8817 18 12.9198 18 12.9549 18C13.4003 18 13.8046 17.9209 14.1678 17.7627C14.5311 17.6045 14.8592 17.3672 15.1522 17.0508C15.1522 17.0508 15.1551 17.0508 15.161 17.0508C15.1669 17.0508 15.1698 17.0449 15.1698 17.0332C15.2635 16.916 15.3661 16.8018 15.4774 16.6904C15.5887 16.5791 15.703 16.4648 15.8202 16.3477C15.9022 16.2773 15.9872 16.2012 16.0751 16.1191C16.163 16.0371 16.2479 15.9492 16.3299 15.8555C16.5174 15.668 16.6581 15.46 16.7518 15.2314C16.8456 15.0029 16.8924 14.7773 16.8924 14.5547C16.8924 14.3086 16.8426 14.0771 16.743 13.8604C16.6434 13.6436 16.4999 13.4355 16.3124 13.2363L14.2206 11.1445ZM15.5917 15.1523C15.5096 15.2344 15.4305 15.3105 15.3544 15.3809C15.2782 15.4512 15.1991 15.5273 15.1171 15.6094C14.9999 15.7266 14.8797 15.8496 14.7567 15.9785C14.6337 16.1074 14.5135 16.2363 14.3963 16.3652C14.1971 16.5762 13.9833 16.7314 13.7547 16.8311C13.5262 16.9307 13.2596 16.9805 12.9549 16.9805C12.9315 16.9805 12.9051 16.9805 12.8758 16.9805C12.8465 16.9805 12.8143 16.9805 12.7792 16.9805C12.2167 16.9453 11.6805 16.834 11.1708 16.6465C10.661 16.459 10.2128 16.2715 9.82604 16.084C9.28697 15.8262 8.76549 15.5391 8.26158 15.2227C7.75768 14.9062 7.27135 14.5664 6.8026 14.2031C6.33385 13.8398 5.88268 13.4473 5.44908 13.0254C5.01549 12.6035 4.60533 12.1582 4.21862 11.6895C3.57408 10.916 3.02916 10.1572 2.58385 9.41309C2.13854 8.66895 1.7694 7.91016 1.47643 7.13672C1.30065 6.66797 1.18053 6.24023 1.11608 5.85352C1.05162 5.4668 1.03112 5.10352 1.05455 4.76367C1.07799 4.54102 1.13072 4.33594 1.21276 4.14844C1.29479 3.96094 1.41783 3.79102 1.5819 3.63867L2.88268 2.33789C2.96471 2.24414 3.05553 2.17676 3.15514 2.13574C3.25475 2.09473 3.35143 2.07422 3.44518 2.07422C3.57408 2.07422 3.68541 2.10352 3.77916 2.16211C3.87291 2.2207 3.94908 2.2793 4.00768 2.33789C4.00768 2.33789 4.01354 2.33789 4.02526 2.33789C4.13072 2.45508 4.24205 2.56934 4.35924 2.68066C4.47643 2.79199 4.58776 2.90625 4.69322 3.02344C4.75182 3.08203 4.81334 3.14355 4.8778 3.20801C4.94225 3.27246 5.00377 3.33398 5.06237 3.39258L6.09947 4.42969C6.29869 4.62891 6.3983 4.8252 6.3983 5.01855C6.3983 5.21191 6.29869 5.4082 6.09947 5.60742C6.04088 5.66602 5.98522 5.72168 5.93248 5.77441C5.87975 5.82715 5.82408 5.88281 5.76549 5.94141C5.61315 6.10547 5.45787 6.26367 5.29967 6.41602C5.14147 6.56836 4.98033 6.71484 4.81627 6.85547C4.81627 6.86719 4.81334 6.87305 4.80748 6.87305C4.80162 6.87305 4.79869 6.87305 4.79869 6.87305C4.63463 7.03711 4.5526 7.19531 4.5526 7.34766C4.5526 7.5 4.57018 7.62891 4.60533 7.73438C4.60533 7.74609 4.60533 7.75488 4.60533 7.76074C4.60533 7.7666 4.60533 7.76953 4.60533 7.76953C4.74596 8.09766 4.91588 8.42285 5.1151 8.74512C5.31432 9.06738 5.55455 9.41016 5.8358 9.77344L5.85338 9.79102C6.36901 10.4355 6.90514 11.0098 7.46178 11.5137C8.01842 12.0176 8.60143 12.4629 9.2108 12.8496C9.29283 12.8965 9.37487 12.9404 9.4569 12.9814C9.53893 13.0225 9.6151 13.0664 9.68541 13.1133C9.75572 13.1484 9.82311 13.1807 9.88756 13.21C9.95201 13.2393 10.0077 13.2715 10.0546 13.3066C10.0663 13.3066 10.0751 13.3096 10.0809 13.3154C10.0868 13.3213 10.0956 13.3301 10.1073 13.3418C10.1776 13.3652 10.2421 13.3857 10.3006 13.4033C10.3592 13.4209 10.4178 13.4297 10.4764 13.4297C10.6405 13.4297 10.7694 13.3945 10.8631 13.3242C10.9569 13.2539 11.0213 13.2012 11.0565 13.166L12.3573 11.8652C12.4276 11.8066 12.5126 11.7451 12.6122 11.6807C12.7118 11.6162 12.8202 11.584 12.9374 11.584C13.0546 11.584 13.16 11.6133 13.2538 11.6719C13.3475 11.7305 13.4237 11.7949 13.4823 11.8652L15.5741 13.957C15.7733 14.1562 15.8729 14.3555 15.8729 14.5547C15.8729 14.7539 15.7792 14.9531 15.5917 15.1523ZM9.72057 4.28906C10.2245 4.37109 10.6991 4.52637 11.1444 4.75488C11.5897 4.9834 11.994 5.2793 12.3573 5.64258C12.7088 6.00586 13.0018 6.41016 13.2362 6.85547C13.4706 7.30078 13.6288 7.76953 13.7108 8.26172C13.7342 8.39062 13.7928 8.49316 13.8866 8.56934C13.9803 8.64551 14.0917 8.68359 14.2206 8.68359C14.2323 8.68359 14.244 8.68359 14.2557 8.68359C14.2674 8.68359 14.285 8.68359 14.3085 8.68359C14.4491 8.66016 14.5604 8.58984 14.6424 8.47266C14.7245 8.35547 14.7538 8.22656 14.7303 8.08594C14.6249 7.48828 14.4315 6.91992 14.1503 6.38086C13.869 5.8418 13.5116 5.35547 13.078 4.92188C12.6444 4.48828 12.1581 4.13086 11.619 3.84961C11.0799 3.56836 10.5116 3.375 9.91393 3.26953C9.7733 3.24609 9.6444 3.27539 9.52721 3.35742C9.41002 3.43945 9.33971 3.55078 9.31627 3.69141C9.29283 3.83203 9.3192 3.96094 9.39537 4.07812C9.47155 4.19531 9.57994 4.26562 9.72057 4.28906ZM17.9823 7.94531C17.9003 7.44141 17.7772 6.95508 17.6131 6.48633C17.4608 6.01758 17.2704 5.56348 17.0419 5.12402C16.8133 4.68457 16.5526 4.26562 16.2596 3.86719C15.9549 3.45703 15.6268 3.07617 15.2753 2.72461C14.912 2.36133 14.5311 2.0332 14.1327 1.74023C13.7225 1.44727 13.2977 1.18652 12.8583 0.958008C12.4188 0.729492 11.9647 0.533203 11.496 0.369141C11.0272 0.216797 10.5467 0.09375 10.0546 0C9.91393 -0.0234375 9.78502 0.00585938 9.66783 0.0878906C9.55065 0.169922 9.48033 0.28125 9.4569 0.421875C9.43346 0.5625 9.46276 0.691406 9.54479 0.808594C9.62682 0.925781 9.73815 0.996094 9.87877 1.01953C10.7694 1.17188 11.6102 1.45312 12.4012 1.86328C13.1922 2.27344 13.91 2.80078 14.5546 3.44531C15.1874 4.07812 15.7118 4.79297 16.1278 5.58984C16.5438 6.38672 16.8221 7.22461 16.9628 8.10352C16.9862 8.23242 17.0477 8.33496 17.1473 8.41113C17.2469 8.4873 17.3553 8.52539 17.4725 8.52539C17.4842 8.52539 17.4989 8.52539 17.5165 8.52539C17.534 8.52539 17.5487 8.52539 17.5604 8.52539C17.701 8.50195 17.8124 8.43457 17.8944 8.32324C17.9764 8.21191 18.0057 8.08594 17.9823 7.94531Z" fill="#4BA0E8"/>
</g>
<defs>
<clipPath id="clip0_0_171">
<rect width="18" height="18" fill="white" transform="matrix(1 0 0 -1 0 18)"/>
</clipPath>
</defs>
</svg>
